<svg width="26" height="25" viewBox="0 0 26 25" fill="none" xmlns="http://www.w3.org/2000/svg">
<path d="M13.7163 9.70606C13.2601 8.91584 13.2601 7.94124 13.7163 7.15103L16.9981 1.46743V1.46863C17.4483 0.655671 18.3043 0.150391 19.2334 0.150391C20.1625 0.150391 21.0186 0.65564 21.4676 1.46863L24.7374 7.13904C25.1948 7.93045 25.1936 8.90625 24.735 9.69769C24.2765 10.4879 23.43 10.974 22.5152 10.9704H15.9504C15.0333 10.9812 14.1796 10.4987 13.7163 9.70606ZM24.3675 14.6988C22.987 13.3698 20.8748 13.1591 19.2586 14.1887C17.6422 13.159 15.5302 13.3698 14.1497 14.6988C13.3882 15.4591 12.9596 16.49 12.9596 17.5663C12.9596 18.6427 13.3882 19.6736 14.1497 20.4339L16.4102 22.6944C18.0014 24.2605 20.5542 24.2605 22.1453 22.6944L24.4058 20.4339C25.1673 19.6736 25.5959 18.6427 25.5959 17.5663C25.5959 16.49 25.1673 15.4591 24.4058 14.6988H24.3675ZM7.12631 0.152779H3.75471C1.68817 0.152779 0.0119305 1.82779 0.0119305 3.89434V7.25398C0.0119305 9.32053 1.68817 10.9955 3.75471 10.9955H7.12631C9.18808 10.9884 10.8547 9.31572 10.8547 7.25398V3.89434C10.8547 1.83257 9.18805 0.159829 7.12631 0.152779ZM5.44051 13.2944C4.00017 13.2908 2.61729 13.8607 1.5972 14.876C0.575907 15.8925 0.00239829 17.273 7.51639e-06 18.7135C-0.00238724 20.1538 0.56754 21.5355 1.58524 22.5556C2.60175 23.5757 3.98343 24.1492 5.42274 24.1504C6.86308 24.1516 8.24477 23.5793 9.2636 22.5616C10.2824 21.5439 10.8548 20.1622 10.8548 18.7219C10.8548 17.2852 10.2849 15.9059 9.26958 14.8893C8.25427 13.8716 6.87721 13.2979 5.44051 13.2944Z" fill="#6427FF"/>
</svg>
