<svg width="24" height="24" viewBox="0 0 24 24" fill="none" xmlns="http://www.w3.org/2000/svg">
<path d="M4.79999 0C5.96946 0 7.04314 0.419263 7.87574 1.11481C8.0901 1.29386 8.19554 1.57172 8.15394 1.84788C8.11238 2.12404 7.92978 2.35853 7.67222 2.46653C5.33098 3.44831 3.39259 5.20367 2.17814 7.41282C2.04367 7.65742 1.79145 7.81426 1.5126 7.82666C1.23376 7.83906 0.968617 7.70522 0.812986 7.4735C0.299567 6.7091 0 5.7883 0 4.79999C0 2.14903 2.14903 0 4.79999 0Z" fill="#6427FF"/>
<path d="M19.1998 0C18.0303 0 16.9566 0.419263 16.124 1.11481C15.9097 1.29386 15.8043 1.57172 15.8458 1.84788C15.8874 2.12404 16.07 2.35853 16.3276 2.46653C18.6688 3.44831 20.6072 5.20367 21.8217 7.41282C21.9561 7.65742 22.2083 7.81426 22.4872 7.82666C22.766 7.83906 23.0312 7.70522 23.1868 7.4735C23.7002 6.7091 23.9998 5.7883 23.9998 4.79999C23.9998 2.14903 21.8507 0 19.1998 0Z" fill="#6427FF"/>
<path d="M14.7998 10.1006V14.3998H17.1998V13.1998C17.1998 11.7087 16.18 10.4558 14.7998 10.1006Z" fill="#6427FF"/>
<path fill-rule="evenodd" clip-rule="evenodd" d="M12.0002 2.3999C17.9648 2.3999 22.8001 7.23521 22.8001 13.1999C22.8001 19.1645 17.9648 23.9998 12.0002 23.9998C6.0355 23.9998 1.2002 19.1645 1.2002 13.1999C1.2002 7.23521 6.0355 2.3999 12.0002 2.3999ZM7.60017 9.19988C7.60017 8.75804 7.24201 8.39989 6.80018 8.39989C6.35834 8.39989 6.00018 8.75804 6.00018 9.19988V11.9999C6.00018 13.491 7.01997 14.7438 8.40017 15.0991V17.9999C8.40017 18.4417 8.75833 18.7999 9.20017 18.7999C9.64201 18.7999 10.0002 18.4417 10.0002 17.9999V15.0991C11.3804 14.7438 12.4002 13.491 12.4002 11.9999V9.19988C12.4002 8.75804 12.042 8.39989 11.6002 8.39989C11.1583 8.39989 10.8002 8.75804 10.8002 9.19988V11.9999C10.8002 12.5921 10.4784 13.1092 10.0002 13.3858V9.19988C10.0002 8.75804 9.64201 8.39989 9.20017 8.39989C8.75833 8.39989 8.40017 8.75804 8.40017 9.19988V13.3858C7.92193 13.1092 7.60017 12.5921 7.60017 11.9999V9.19988ZM14.0002 8.39989C13.788 8.39989 13.5845 8.48416 13.4345 8.6342C13.2844 8.78424 13.2002 8.98772 13.2002 9.19988V15.1999C13.2002 15.2689 13.2089 15.3359 13.2254 15.3999C13.2089 15.4638 13.2002 15.5308 13.2002 15.5999V17.9999C13.2002 18.4417 13.5583 18.7999 14.0002 18.7999C14.442 18.7999 14.8002 18.4417 14.8002 17.9999V15.9999H18.0001C18.2123 15.9999 18.4158 15.9156 18.5658 15.7655C18.7159 15.6155 18.8001 15.412 18.8001 15.1999V13.1999C18.8001 10.5489 16.6511 8.39989 14.0002 8.39989Z" fill="#6427FF"/>
<path d="M20.4048 21.7651L21.0657 22.7564C21.3108 23.124 21.2114 23.6207 20.8438 23.8658C20.4762 24.1109 19.9795 24.0115 19.7344 23.6439L19.1816 22.8148C19.6127 22.4923 20.0214 22.1415 20.4048 21.7651Z" fill="#6427FF"/>
<path d="M3.59505 21.7651C3.97857 22.1415 4.38721 22.4923 4.81825 22.8148L4.26553 23.6439C4.02045 24.0115 3.52373 24.1109 3.15613 23.8658C2.7885 23.6207 2.68917 23.124 2.93425 22.7564L3.59505 21.7651Z" fill="#6427FF"/>
</svg>
