<svg width="21" height="24" viewBox="0 0 21 24" fill="none" xmlns="http://www.w3.org/2000/svg">
<path d="M10.5281 0C7.11491 0 4.3125 2.76648 4.3125 6.2156C4.3125 9.66472 7.07898 12.4312 10.5281 12.4312C13.9413 12.4312 16.7437 9.66472 16.7437 6.2156C16.7437 2.76648 13.9413 0 10.5281 0ZM10.5281 11.03C7.8694 11.03 5.7137 8.8743 5.7137 6.2156C5.7137 3.5569 7.8694 1.4012 10.5281 1.4012C13.1868 1.4012 15.3425 3.5569 15.3425 6.2156C15.3425 8.8743 13.1868 11.03 10.5281 11.03Z" fill="#6427FF"/>
<path d="M10.5281 11.03C7.8694 11.03 5.7137 8.8743 5.7137 6.2156C5.7137 3.5569 7.8694 1.4012 10.5281 1.4012C13.1868 1.4012 15.3425 3.5569 15.3425 6.2156C15.3425 8.8743 13.1868 11.03 10.5281 11.03Z" fill="#6427FF"/>
<path d="M0.682638 23.9998H20.0121C20.4073 23.9998 20.6947 23.6764 20.6947 23.3172V19.7962C20.6947 16.5986 18.1079 14.0117 14.9103 14.0117H5.78446C2.58684 14.0117 0 16.5986 0 19.7962V23.3172C0 23.6764 0.323355 23.9998 0.682638 23.9998ZM1.36528 19.7962C1.36528 17.3531 3.34133 15.377 5.78446 15.377H14.9462C17.3893 15.377 19.3654 17.3531 19.3654 19.7962V22.6345H1.4012V19.7962H1.36528Z" fill="#6427FF"/>
<path d="M1.36528 19.7962C1.36528 17.3531 3.34133 15.377 5.78446 15.377H14.9462C17.3893 15.377 19.3654 17.3531 19.3654 19.7962V22.6345H1.4012V19.7962H1.36528Z" fill="#6427FF"/>
</svg>
