<svg width="31" height="24" viewBox="0 0 31 24" fill="none" xmlns="http://www.w3.org/2000/svg">
<path fill-rule="evenodd" clip-rule="evenodd" d="M6.52803 12.7931V19.7464C6.52686 20.1215 6.60382 20.4882 6.74877 20.7982C6.89372 21.1083 7.09985 21.3472 7.33997 21.4833C9.93692 23.0149 12.6994 23.8669 15.5 24C18.3061 23.8696 21.0742 23.0176 23.6763 21.4833C23.9164 21.3472 24.1225 21.1083 24.2675 20.7982C24.4124 20.4882 24.4894 20.1215 24.4882 19.7464V12.7931L16.6448 16.4499C15.9011 16.8044 15.0989 16.8044 14.3552 16.4499L6.52803 12.7931ZM28.2881 15.9832C28.4449 16.1239 28.5729 16.3232 28.6588 16.5603C28.7448 16.7973 28.7855 17.0636 28.7768 17.3313C28.7681 17.5991 28.7103 17.8585 28.6094 18.0827C28.5084 18.3069 28.3681 18.4877 28.2029 18.6063C28.3759 18.7315 28.5215 18.9244 28.6233 19.1634C28.7251 19.4024 28.7792 19.6779 28.7793 19.9591V23.1729C28.7793 23.3484 28.7314 23.5167 28.6462 23.6408C28.5609 23.7649 28.4452 23.8346 28.3246 23.8346H27.1595C27.0396 23.833 26.925 23.7626 26.8406 23.6387C26.7562 23.5148 26.7089 23.3474 26.7089 23.1729V19.9591C26.7079 19.6798 26.7601 19.4055 26.8597 19.1667C26.9593 18.9279 27.1024 18.7339 27.2732 18.6063C27.108 18.4877 26.9676 18.3069 26.8667 18.0827C26.7657 17.8585 26.7079 17.5991 26.6992 17.3313C26.6905 17.0636 26.7312 16.7973 26.8172 16.5603C26.9031 16.3232 27.0311 16.1239 27.1879 15.9832V9.85102L16.3119 14.9435C15.7847 15.1976 15.2153 15.1976 14.6881 14.9435L0.405972 8.26184C0.295618 8.22511 0.196415 8.13733 0.123226 8.01165C0.050037 7.88597 0.00680244 7.72917 0 7.56473C0.0080662 7.40088 0.0517533 7.24501 0.124738 7.11968C0.197723 6.99436 0.29622 6.90608 0.405972 6.86762L14.6881 0.185994C15.2159 -0.061998 15.7841 -0.061998 16.3119 0.185994L30.594 6.86762C30.7038 6.90608 30.8023 6.99436 30.8753 7.11968C30.9482 7.24501 30.9919 7.40088 31 7.56473C30.9932 7.72917 30.95 7.88597 30.8768 8.01165C30.8036 8.13733 30.7044 8.22511 30.594 8.26184L28.2881 9.34296V15.9832Z" fill="#6427FF"/>
</svg>
