<svg width="24" height="24" viewBox="0 0 24 24" fill="none" xmlns="http://www.w3.org/2000/svg">
<path d="M12 0C5.37253 0 0 5.37253 0 12C0 18.6277 5.37253 24 12 24C18.6277 24 24 18.6277 24 12C24 5.37253 18.6277 0 12 0ZM11.9997 19.1333C11.1085 19.1333 10.3835 18.4088 10.3835 17.5181C10.3835 16.6259 11.1085 15.9005 11.9997 15.9005C12.8912 15.9005 13.6165 16.6267 13.6165 17.5181C13.6168 18.4088 12.8912 19.1333 11.9997 19.1333ZM16.3301 10.3488C16.0171 10.836 15.5848 11.4181 14.7227 12.0904C13.8659 12.7467 13.6067 13.0835 13.5285 13.2261C13.4843 13.3059 13.4213 13.4648 13.3712 13.7605C13.3539 13.8645 13.3395 13.9771 13.328 14.0979L13.2603 14.8216L10.6547 14.8277L10.6877 13.9939C10.6923 13.8872 10.7037 13.6779 10.7325 13.4824C10.8189 12.888 11.0219 12.36 11.3355 11.9139C11.6299 11.4944 12.2013 10.9637 13.0819 10.2928C13.7331 9.796 13.9875 9.512 14.0856 9.3616C14.2109 9.1704 14.2715 8.96907 14.2715 8.74693C14.2715 8.232 14.0835 7.82427 13.7131 7.53493C13.32 7.228 12.7749 7.07227 12.0936 7.07227C11.4896 7.07227 10.98 7.232 10.5784 7.5464C10.1533 7.8768 9.85493 8.33387 9.71307 8.87013L9.53707 9.53467L6.98693 9.25813L7.1672 8.39467C7.40187 7.26987 7.9312 6.4016 8.74107 5.81413C9.79013 5.0528 10.916 4.66667 12.0883 4.66667C13.3832 4.66667 14.4432 4.99973 15.4237 5.71493C16.3301 6.3768 16.8501 7.44613 16.8501 8.6488C16.8501 9.23787 16.68 9.79387 16.3301 10.3488Z" fill="#6427FF"/>
</svg>
