<svg width="12" height="18" viewBox="0 0 12 18" fill="none" xmlns="http://www.w3.org/2000/svg">
<path d="M5.76852 16.6103L5.76843 16.6104L5.77065 16.6133L6.09065 17.04L6.14399 17.1111L6.19732 17.04L6.51732 16.6133L6.5174 16.6134L6.51946 16.6103C6.51928 16.6106 6.52031 16.6091 6.5238 16.6043L6.53666 16.5865L6.58348 16.5218C6.6237 16.4663 6.68143 16.3862 6.75415 16.2845C6.89958 16.0809 7.10497 15.7903 7.35023 15.4341C7.84069 14.7218 8.49076 13.7467 9.13961 12.68C9.78832 11.6135 10.4365 10.4542 10.9228 9.37369C11.408 8.29553 11.736 7.28713 11.736 6.52533C11.736 3.43785 9.23147 0.933333 6.14399 0.933333C3.0565 0.933333 0.551986 3.43785 0.551986 6.52533C0.551986 7.28713 0.880003 8.29553 1.36519 9.37369C1.85144 10.4542 2.49965 11.6135 3.14836 12.68C3.79721 13.7467 4.44728 14.7218 4.93774 15.4341C5.183 15.7903 5.38839 16.0809 5.53383 16.2845C5.60654 16.3862 5.66427 16.4663 5.70449 16.5218L5.75132 16.5865L5.76417 16.6043C5.76647 16.6074 5.7677 16.6092 5.76822 16.6099C5.76849 16.6103 5.76857 16.6104 5.76852 16.6103ZM6.14399 1.856C8.70983 1.856 10.8133 3.95949 10.8133 6.52533C10.8133 6.89279 10.7055 7.3804 10.4942 7.97466C10.2832 8.56788 9.97061 9.26296 9.56483 10.0439C8.76316 11.5868 7.59973 13.461 6.14333 15.5408C5.3756 14.4691 4.22523 12.7527 3.25802 11.0419C2.76275 10.1658 2.31619 9.29245 1.99364 8.50863C1.67029 7.72288 1.47465 7.03431 1.47465 6.52533C1.47465 3.95949 3.57814 1.856 6.14399 1.856Z" fill="#6F7276" stroke="#6F7276" stroke-width="0.133333"/>
<path d="M6.14397 9.36314C7.70131 9.36314 8.98131 8.08314 8.98131 6.52581C8.98131 4.96848 7.70131 3.68848 6.14397 3.68848C4.58664 3.68848 3.30664 4.96848 3.30664 6.52581C3.30664 8.08314 4.58664 9.36314 6.14397 9.36314ZM6.14397 4.66981C7.16797 4.66981 7.99997 5.50181 7.99997 6.52581C7.99997 7.54981 7.16797 8.38181 6.14397 8.38181C5.11997 8.38181 4.28797 7.54981 4.28797 6.52581C4.28797 5.50181 5.11997 4.66981 6.14397 4.66981Z" fill="#6F7276"/>
</svg>
