<svg width="22" height="24" viewBox="0 0 22 24" fill="none" xmlns="http://www.w3.org/2000/svg">
<path fill-rule="evenodd" clip-rule="evenodd" d="M14.686 3.82757C15.5609 2.81358 16.1506 1.40128 15.9892 -0.00390625C14.7284 0.0440942 13.2031 0.801477 12.2991 1.81427C11.4873 2.71307 10.7787 4.14921 10.9692 5.52681C12.3756 5.6312 13.8111 4.84276 14.686 3.82757ZM17.8397 12.7462C17.8749 16.3786 21.1646 17.5869 21.201 17.6025C21.1743 17.6877 20.6755 19.3242 19.4682 21.0162C18.4234 22.4778 17.3398 23.9335 15.6325 23.9647C13.9555 23.9947 13.4155 23.0119 11.497 23.0119C9.57979 23.0119 8.98035 23.9334 7.39316 23.9946C5.7453 24.0534 4.48938 22.4132 3.43732 20.9564C1.28467 17.9769 -0.359551 12.5363 1.84892 8.86434C2.94588 7.04155 4.90559 5.8855 7.03398 5.8567C8.6515 5.82669 10.1792 6.89967 11.1682 6.89967C12.1572 6.89967 14.0137 5.60967 15.9649 5.79927C16.7816 5.83167 19.075 6.11478 20.5469 8.17996C20.428 8.25076 17.8106 9.71023 17.8397 12.7462Z" fill="#1B1B1B"/>
</svg>
