<svg width="132" height="100" viewBox="0 0 132 100" fill="none" xmlns="http://www.w3.org/2000/svg">
<path d="M92.3941 81.2524L104.054 92.7417C105.74 94.4026 105.74 97.0931 104.054 98.754C102.367 100.415 99.636 100.415 97.9498 98.754L86.2855 87.2647C80.7251 91.4742 73.7619 93.9817 66.2086 93.9817C57.0993 93.9817 48.8493 90.3395 42.8754 84.4599C36.9063 78.5757 33.2086 70.4494 33.2086 61.4767C33.2086 52.5039 36.9063 44.3731 42.8754 38.4935C48.8493 32.6139 57.0993 28.9717 66.2086 28.9717C75.318 28.9717 83.568 32.6139 89.5419 38.4935C95.511 44.3731 99.2087 52.5039 99.2087 61.4767C99.2087 68.912 96.6631 75.7754 92.3941 81.2524ZM83.4333 44.5058C79.0296 40.1681 72.9397 37.4823 66.2086 37.4823C59.4776 37.4823 53.3877 40.1681 48.984 44.5058C44.5756 48.848 41.8488 54.8466 41.8488 61.4767C41.8488 68.1021 44.5756 74.1053 48.984 78.443C53.3877 82.7852 59.4776 85.4711 66.2086 85.4711C72.9397 85.4711 79.0296 82.7852 83.4333 78.443C87.8417 74.1053 90.5685 68.1021 90.5685 61.4767C90.5685 54.8466 87.8417 48.848 83.4333 44.5058Z" fill="#FCFCFC"/>
<path d="M92.3941 81.2524L104.054 92.7417C105.74 94.4026 105.74 97.0931 104.054 98.754C102.367 100.415 99.636 100.415 97.9498 98.754L86.2855 87.2647C80.7251 91.4742 73.7619 93.9817 66.2086 93.9817C57.0993 93.9817 48.8493 90.3395 42.8754 84.4599C36.9063 78.5757 33.2086 70.4494 33.2086 61.4767C33.2086 52.5039 36.9063 44.3731 42.8754 38.4935C48.8493 32.6139 57.0993 28.9717 66.2086 28.9717C75.318 28.9717 83.568 32.6139 89.5419 38.4935C95.511 44.3731 99.2087 52.5039 99.2087 61.4767C99.2087 68.912 96.6631 75.7754 92.3941 81.2524ZM83.4333 44.5058C79.0296 40.1681 72.9397 37.4823 66.2086 37.4823C59.4776 37.4823 53.3877 40.1681 48.984 44.5058C44.5756 48.848 41.8488 54.8466 41.8488 61.4767C41.8488 68.1021 44.5756 74.1053 48.984 78.443C53.3877 82.7852 59.4776 85.4711 66.2086 85.4711C72.9397 85.4711 79.0296 82.7852 83.4333 78.443C87.8417 74.1053 90.5685 68.1021 90.5685 61.4767C90.5685 54.8466 87.8417 48.848 83.4333 44.5058Z" stroke="#FCFCFC"/>
<path fill-rule="evenodd" clip-rule="evenodd" d="M122.951 64.373H123.607C125.634 64.373 127.578 63.5798 129.011 62.1679C131.996 59.2277 131.996 54.4608 129.011 51.5206L84.5416 7.71796C74.0942 -2.57265 57.1558 -2.57265 46.7084 7.71796L2.23871 51.5206C0.805287 52.9325 0 54.8475 0 56.8442C0 61.0023 3.42209 64.373 7.64345 64.373H8.29915C22.6524 62.6632 41.4079 61.8083 64.5656 61.8083C87.7233 61.8083 107.185 62.6632 122.951 64.373Z" fill="#FCFCFC"/>
</svg>
