<svg width="32" height="32" viewBox="0 0 32 32" fill="none" xmlns="http://www.w3.org/2000/svg">
<path d="M12.5172 17.317C12.5923 17.242 12.694 17.1999 12.8001 17.1999H22.4001C24.9774 17.1999 27.0667 19.2892 27.0667 21.8665V22.9332C27.0667 23.0393 27.0246 23.141 26.9496 23.216C26.8745 23.2911 26.7728 23.3332 26.6667 23.3332H12.8001C12.694 23.3332 12.5923 23.2911 12.5172 23.216C12.4422 23.141 12.4001 23.0393 12.4001 22.9332V17.5999C12.4001 17.4938 12.4422 17.3921 12.5172 17.317Z" stroke="#061B2E" stroke-width="1.33333"/>
<path d="M4.93327 20.8001C4.93327 19.401 6.06748 18.2668 7.4666 18.2668C8.86572 18.2668 9.99994 19.401 9.99994 20.8001C9.99994 22.1992 8.86572 23.3334 7.4666 23.3334C6.06748 23.3334 4.93327 22.1992 4.93327 20.8001Z" stroke="#061B2E" stroke-width="1.33333"/>
<path fill-rule="evenodd" clip-rule="evenodd" d="M0 30.9333C0 31.4856 0.419733 31.9399 0.957605 31.9945C0.993467 31.9981 1.02985 32 1.06667 32C1.65577 32 2.13333 31.5225 2.13333 30.9333V27.2H29.8667V30.9333C29.8667 31.5225 30.3442 32 30.9333 32C31.5225 32 32 31.5225 32 30.9333V13.1302C32 12.1246 31.5382 11.1706 30.7415 10.555L17.9415 0.6644C16.7951 -0.221467 15.2049 -0.221467 14.0585 0.6644L1.25845 10.555C0.461803 11.1706 5.34058e-06 12.1246 5.34058e-06 13.1302L0 30.9333ZM29.8667 13.1302C29.8667 12.7763 29.7039 12.4492 29.4372 12.2431L16.6372 2.35249C16.259 2.06028 15.741 2.06028 15.3628 2.35249L2.56284 12.2431C2.29613 12.4492 2.13334 12.7763 2.13334 13.1302L2.13333 25.0667H29.8667V13.1302Z" fill="#061B2E"/>
</svg>
