<svg width="27" height="32" viewBox="0 0 27 32" fill="none" xmlns="http://www.w3.org/2000/svg">
<path d="M3.40564 27.1073H23.2402C24.6948 27.1073 25.973 26.2258 26.4579 24.8594C26.9427 23.493 26.5901 21.9944 25.4882 21.0247C23.3725 19.2175 22.4469 16.9696 22.6672 14.3691C22.9758 10.5785 22.1383 7.62531 20.1989 5.59777C19.097 4.45177 17.8188 3.74654 16.6287 3.39392C16.6287 3.34985 16.6287 3.34985 16.6287 3.30577C16.6287 1.49862 15.1301 0 13.3229 0C11.5158 0 10.0172 1.49862 10.0172 3.30577C10.0172 3.34985 10.0172 3.34985 10.0172 3.39392C8.8271 3.79061 7.54887 4.45177 6.44695 5.59777C4.50756 7.62531 3.71418 10.5785 4.02272 14.4131C4.2431 17.0137 3.27341 19.2616 1.2018 21.0688C0.0998726 22.0385 -0.29682 23.5371 0.232103 24.9035C0.672872 26.2258 1.9511 27.1073 3.40564 27.1073ZM13.3229 1.76308C14.0723 1.76308 14.6893 2.292 14.8216 2.95315C14.0723 2.82092 13.4993 2.82092 13.3229 2.865C13.1466 2.865 12.5736 2.865 11.8243 2.95315C11.9566 2.292 12.5736 1.76308 13.3229 1.76308ZM2.30372 22.3911C4.86018 20.1872 6.00618 17.4545 5.74172 14.2368C5.47725 10.9752 6.13841 8.46277 7.72518 6.78784C9.70864 4.67215 12.6618 4.584 13.1907 4.584C13.2348 4.584 13.2789 4.584 13.2789 4.584H13.3229H13.367C13.4993 4.584 16.7609 4.49584 18.9207 6.78784C20.5075 8.41869 21.1686 10.9311 20.9042 14.2368C20.6397 17.4545 21.8298 20.1872 24.3422 22.3911C25.0033 22.9641 25.0033 23.7134 24.827 24.2423C24.6507 24.7712 24.1218 25.3442 23.2402 25.3442H3.40564C2.5241 25.3442 2.03926 24.7712 1.81887 24.2423C1.64256 23.7134 1.64256 22.9641 2.30372 22.3911Z" fill="#FAFBFB"/>
<path d="M16.0534 28.474C15.5686 29.5318 14.4667 30.193 13.3207 30.193C12.1747 30.193 11.0727 29.5318 10.5879 28.474C10.3675 28.0332 9.83859 27.8569 9.39782 28.0773C8.95705 28.2977 8.78074 28.8266 9.00113 29.2674C9.79451 30.9423 11.4694 32.0001 13.3207 32.0001C15.1719 32.0001 16.8468 30.9423 17.6402 29.2674C17.8606 28.8266 17.6402 28.2977 17.2435 28.0773C16.8027 27.8569 16.2738 28.0332 16.0534 28.474Z" fill="#FAFBFB"/>
</svg>
