<svg width="18" height="16" viewBox="0 0 18 16" fill="none" xmlns="http://www.w3.org/2000/svg">
<path d="M9.53901 8.30786V7.38477H7.69287V8.30786C7.69287 8.81863 8.10518 9.23095 8.61596 9.23095C9.12674 9.23095 9.53901 8.81863 9.53901 8.30786Z" fill="#6427FF"/>
<path d="M10.7696 8.30786C10.7696 9.49553 9.80345 10.4617 8.61574 10.4617C7.42802 10.4617 6.46189 9.49557 6.46189 8.30786V7.38477H0.000488281V14.1542C0.000488281 15.1695 0.831262 16.0003 1.84663 16.0003H15.385C16.4004 16.0003 17.2311 15.1695 17.2311 14.1542V7.38477H10.7697L10.7696 8.30786Z" fill="#6427FF"/>
<path d="M15.3845 3.0769H12.923V1.84614C12.923 0.830774 12.0922 0 11.0768 0H6.1538C5.13844 0 4.30766 0.830774 4.30766 1.84614V3.0769H1.84614C0.830774 3.0769 0 3.90768 0 4.92305V6.15381H17.2307V4.92305C17.2307 3.90768 16.3999 3.0769 15.3845 3.0769ZM11.6922 3.0769H5.53842V1.84614C5.53842 1.50768 5.81534 1.23076 6.1538 1.23076H11.0768C11.4153 1.23076 11.6922 1.50768 11.6922 1.84614V3.0769Z" fill="#6427FF"/>
</svg>
