<svg width="26" height="25" viewBox="0 0 26 25" fill="none" xmlns="http://www.w3.org/2000/svg">
<path d="M12.8749 24.5134C9.17841 24.5134 6.1712 21.9167 6.1712 18.7252C6.1712 15.5339 9.17841 12.937 12.8749 12.937C16.5713 12.937 19.5785 15.5337 19.5785 18.7252C19.5785 21.9165 16.5713 24.5134 12.8749 24.5134ZM12.8749 14.5823C10.0868 14.5823 7.81729 16.4403 7.81729 18.7244C7.81729 21.0085 10.0858 22.8665 12.8749 22.8665C15.6639 22.8665 17.9325 21.0085 17.9325 18.7244C17.9325 16.4403 15.6639 14.5823 12.8749 14.5823Z" fill="#6427FF"/>
<path d="M12.8749 14.6098C10.6053 14.6098 8.75964 12.7642 8.75964 10.4946C8.75964 8.22507 10.6053 6.37939 12.8749 6.37939C15.1444 6.37939 16.9901 8.22507 16.9901 10.4946C16.9901 12.7642 15.1444 14.6098 12.8749 14.6098ZM12.8749 8.02548C11.5138 8.02548 10.4057 9.1335 10.4057 10.4946C10.4057 11.8557 11.5138 12.9638 12.8749 12.9638C14.236 12.9638 15.344 11.8557 15.344 10.4946C15.344 9.1335 14.236 8.02548 12.8749 8.02548Z" fill="#6427FF"/>
<path d="M19.768 14.0492C19.768 13.6397 20.0725 13.3023 20.4768 13.2395C22.2072 12.97 23.5169 11.7354 23.5169 10.256C23.5169 8.58009 21.8359 7.21694 19.767 7.21694C19.2701 7.21694 18.7835 7.29616 18.3308 7.44945C17.946 7.57908 17.5252 7.42682 17.3318 7.06982C17.0952 6.63257 17.2886 6.06776 17.7588 5.90521C18.3936 5.68504 19.0736 5.56982 19.767 5.56982C22.7423 5.56982 25.163 7.67066 25.163 10.255C25.163 12.5616 23.232 14.4845 20.7001 14.8693C20.2084 14.9444 19.768 14.5463 19.768 14.0483L19.768 14.0492Z" fill="#6427FF"/>
<path d="M19.7679 7.14686C17.9521 7.14686 16.4758 5.67052 16.4758 3.85468C16.4758 2.03885 17.9521 0.5625 19.7679 0.5625C21.5838 0.5625 23.0601 2.03885 23.0601 3.85468C23.0601 5.67052 21.5838 7.14686 19.7679 7.14686ZM19.7679 2.20859C18.8605 2.20859 18.1219 2.94728 18.1219 3.85468C18.1219 4.76208 18.8605 5.50077 19.7679 5.50077C20.6754 5.50077 21.414 4.76208 21.414 3.85468C21.414 2.94728 20.6754 2.20859 19.7679 2.20859Z" fill="#6427FF"/>
<path d="M6.01689 14.0492C6.01689 13.6397 5.71238 13.3023 5.30805 13.2395C3.5776 12.97 2.26792 11.7354 2.26792 10.256C2.26792 8.58009 3.94898 7.21694 6.01784 7.21694C6.51475 7.21694 7.00139 7.29616 7.45405 7.44945C7.83881 7.57908 8.25961 7.42682 8.45303 7.06982C8.68966 6.63257 8.49624 6.06776 8.02607 5.90521C7.39129 5.68504 6.71125 5.56982 6.01784 5.56982C3.0425 5.56982 0.621826 7.67066 0.621826 10.255C0.621826 12.5616 2.55289 14.4845 5.08471 14.8693C5.57648 14.9444 6.01681 14.5463 6.01681 14.0483L6.01689 14.0492Z" fill="#6427FF"/>
<path d="M6.01691 7.14686C4.20108 7.14686 2.72473 5.67052 2.72473 3.85468C2.72473 2.03885 4.2021 0.5625 6.01691 0.5625C7.83172 0.5625 9.30909 2.03885 9.30909 3.85468C9.30909 5.67052 7.83275 7.14686 6.01691 7.14686ZM6.01691 2.20859C5.10951 2.20859 4.37082 2.94728 4.37082 3.85468C4.37082 4.76208 5.10951 5.50077 6.01691 5.50077C6.92432 5.50077 7.663 4.76208 7.663 3.85468C7.663 2.94728 6.92432 2.20859 6.01691 2.20859Z" fill="#6427FF"/>
<path d="M21.1053 24.5623H20.5909C20.1362 24.5623 19.7679 24.194 19.7679 23.7393C19.7679 23.2845 20.1362 22.9162 20.5909 22.9162H21.1053C22.4695 22.9162 23.5745 21.8113 23.5745 20.4471V17.408C23.5745 16.9533 23.9428 16.585 24.3975 16.585C24.8522 16.585 25.2206 16.9533 25.2206 17.408V20.4471C25.2206 22.7197 23.378 24.5623 21.1053 24.5623Z" fill="#6427FF"/>
<path d="M5.32869 24.5623H4.64452C2.37189 24.5623 0.529297 22.7197 0.529297 20.4471V17.408C0.529297 16.9533 0.8976 16.585 1.35234 16.585C1.80708 16.585 2.17539 16.9533 2.17539 17.408V20.4471C2.17539 21.8113 3.28032 22.9162 4.64452 22.9162H5.32869C5.78343 22.9162 6.15174 23.2845 6.15174 23.7393C6.15174 24.194 5.78343 24.5623 5.32869 24.5623Z" fill="#6427FF"/>
<path d="M12.0519 3.16309H13.698C14.1527 3.16309 14.521 3.61783 14.521 3.98613C14.521 4.44087 14.1527 4.80918 13.698 4.80918H12.0519C11.5971 4.80918 11.2288 4.35443 11.2288 3.98613C11.2288 3.53139 11.5971 3.16309 12.0519 3.16309Z" fill="#6427FF"/>
<path d="M18.7555 18.7252C18.7555 21.4669 16.1228 23.6903 12.8749 23.6903C9.62698 23.6903 6.99426 21.4671 6.99426 18.7252C6.99426 15.9824 9.62698 13.7593 12.8749 13.7593C16.1228 13.7593 18.7555 15.9825 18.7555 18.7252Z" fill="#6427FF"/>
<path d="M16.1671 10.4948C16.1671 12.3127 14.6928 13.787 12.8749 13.787C11.057 13.787 9.5827 12.3127 9.5827 10.4948C9.5827 8.6759 11.057 7.20264 12.8749 7.20264C14.6928 7.20264 16.1671 8.6759 16.1671 10.4948Z" fill="#6427FF"/>
<path d="M22.2371 3.85488C22.2371 5.21805 21.1311 6.32401 19.768 6.32401C18.4048 6.32401 17.2988 5.21805 17.2988 3.85488C17.2988 2.4917 18.4048 1.38574 19.768 1.38574C21.1311 1.38574 22.2371 2.4917 22.2371 3.85488Z" fill="#6427FF"/>
<path d="M8.486 3.85488C8.486 5.21805 7.38107 6.32401 6.01687 6.32401C4.65369 6.32401 3.54773 5.21805 3.54773 3.85488C3.54773 2.4917 4.65369 1.38574 6.01687 1.38574C7.38107 1.38574 8.486 2.4917 8.486 3.85488Z" fill="#6427FF"/>
</svg>
