<svg width="26" height="25" viewBox="0 0 26 25" fill="none" xmlns="http://www.w3.org/2000/svg">
<path d="M12.8748 24.5134C9.17835 24.5134 6.17114 21.9167 6.17114 18.7252C6.17114 15.5339 9.17835 12.937 12.8748 12.937C16.5713 12.937 19.5785 15.5337 19.5785 18.7252C19.5785 21.9165 16.5713 24.5134 12.8748 24.5134ZM12.8748 14.5823C10.0867 14.5823 7.81723 16.4403 7.81723 18.7244C7.81723 21.0085 10.0858 22.8665 12.8748 22.8665C15.6639 22.8665 17.9324 21.0085 17.9324 18.7244C17.9324 16.4403 15.6639 14.5823 12.8748 14.5823Z" fill="#B6B7B9"/>
<path d="M12.8748 14.6098C10.6053 14.6098 8.75958 12.7642 8.75958 10.4946C8.75958 8.22507 10.6053 6.37939 12.8748 6.37939C15.1444 6.37939 16.99 8.22507 16.99 10.4946C16.99 12.7642 15.1444 14.6098 12.8748 14.6098ZM12.8748 8.02548C11.5137 8.02548 10.4057 9.1335 10.4057 10.4946C10.4057 11.8557 11.5137 12.9638 12.8748 12.9638C14.2359 12.9638 15.3439 11.8557 15.3439 10.4946C15.3439 9.1335 14.2359 8.02548 12.8748 8.02548Z" fill="#B6B7B9"/>
<path d="M19.7679 14.0492C19.7679 13.6397 20.0724 13.3023 20.4767 13.2395C22.2072 12.97 23.5169 11.7354 23.5169 10.256C23.5169 8.58009 21.8358 7.21694 19.7669 7.21694C19.27 7.21694 18.7834 7.29616 18.3307 7.44945C17.946 7.57908 17.5252 7.42682 17.3318 7.06982C17.0951 6.63257 17.2885 6.06776 17.7587 5.90521C18.3935 5.68504 19.0735 5.56982 19.7669 5.56982C22.7423 5.56982 25.163 7.67066 25.163 10.255C25.163 12.5616 23.2319 14.4845 20.7001 14.8693C20.2083 14.9444 19.768 14.5463 19.768 14.0483L19.7679 14.0492Z" fill="#B6B7B9"/>
<path d="M19.7679 7.14686C17.9521 7.14686 16.4757 5.67052 16.4757 3.85468C16.4757 2.03885 17.9521 0.5625 19.7679 0.5625C21.5837 0.5625 23.0601 2.03885 23.0601 3.85468C23.0601 5.67052 21.5837 7.14686 19.7679 7.14686ZM19.7679 2.20859C18.8605 2.20859 18.1218 2.94728 18.1218 3.85468C18.1218 4.76208 18.8605 5.50077 19.7679 5.50077C20.6753 5.50077 21.414 4.76208 21.414 3.85468C21.414 2.94728 20.6753 2.20859 19.7679 2.20859Z" fill="#B6B7B9"/>
<path d="M6.01683 14.0492C6.01683 13.6397 5.71232 13.3023 5.30799 13.2395C3.57754 12.97 2.26786 11.7354 2.26786 10.256C2.26786 8.58009 3.94892 7.21694 6.01778 7.21694C6.51469 7.21694 7.00133 7.29616 7.45399 7.44945C7.83875 7.57908 8.25955 7.42682 8.45297 7.06982C8.68959 6.63257 8.49618 6.06776 8.02601 5.90521C7.39123 5.68504 6.71119 5.56982 6.01778 5.56982C3.04244 5.56982 0.621765 7.67066 0.621765 10.255C0.621765 12.5616 2.55283 14.4845 5.08465 14.8693C5.57642 14.9444 6.01675 14.5463 6.01675 14.0483L6.01683 14.0492Z" fill="#B6B7B9"/>
<path d="M6.01685 7.14686C4.20102 7.14686 2.72467 5.67052 2.72467 3.85468C2.72467 2.03885 4.20204 0.5625 6.01685 0.5625C7.83166 0.5625 9.30903 2.03885 9.30903 3.85468C9.30903 5.67052 7.83269 7.14686 6.01685 7.14686ZM6.01685 2.20859C5.10945 2.20859 4.37076 2.94728 4.37076 3.85468C4.37076 4.76208 5.10945 5.50077 6.01685 5.50077C6.92426 5.50077 7.66294 4.76208 7.66294 3.85468C7.66294 2.94728 6.92426 2.20859 6.01685 2.20859Z" fill="#B6B7B9"/>
<path d="M21.1053 24.5623H20.5909C20.1361 24.5623 19.7678 24.194 19.7678 23.7393C19.7678 23.2845 20.1361 22.9162 20.5909 22.9162H21.1053C22.4695 22.9162 23.5744 21.8113 23.5744 20.4471V17.408C23.5744 16.9533 23.9427 16.585 24.3974 16.585C24.8522 16.585 25.2205 16.9533 25.2205 17.408V20.4471C25.2205 22.7197 23.3779 24.5623 21.1053 24.5623Z" fill="#B6B7B9"/>
<path d="M5.32863 24.5623H4.64446C2.37183 24.5623 0.529236 22.7197 0.529236 20.4471V17.408C0.529236 16.9533 0.897539 16.585 1.35228 16.585C1.80702 16.585 2.17533 16.9533 2.17533 17.408V20.4471C2.17533 21.8113 3.28026 22.9162 4.64446 22.9162H5.32863C5.78337 22.9162 6.15168 23.2845 6.15168 23.7393C6.15168 24.194 5.78337 24.5623 5.32863 24.5623Z" fill="#B6B7B9"/>
<path d="M12.0518 3.16309H13.6979C14.1526 3.16309 14.5209 3.61783 14.5209 3.98613C14.5209 4.44087 14.1526 4.80918 13.6979 4.80918H12.0518C11.5971 4.80918 11.2288 4.35443 11.2288 3.98613C11.2288 3.53139 11.5971 3.16309 12.0518 3.16309Z" fill="#B6B7B9"/>
</svg>
