<svg width="32" height="32" viewBox="0 0 32 32" fill="none" xmlns="http://www.w3.org/2000/svg">
<path d="M11.062 0C10.2587 8.00012e-05 9.60764 0.651238 9.60757 1.45448V2.24031C9.60757 2.70315 9.23224 3.07845 8.7694 3.07844H6.64517C2.96373 3.07844 0 6.04222 0 9.72356V9.73519C7.27284e-05 10.4708 0.596388 11.0671 1.33196 11.0672H30.6685C31.4041 11.0671 32.0004 10.4708 32.0005 9.73519V9.72356C32.0005 6.04222 29.0367 3.07844 25.3553 3.07844H24.686C24.2232 3.07842 23.8479 3.45373 23.8479 3.91656V4.48857C23.8479 4.89022 23.5223 5.21581 23.1206 5.21581C22.7189 5.21597 22.393 4.89034 22.393 4.48857V1.45448C22.3929 0.651208 21.7418 4.3637e-05 20.9385 0C20.1352 4.3637e-05 19.4841 0.651208 19.4841 1.45448V2.24031C19.4841 2.70315 19.1088 3.07845 18.646 3.07844H14.8094C14.3466 3.07842 13.9713 3.45373 13.9713 3.91656V4.48857C13.9713 4.89034 13.6455 5.21597 13.2437 5.21581C12.842 5.21581 12.5164 4.89022 12.5164 4.48857V1.45448C12.5164 0.651208 11.8652 4.3637e-05 11.062 0ZM2.56476 13.9761C1.14837 13.9762 7.27284e-05 15.1244 0 16.5408V25.3549C0 29.0362 2.96373 32 6.64517 32H25.3553C29.0367 32 32.0005 29.0362 32.0005 25.3549V16.5408C32.0004 15.1244 30.8521 13.9762 29.4357 13.9761H2.56476ZM5.66122 18.167H7.28181C7.78516 18.167 8.19029 18.5725 8.19029 19.0758V20.6964C8.19029 21.1997 7.78516 21.6048 7.28181 21.6048H5.66122C5.15787 21.6048 4.75247 21.1997 4.75247 20.6964V19.0758C4.75247 18.5725 5.15787 18.167 5.66122 18.167ZM12.0136 18.167H13.6342C14.1375 18.167 14.5426 18.5725 14.5426 19.0758V20.6964C14.5426 21.1997 14.1375 21.6048 13.6342 21.6048H12.0136C11.5102 21.6048 11.1048 21.1997 11.1048 20.6964V19.0758C11.1048 18.5725 11.5102 18.167 12.0136 18.167ZM18.3664 18.167H19.987C20.4901 18.167 20.8954 18.5725 20.8954 19.0758V20.6964C20.8954 21.1997 20.4901 21.6048 19.987 21.6048H18.3664C17.8631 21.6048 17.4576 21.1997 17.4576 20.6964V19.0758C17.4576 18.5725 17.8631 18.167 18.3664 18.167ZM24.7187 18.167H26.3396C26.8429 18.167 27.248 18.5725 27.248 19.0758V20.6964C27.248 21.1997 26.8429 21.6048 26.3396 21.6048H24.7187C24.2154 21.6048 23.8103 21.1997 23.8103 20.6964V19.0758C23.8103 18.5725 24.2154 18.167 24.7187 18.167ZM5.66122 23.8339H7.28181C7.78516 23.8339 8.19029 24.2393 8.19029 24.7427V26.3632C8.19029 26.8666 7.78516 27.2716 7.28181 27.2716H5.66122C5.15787 27.2716 4.75247 26.8666 4.75247 26.3632V24.7427C4.75247 24.2393 5.15787 23.8339 5.66122 23.8339ZM12.0136 23.8339H13.6342C14.1375 23.8339 14.5426 24.2393 14.5426 24.7427V26.3632C14.5426 26.8666 14.1375 27.2716 13.6342 27.2716H12.0136C11.5102 27.2716 11.1048 26.8666 11.1048 26.3632V24.7427C11.1048 24.2393 11.5102 23.8339 12.0136 23.8339ZM18.3664 23.8339H19.987C20.4901 23.8339 20.8954 24.2393 20.8954 24.7427V26.3632C20.8954 26.8666 20.4901 27.2716 19.987 27.2716H18.3664C17.8631 27.2716 17.4576 26.8666 17.4576 26.3632V24.7427C17.4576 24.2393 17.8631 23.8339 18.3664 23.8339ZM24.7187 23.8339H26.3396C26.8429 23.8339 27.248 24.2393 27.248 24.7427V26.3632C27.248 26.8666 26.8429 27.2716 26.3396 27.2716H24.7187C24.2154 27.2716 23.8103 26.8666 23.8103 26.3632V24.7427C23.8103 24.2393 24.2154 23.8339 24.7187 23.8339Z" fill="#6427FF"/>
</svg>
