<svg width="25" height="25" viewBox="0 0 25 25" fill="none" xmlns="http://www.w3.org/2000/svg">
<path d="M21.6802 2.98256H19.1686V1.58721C19.1686 1.36517 19.0804 1.15222 18.9234 0.995213C18.7664 0.838206 18.5534 0.75 18.3314 0.75C18.1094 0.75 17.8964 0.838206 17.7394 0.995213C17.5824 1.15222 17.4942 1.36517 17.4942 1.58721V2.98256H13.5872V1.58721C13.5872 1.36517 13.499 1.15222 13.342 0.995213C13.185 0.838206 12.972 0.75 12.75 0.75C12.528 0.75 12.315 0.838206 12.158 0.995213C12.001 1.15222 11.9128 1.36517 11.9128 1.58721V2.98256H8.00581V1.58721C8.00581 1.36517 7.91761 1.15222 7.7606 0.995213C7.60359 0.838206 7.39065 0.75 7.1686 0.75C6.94656 0.75 6.73362 0.838206 6.57661 0.995213C6.4196 1.15222 6.3314 1.36517 6.3314 1.58721V2.98256H3.81977C3.0058 2.98315 2.22533 3.30676 1.64977 3.88233C1.0742 4.45789 0.750591 5.23835 0.75 6.05233V21.6802C0.750591 22.4942 1.0742 23.2747 1.64977 23.8502C2.22533 24.4258 3.0058 24.7494 3.81977 24.75H21.6802C22.4942 24.7494 23.2747 24.4258 23.8502 23.8502C24.4258 23.2747 24.7494 22.4942 24.75 21.6802V6.05233C24.7494 5.23835 24.4258 4.45789 23.8502 3.88233C23.2747 3.30676 22.4942 2.98315 21.6802 2.98256ZM2.42442 6.05233C2.42501 5.68244 2.57221 5.32787 2.83376 5.06632C3.09531 4.80477 3.44988 4.65757 3.81977 4.65698H6.3314V4.93605C6.3314 5.15809 6.4196 5.37104 6.57661 5.52804C6.73362 5.68505 6.94656 5.77326 7.1686 5.77326C7.39065 5.77326 7.60359 5.68505 7.7606 5.52804C7.91761 5.37104 8.00581 5.15809 8.00581 4.93605V4.65698H11.9128V4.93605C11.9128 5.15809 12.001 5.37104 12.158 5.52804C12.315 5.68505 12.528 5.77326 12.75 5.77326C12.972 5.77326 13.185 5.68505 13.342 5.52804C13.499 5.37104 13.5872 5.15809 13.5872 4.93605V4.65698H17.4942V4.93605C17.4942 5.15809 17.5824 5.37104 17.7394 5.52804C17.8964 5.68505 18.1094 5.77326 18.3314 5.77326C18.5534 5.77326 18.7664 5.68505 18.9234 5.52804C19.0804 5.37104 19.1686 5.15809 19.1686 4.93605V4.65698H21.6802C22.0501 4.65757 22.4047 4.80477 22.6662 5.06632C22.9278 5.32787 23.075 5.68244 23.0756 6.05233V7.44767H2.42442V6.05233ZM23.0756 21.6802C23.075 22.0501 22.9278 22.4047 22.6662 22.6662C22.4047 22.9278 22.0501 23.075 21.6802 23.0756H3.81977C3.44988 23.075 3.09531 22.9278 2.83376 22.6662C2.57221 22.4047 2.42501 22.0501 2.42442 21.6802V9.12209H23.0756V21.6802Z" fill="#B6B7B9"/>
<path d="M8.02141 16.8802L8.74588 17.4071C8.84351 17.4774 8.91625 17.577 8.95358 17.6914C8.9909 17.8057 8.99088 17.929 8.95351 18.0434L8.67555 18.8895C8.54791 19.2819 8.54778 19.7046 8.6752 20.0971C8.80261 20.4896 9.05103 20.8316 9.38482 21.0742C9.71861 21.3167 10.1206 21.4474 10.5333 21.4474C10.9459 21.4473 11.3479 21.3167 11.6817 21.0741L12.4073 20.5461C12.5045 20.4751 12.6218 20.4369 12.7422 20.4369C12.8625 20.4369 12.9798 20.4751 13.077 20.5461L13.8004 21.0719C14.1323 21.3186 14.5349 21.4518 14.9485 21.4518C15.3621 21.4518 15.7647 21.3186 16.0966 21.0719C16.4345 20.8325 16.6861 20.4906 16.8142 20.0968C16.9423 19.7031 16.94 19.2785 16.8076 18.8862L16.5308 18.0345C16.4933 17.9201 16.4932 17.7968 16.5305 17.6823C16.5678 17.5679 16.6407 17.4684 16.7384 17.3982L17.4618 16.8713C17.7957 16.6288 18.0442 16.2869 18.1717 15.8944C18.2993 15.502 18.2993 15.0793 18.1717 14.6868C18.0442 14.2944 17.7956 13.9524 17.4618 13.71C17.1279 13.4675 16.7258 13.337 16.3131 13.3372H15.4201C15.2995 13.3372 15.182 13.2992 15.0843 13.2284C14.9867 13.1576 14.9139 13.0577 14.8765 12.9431L14.6008 12.0925C14.4774 11.6976 14.2302 11.353 13.8956 11.1097C13.561 10.8664 13.1569 10.7374 12.7433 10.7418C12.3295 10.7375 11.9253 10.8665 11.5906 11.1098C11.2559 11.3531 11.0084 11.6976 10.8847 12.0925L10.6101 12.9431C10.5728 13.0577 10.5003 13.1575 10.4028 13.2283C10.3054 13.299 10.188 13.3372 10.0676 13.3372H9.17453C8.75914 13.3334 8.35337 13.4621 8.01614 13.7047C7.6789 13.9472 7.42777 14.291 7.29921 14.686C7.17065 15.081 7.17136 15.5067 7.30123 15.9013C7.4311 16.2959 7.68338 16.6388 8.02141 16.8802ZM8.90439 15.2058C8.91929 15.148 8.95382 15.0971 9.00207 15.0619C9.05032 15.0266 9.10931 15.0093 9.16895 15.0127H10.062C10.5363 15.0134 10.9987 14.8636 11.3825 14.5848C11.7662 14.3059 12.0516 13.9125 12.1974 13.4611L12.472 12.6105C12.4873 12.5526 12.5221 12.5018 12.5705 12.4667C12.6189 12.4315 12.678 12.4141 12.7377 12.4173C12.797 12.4141 12.8556 12.4315 12.9036 12.4664C12.9516 12.5014 12.9861 12.5519 13.0011 12.6093L13.2791 13.4611C13.424 13.9127 13.709 14.3065 14.0927 14.5853C14.4765 14.8641 14.9391 15.0134 15.4134 15.0116H16.3064C16.3656 15.0113 16.4233 15.0299 16.4712 15.0645C16.5192 15.0992 16.5548 15.1482 16.5731 15.2045C16.5914 15.2608 16.5913 15.3214 16.5728 15.3776C16.5544 15.4338 16.5186 15.4827 16.4705 15.5173L15.7472 16.043C15.3624 16.3205 15.0759 16.7133 14.9294 17.1645C14.7829 17.6157 14.7839 18.1018 14.9323 18.5524L15.208 19.4041C15.2265 19.4603 15.2267 19.5208 15.2085 19.5771C15.1904 19.6333 15.1549 19.6823 15.1071 19.7171C15.0593 19.7519 15.0017 19.7705 14.9426 19.7705C14.8835 19.7704 14.826 19.7516 14.7783 19.7167L14.0549 19.1898C13.6722 18.9096 13.2103 18.7586 12.736 18.7586C12.2617 18.7586 11.7998 18.9096 11.4171 19.1898L10.6916 19.7167C10.6437 19.7512 10.5862 19.7698 10.5272 19.7697C10.4682 19.7697 10.4108 19.751 10.363 19.7163C10.3153 19.6817 10.2796 19.6329 10.2613 19.5768C10.2429 19.5208 10.2427 19.4603 10.2607 19.4041L10.5375 18.5524C10.6859 18.1018 10.6869 17.6157 10.5404 17.1645C10.3939 16.7133 10.1074 16.3205 9.72262 16.043L8.99928 15.5173C8.9499 15.4843 8.91345 15.4353 8.89616 15.3785C8.87886 15.3217 8.88177 15.2607 8.90439 15.2058Z" fill="#B6B7B9"/>
</svg>
