<svg width="35" height="28" viewBox="0 0 35 28" fill="none" xmlns="http://www.w3.org/2000/svg">
<path fill-rule="evenodd" clip-rule="evenodd" d="M3.65217 25.5652C1.63496 25.5652 0 23.9303 0 21.913V14.6087C0 13.6397 0.384693 12.7108 1.07008 12.0266C1.45843 11.637 1.92591 11.3449 2.43478 11.1659V3.65217C2.43478 2.68313 2.81948 1.75426 3.50487 1.07008C4.18904 0.384693 5.11791 0 6.08696 0H28.0475C29.019 0 29.9515 0.387133 30.6369 1.07739C31.3223 1.76644 31.7045 2.70017 31.6997 3.67287L31.6583 11.1671C32.1647 11.3473 32.6297 11.6383 33.0169 12.0266C33.7023 12.7108 34.087 13.6397 34.087 14.6087V21.913C34.087 23.9096 32.4849 25.5323 30.4957 25.5652V26.7826C30.4957 27.4546 29.9503 28 29.2783 28C28.6063 28 28.0609 27.4546 28.0609 26.7826V25.5652H6.08696V26.7826C6.08696 27.4546 5.54156 28 4.86957 28C4.19757 28 3.65217 27.4546 3.65217 26.7826V25.5652ZM3.65217 13.3913C3.32957 13.3913 3.01913 13.5191 2.79148 13.748C2.56261 13.9757 2.43478 14.2861 2.43478 14.6087V21.913C2.43478 22.585 2.98017 23.1304 3.65217 23.1304H30.4348C31.1068 23.1304 31.6522 22.585 31.6522 21.913V14.6087C31.6522 14.2861 31.5243 13.9757 31.2955 13.748C31.0678 13.5191 30.7574 13.3913 30.4348 13.3913H30.4275H29.9393C29.3854 13.3913 28.9021 13.7638 28.7621 14.2995L28.437 15.5363C28.0158 17.1421 26.5647 18.2609 24.9042 18.2609H9.20591C7.52956 18.2609 6.0687 17.1202 5.66209 15.495L5.36747 14.3129C5.23113 13.7711 4.74418 13.3913 4.1854 13.3913H3.65217ZM29.2235 11.0271L29.2649 3.65947C29.2661 3.33443 29.1395 3.024 28.9106 2.79391C28.6817 2.56382 28.3713 2.43478 28.0475 2.43478H6.08696C5.76435 2.43478 5.45391 2.56261 5.22626 2.79148C4.99739 3.01913 4.86957 3.32957 4.86957 3.65217V11.021C6.24765 11.2828 7.37861 12.3224 7.72922 13.7224L8.02383 14.9045C8.16018 15.4463 8.64713 15.8261 9.20591 15.8261H24.9042C25.4581 15.8261 25.9414 15.4536 26.0814 14.9179L26.4064 13.681C26.7656 12.3115 27.8746 11.2962 29.2235 11.0271ZM9.73913 8.52174C9.06713 8.52174 8.52174 7.97635 8.52174 7.30435C8.52174 6.63235 9.06713 6.08696 9.73913 6.08696H12.1739C12.8459 6.08696 13.3913 6.63235 13.3913 7.30435C13.3913 7.97635 12.8459 8.52174 12.1739 8.52174H9.73913ZM21.913 8.52174C21.241 8.52174 20.6957 7.97635 20.6957 7.30435C20.6957 6.63235 21.241 6.08696 21.913 6.08696H24.3478C25.0198 6.08696 25.5652 6.63235 25.5652 7.30435C25.5652 7.97635 25.0198 8.52174 24.3478 8.52174H21.913Z" fill="#061B2E"/>
</svg>
