<svg width="24" height="24" viewBox="0 0 24 24" fill="none" xmlns="http://www.w3.org/2000/svg">
<path d="M12.4829 9.9655V14.2068H19.1159C18.1752 17.243 15.3455 19.4483 12.0003 19.4483C7.88674 19.4483 4.55188 16.1136 4.55188 11.9998C4.5517 7.88639 7.88639 4.55153 12 4.55153C13.9224 4.55153 15.669 5.28618 16.9905 6.48184L20.1028 3.14984C17.9678 1.19419 15.1236 0 12 0C5.37264 0 0 5.37247 0 12C0 18.6275 5.37264 24 12.0001 24C18.6275 24 24.0001 18.6274 24.0001 12C24.0001 11.3057 23.936 10.6271 23.822 9.9655H12.4829Z" fill="#6427FF"/>
<path d="M12.0006 4.5517C13.9231 4.5517 15.6697 5.28636 16.9911 6.48202L20.1034 3.15001C17.9685 1.19419 15.1243 0 12.0006 0C7.40466 0 3.41417 2.58482 1.39844 6.37887L5.06055 9.31169C6.13975 6.52853 8.83627 4.5517 12.0006 4.5517Z" fill="#EA4335"/>
<path d="M4.55179 12C4.55179 11.0508 4.73612 10.1465 5.05992 9.31173L1.3978 6.37891C0.506831 8.05598 0 9.96848 0 12C0 14.0409 0.511068 15.9621 1.40974 17.6447L5.05015 14.6615C4.73301 13.8337 4.55179 12.939 4.55179 12Z" fill="#FBBC05"/>
<path d="M16.1415 18.1868C14.9568 18.9815 13.5345 19.4492 12.0008 19.4492C8.82603 19.4492 6.12268 17.4595 5.05057 14.6621L1.41016 17.6453C3.43004 21.4267 7.41405 24.0007 12.0004 24.0007C14.9791 24.0007 17.7019 22.9131 19.7997 21.1165L16.1415 18.1868Z" fill="#34A853"/>
<path d="M23.9996 11.9993C23.9996 11.3051 23.9356 10.6264 23.8215 9.96484H12.4824V14.2062H19.1154C18.6061 15.8503 17.5397 17.2466 16.1406 18.1853L19.799 21.1152C22.369 18.9142 23.9996 15.6482 23.9996 11.9993Z" fill="#6427FF"/>
</svg>
