<svg width="22" height="16" viewBox="0 0 22 16" fill="none" xmlns="http://www.w3.org/2000/svg">
<path fill-rule="evenodd" clip-rule="evenodd" d="M16.6914 2.37309C16.6322 3.05984 16.2494 3.70793 15.6069 4.07874L14.3516 4.80346C14.0045 5.00393 13.5607 4.88497 13.3604 4.53785L11.9004 2.00908C11.7001 1.66195 11.8188 1.21817 12.166 1.01787C12.166 1.01787 12.793 0.655772 13.4212 0.292976C14.338 -0.236328 15.479 -0.0254075 16.1524 0.740071C16.8588 0.782046 17.5278 1.08144 18.0312 1.58462C18.5753 2.12873 18.8809 2.86669 18.8809 3.63617V7.26623H21.0581C21.4587 7.26623 21.7838 7.59141 21.7838 7.992C21.7838 8.39242 21.4587 8.71759 21.0581 8.71759C21.0581 8.71759 21.0581 9.72168 21.0581 10.8947C21.0581 12.0496 20.5993 13.1572 19.7828 13.9737C19.1392 14.6171 18.3151 15.0384 17.4296 15.1882V15.2742C17.4296 15.6748 17.1044 16 16.7038 16C16.3032 16 15.978 15.6748 15.978 15.2742V15.249H6.54393V15.2742C6.54393 15.6748 6.21875 16 5.81816 16C5.41757 16 5.09239 15.6748 5.09239 15.2742V15.249C3.93764 15.249 2.83009 14.7902 2.01358 13.9737C1.1969 13.1572 0.738134 12.0496 0.738134 10.8947V8.71759H0.725768C0.325176 8.71759 0 8.39242 0 7.992C0 7.59141 0.325176 7.26623 0.725768 7.26623H17.4296V3.63617C17.4296 3.25161 17.2768 2.88289 17.0048 2.61101C16.9109 2.51696 16.8052 2.43719 16.6914 2.37309ZM19.6067 8.71759H2.18967C2.18967 8.71759 2.18967 9.72168 2.18967 10.8947C2.18967 11.6647 2.49551 12.403 3.03979 12.9473C3.58425 13.4918 4.32256 13.7976 5.09239 13.7976C8.43315 13.7976 13.363 13.7976 16.7038 13.7976C17.4736 13.7976 18.2121 13.4918 18.7564 12.9473C19.3009 12.403 19.6067 11.6647 19.6067 10.8947V8.71759ZM11.6177 4.36334C12.0181 4.36334 12.3433 4.68851 12.3433 5.0891C12.3433 5.48969 12.0181 5.81487 11.6177 5.81487C11.2171 5.81487 10.8919 5.48969 10.8919 5.0891C10.8919 4.68851 11.2171 4.36334 11.6177 4.36334ZM9.44055 4.36334C9.84097 4.36334 10.1661 4.68851 10.1661 5.0891C10.1661 5.48969 9.84097 5.81487 9.44055 5.81487C9.03996 5.81487 8.71478 5.48969 8.71478 5.0891C8.71478 4.68851 9.03996 4.36334 9.44055 4.36334ZM10.1661 2.18534C10.5667 2.18534 10.8919 2.51051 10.8919 2.9111C10.8919 3.31169 10.5667 3.63687 10.1661 3.63687C9.76573 3.63687 9.44055 3.31169 9.44055 2.9111C9.44055 2.51051 9.76573 2.18534 10.1661 2.18534ZM14.2544 3.18368L14.8813 2.82175C15.2319 2.61937 15.3519 2.17105 15.1495 1.82062C15.1492 1.81975 15.1486 1.81906 15.1483 1.81836C14.9459 1.46775 14.4976 1.34758 14.147 1.54996L13.5201 1.91189L14.2544 3.18368Z" fill="#8B8F94"/>
</svg>
