<svg width="22" height="12" viewBox="0 0 22 12" fill="none" xmlns="http://www.w3.org/2000/svg">
<path fill-rule="evenodd" clip-rule="evenodd" d="M0.705882 0C1.09589 0 1.41176 0.315874 1.41176 0.705882V6.35294H7.05882V2.82353C7.05882 2.43352 7.3747 2.11765 7.76471 2.11765H16.2353C18.1844 2.11765 19.7647 3.69794 19.7647 5.64706V6.35294H20.4706C20.8606 6.35294 21.1765 6.66881 21.1765 7.05882V11.2941C21.1765 11.6841 20.8606 12 20.4706 12H0.705882C0.315874 12 0 11.6841 0 11.2941V0.705882C0 0.315874 0.315874 0 0.705882 0ZM1.41176 10.5882H19.7647V7.76471H1.41176V10.5882ZM8.47059 6.35294H18.3529V5.64706C18.3529 4.47794 17.4044 3.52941 16.2353 3.52941H8.47059V6.35294Z" fill="#8B8F94"/>
<path fill-rule="evenodd" clip-rule="evenodd" d="M6.35294 3.8823C6.35294 2.71317 5.40441 1.76465 4.23529 1.76465C3.06617 1.76465 2.11765 2.71317 2.11765 3.8823C2.11765 5.05142 3.06617 5.99994 4.23529 5.99994C5.40441 5.99994 6.35294 5.05142 6.35294 3.8823ZM4.23529 3.17641C4.6253 3.17641 4.94117 3.49229 4.94117 3.8823C4.94117 4.2723 4.6253 4.58818 4.23529 4.58818C3.84528 4.58818 3.52941 4.2723 3.52941 3.8823C3.52941 3.49229 3.84528 3.17641 4.23529 3.17641Z" fill="#8B8F94"/>
</svg>
