<svg width="18" height="18" viewBox="0 0 18 18" fill="none" xmlns="http://www.w3.org/2000/svg">
<path d="M0.95 13.5524V13.6024H1H4.21337H4.26337V13.5524V12.9444V12.8944H4.21337H1.65802V1.66095H4.21337H4.26337V1.61095V1.00293V0.95293H4.21337H1H0.95V1.00293V13.5524Z" fill="#8B8F94" stroke="#8B8F94" stroke-width="0.1"/>
<path d="M4.26331 9.57617V9.52617H4.21331H2.68111H2.63111V9.57617V10.1842V10.2342H2.68111H4.21331H4.26331V10.1842V9.57617Z" fill="#8B8F94" stroke="#8B8F94" stroke-width="0.1"/>
<path d="M4.26331 6.13184V6.08184H4.21331H2.68111H2.63111V6.13184V6.73985V6.78985H2.68111H4.21331H4.26331V6.73985V6.13184Z" fill="#8B8F94" stroke="#8B8F94" stroke-width="0.1"/>
<path d="M4.26331 2.6875V2.6375H4.21331H2.68111H2.63111V2.6875V3.29552V3.34552H2.68111H4.21331H4.26331V3.29552V2.6875Z" fill="#8B8F94" stroke="#8B8F94" stroke-width="0.1"/>
<path d="M4.26332 11.2998V11.2498H4.21332H3.29521H3.24521V11.2998V11.9078V11.9578H3.29521H4.21332H4.26332V11.9078V11.2998Z" fill="#8B8F94" stroke="#8B8F94" stroke-width="0.1"/>
<path d="M4.26332 7.85547V7.80547H4.21332H3.29521H3.24521V7.85547V8.46349V8.51349H3.29521H4.21332H4.26332V8.46349V7.85547Z" fill="#8B8F94" stroke="#8B8F94" stroke-width="0.1"/>
<path d="M4.26332 4.40771V4.35771H4.21332H3.29521H3.24521V4.40771V5.01573V5.06573H3.29521H4.21332H4.26332V5.01573V4.40771Z" fill="#8B8F94" stroke="#8B8F94" stroke-width="0.1"/>
<path d="M6.41164 12.9415V13.0415H6.51164H7.11965H7.21965V12.9415V7.52979H13.7626V12.9415V13.0415H13.8626H14.4706H14.5706V12.9415V7.52979H17.2279H17.3279V7.42979V6.82177V6.72177H17.2279H14.5706V1V0.9H14.4706H13.8626H13.7626V1V6.72177H7.21965V1V0.9H7.11965H6.51164H6.41164V1V6.72177H4.97943H4.87943V6.82177V7.42979V7.52979H4.97943H6.41164V12.9415Z" fill="#8B8F94" stroke="#8B8F94" stroke-width="0.2"/>
<path d="M16.6959 13.7366H16.6459V13.7866V16.342H5.40944V13.7866V13.7366H5.35944H4.75142H4.70142V13.7866V17V17.05H4.75142H17.3039H17.3539V17V13.7866V13.7366H17.3039H16.6959Z" fill="#8B8F94" stroke="#8B8F94" stroke-width="0.1"/>
<path d="M13.9825 13.7866V13.7366H13.9325H13.3245H13.2745V13.7866V15.3188V15.3688H13.3245H13.9325H13.9825V15.3188V13.7866Z" fill="#8B8F94" stroke="#8B8F94" stroke-width="0.1"/>
<path d="M10.5381 13.7866V13.7366H10.4881H9.88008H9.83008V13.7866V15.3188V15.3688H9.88008H10.4881H10.5381V15.3188V13.7866Z" fill="#8B8F94" stroke="#8B8F94" stroke-width="0.1"/>
<path d="M7.09366 13.7866V13.7366H7.04366H6.43564H6.38564V13.7866V15.3188V15.3688H6.43564H7.04366H7.09366V15.3188V13.7866Z" fill="#8B8F94" stroke="#8B8F94" stroke-width="0.1"/>
<path d="M15.7063 13.7866V13.7366H15.6563H15.0482H14.9982V13.7866V14.7047V14.7547H15.0482H15.6563H15.7063V14.7047V13.7866Z" fill="#8B8F94" stroke="#8B8F94" stroke-width="0.1"/>
<path d="M12.2618 13.7866V13.7366H12.2118H11.6038H11.5538V13.7866V14.7047V14.7547H11.6038H12.2118H12.2618V14.7047V13.7866Z" fill="#8B8F94" stroke="#8B8F94" stroke-width="0.1"/>
<path d="M8.81737 13.7866V13.7366H8.76737H8.15935H8.10935V13.7866V14.7047V14.7547H8.15935H8.76737H8.81737V14.7047V13.7866Z" fill="#8B8F94" stroke="#8B8F94" stroke-width="0.1"/>
</svg>
