<svg width="100" height="100" viewBox="0 0 100 100" fill="none" xmlns="http://www.w3.org/2000/svg">
<circle cx="50" cy="50" r="50" fill="#6427FF"/>
<path d="M50.0752 18C40.9733 18 33.5002 25.3773 33.5002 34.5749C33.5002 43.7726 40.8775 51.1499 50.0752 51.1499C59.177 51.1499 66.6501 43.7726 66.6501 34.5749C66.6501 25.3773 59.177 18 50.0752 18ZM50.0752 47.4133C42.9853 47.4133 37.2368 41.6648 37.2368 34.5749C37.2368 27.4851 42.9853 21.7365 50.0752 21.7365C57.165 21.7365 62.9136 27.4851 62.9136 34.5749C62.9136 41.6648 57.165 47.4133 50.0752 47.4133Z" fill="#FAFBFB"/>
<path d="M50.0752 47.4133C42.9853 47.4133 37.2368 41.6648 37.2368 34.5749C37.2368 27.4851 42.9853 21.7365 50.0752 21.7365C57.165 21.7365 62.9136 27.4851 62.9136 34.5749C62.9136 41.6648 57.165 47.4133 50.0752 47.4133Z" fill="#FAFBFB"/>
<path d="M23.8204 82.0001H75.3656C76.4194 82.0001 77.1859 81.1378 77.1859 80.1797V70.7905C77.1859 62.2635 70.2877 55.3652 61.7607 55.3652H37.4252C28.8982 55.3652 22 62.2635 22 70.7905V80.1797C22 81.1378 22.8623 82.0001 23.8204 82.0001ZM25.6407 70.7905C25.6407 64.2755 30.9102 59.006 37.4252 59.006H61.8565C68.3715 59.006 73.641 64.2755 73.641 70.7905V78.3594H25.7365V70.7905H25.6407Z" fill="#FAFBFB"/>
<path d="M25.6407 70.7905C25.6407 64.2755 30.9102 59.006 37.4252 59.006H61.8565C68.3715 59.006 73.641 64.2755 73.641 70.7905V78.3594H25.7365V70.7905H25.6407Z" fill="#FAFBFB"/>
</svg>
