<svg width="18" height="17" viewBox="0 0 18 17" fill="none" xmlns="http://www.w3.org/2000/svg">
<path d="M9.4098 6.52083C9.10568 5.99403 9.10568 5.34429 9.4098 4.81748L11.5977 1.02842V1.02921C11.8978 0.487244 12.4685 0.150391 13.0879 0.150391C13.7073 0.150391 14.278 0.487224 14.5774 1.02921L16.7573 4.80949C17.0622 5.3371 17.0614 5.98763 16.7557 6.51526C16.4499 7.04206 15.8856 7.36615 15.2758 7.36374H10.8992C10.2878 7.37092 9.71872 7.04924 9.4098 6.52083ZM16.5106 9.84932C15.5903 8.96332 14.1821 8.82284 13.1047 9.50928C12.0271 8.82282 10.6191 8.9633 9.69873 9.84932C9.19107 10.3562 8.90532 11.0434 8.90532 11.761C8.90532 12.4786 9.19107 13.1659 9.69873 13.6727L11.2057 15.1797C12.2665 16.2238 13.9684 16.2238 15.0291 15.1797L16.5361 13.6727C17.0438 13.1659 17.3295 12.4786 17.3295 11.761C17.3295 11.0434 17.0438 10.3562 16.5361 9.84932H16.5106ZM5.0165 0.151983H2.76877C1.39107 0.151983 0.273579 1.26866 0.273579 2.64635V4.88612C0.273579 6.26382 1.39107 7.38049 2.76877 7.38049H5.0165C6.39101 7.3757 7.50209 6.26061 7.50209 4.88612V2.64635C7.50209 1.27184 6.39099 0.156683 5.0165 0.151983ZM3.89263 8.91304C2.9324 8.91064 2.01048 9.29059 1.33042 9.96747C0.649563 10.6451 0.267224 11.5655 0.26563 12.5258C0.264034 13.486 0.643985 14.4072 1.32245 15.0872C2.00012 15.7673 2.92125 16.1496 3.88078 16.1504C4.84101 16.1512 5.76214 15.7696 6.44136 15.0912C7.12058 14.4127 7.50217 13.4916 7.50217 12.5314C7.50217 11.5736 7.12222 10.654 6.44534 9.97636C5.76847 9.29789 4.85043 8.91543 3.89263 8.91304Z" fill="#6427FF"/>
</svg>
