<svg width="26" height="24" viewBox="0 0 26 24" fill="none" xmlns="http://www.w3.org/2000/svg">
<path d="M14.9894 17.7509V17.2509H14.4894H10.8067H10.3067V17.7509V23.4911C8.34196 23.4567 6.52113 23.3783 4.84387 23.2563C4.3352 23.2193 3.94141 22.7958 3.94141 22.2858V14.0683V13.0952H21.7229V14.0683V22.2797C21.7229 22.7909 21.3274 23.2149 20.8175 23.2504C18.9902 23.3778 17.0475 23.4586 14.9894 23.4927V17.7509Z" stroke="#B6B7B9"/>
<path d="M23.8217 12.095H23.7227C20.6649 11.7598 16.9037 11.5932 12.4432 11.5932C7.98651 11.5932 4.35968 11.7595 1.56939 12.095H1.47306C0.935655 12.095 0.5 11.6594 0.5 11.122C0.5 10.8639 0.602518 10.6164 0.785003 10.4339L9.3553 1.86363C11.1735 0.0454575 14.1213 0.0454575 15.9395 1.86363L24.5098 10.4339C24.8898 10.8139 24.8898 11.43 24.5098 11.81C24.3273 11.9925 24.0798 12.095 23.8217 12.095Z" stroke="#B6B7B9"/>
</svg>
