<svg width="26" height="24" viewBox="0 0 26 24" fill="none" xmlns="http://www.w3.org/2000/svg">
<path fill-rule="evenodd" clip-rule="evenodd" d="M14.4894 24.0006V17.7514H10.8067V23.9995C8.63924 23.9701 6.63954 23.8888 4.8076 23.7555C4.03755 23.6995 3.44141 23.0584 3.44141 22.2863V12.5957H22.2229V22.2802C22.2229 23.054 21.6242 23.6959 20.8523 23.7497C18.8652 23.8882 16.7442 23.9718 14.4894 24.0006ZM3.44141 12.5957V14.0688C5.76079 13.8278 8.83272 13.7074 12.6572 13.7074C16.4817 13.7074 19.6703 13.8278 22.2229 14.0688V12.5957H3.44141Z" fill="#6427FF"/>
<path fill-rule="evenodd" clip-rule="evenodd" d="M23.6953 12.595H23.8217C24.2124 12.595 24.5871 12.4398 24.8633 12.1636C25.4386 11.5883 25.4386 10.6556 24.8633 10.0804L16.293 1.51007C14.2796 -0.503358 11.0152 -0.503358 9.00175 1.51007L0.431449 10.0804C0.155197 10.3566 0 10.7313 0 11.122C0 11.9355 0.659512 12.595 1.47306 12.595H1.59943C4.36561 12.2605 7.98021 12.0932 12.4432 12.0932C16.9062 12.0932 20.6569 12.2605 23.6953 12.595Z" fill="#6427FF"/>
</svg>
