<svg width="32" height="24" viewBox="0 0 32 24" fill="none" xmlns="http://www.w3.org/2000/svg">
<path d="M6.58927 10.9457C7.43619 10.9106 8.23676 10.5495 8.8236 9.93787C9.41044 9.32623 9.73812 8.5114 9.73812 7.66376C9.73812 6.81612 9.41044 6.0013 8.8236 5.38965C8.23676 4.77801 7.43619 4.4169 6.58927 4.38184C5.74236 4.4169 4.94179 4.77801 4.35495 5.38965C3.76811 6.0013 3.44043 6.81612 3.44043 7.66376C3.44043 8.5114 3.76811 9.32623 4.35495 9.93787C4.94179 10.5495 5.74236 10.9106 6.58927 10.9457ZM6.58927 5.50675C7.14183 5.52726 7.66365 5.76624 8.04014 6.1712C8.41663 6.57616 8.61699 7.11399 8.59724 7.66657C8.61547 8.2182 8.41442 8.75458 8.0381 9.15832C7.66177 9.56205 7.14082 9.80025 6.58927 9.82078C6.03674 9.8017 5.51435 9.56414 5.13682 9.16024C4.75929 8.75635 4.55747 8.21914 4.57568 7.66657C4.55745 7.11346 4.75909 6.57564 5.13648 6.17086C5.51386 5.76607 6.03624 5.52727 6.58927 5.50675Z" fill="#6427FF"/>
<path d="M6.58927 5.50675C7.14183 5.52726 7.66365 5.76624 8.04014 6.1712C8.41663 6.57616 8.61699 7.11399 8.59724 7.66657C8.61547 8.2182 8.41442 8.75458 8.0381 9.15832C7.66177 9.56205 7.14082 9.80025 6.58927 9.82078C6.03674 9.8017 5.51435 9.56414 5.13682 9.16024C4.75929 8.75635 4.55747 8.21914 4.57568 7.66657C4.55745 7.11346 4.75909 6.57564 5.13648 6.17086C5.51386 5.76607 6.03624 5.52727 6.58927 5.50675Z" fill="#6427FF"/>
<path d="M14.9978 7.91907C14.784 9.27458 14.2553 11.0744 12.9448 11.9631C12.8555 12.0242 12.7857 12.1098 12.7438 12.2095C12.7019 12.3093 12.6897 12.419 12.7086 12.5256L14.2497 20.8162C14.2747 20.9437 14.271 21.0752 14.239 21.2012C14.207 21.3271 14.1474 21.4444 14.0645 21.5445C13.9816 21.6446 13.8775 21.725 13.7598 21.78C13.642 21.835 13.5135 21.8631 13.3835 21.8623C13.2148 21.8616 13.0498 21.8131 12.9075 21.7225C12.7651 21.632 12.6513 21.503 12.5792 21.3505L10.9987 17.9195C10.9494 17.8146 10.8689 17.7276 10.7682 17.6702C10.6676 17.6128 10.5516 17.5879 10.4362 17.5989C10.3187 17.6147 10.2092 17.6673 10.1233 17.7492C10.0374 17.831 9.97964 17.9379 9.95816 18.0545C9.53275 19.9278 8.44142 21.5828 6.88716 22.7116C6.71095 22.8258 6.49892 22.8711 6.29146 22.8389C6.08401 22.8067 5.89564 22.6994 5.76225 22.5373C5.63975 22.3883 5.57279 22.2014 5.57279 22.0086C5.57279 21.8157 5.63975 21.6288 5.76225 21.4799C6.56093 20.5687 8.31579 17.2839 8.09644 15.501C8.07986 15.3638 8.01335 15.2375 7.90962 15.1462C7.80588 15.0549 7.67216 15.005 7.53398 15.006L2.39314 15.186C2.13774 15.203 1.88389 15.135 1.67122 14.9925C1.45856 14.8501 1.29905 14.6412 1.21761 14.3986C1.17929 14.2653 1.16594 14.1261 1.17824 13.988C1.19034 13.8315 1.23394 13.6791 1.30643 13.5399C1.37893 13.4007 1.47881 13.2776 1.60008 13.178C1.72066 13.0784 1.85981 13.0038 2.00947 12.9584C2.15913 12.913 2.3163 12.8978 2.47188 12.9137C5.44165 13.2061 10.7625 12.8799 13.1079 7.33974C13.2056 7.11288 13.3829 6.92958 13.6063 6.82432C13.8298 6.71907 14.084 6.69913 14.3211 6.76826C14.5582 6.8374 14.7619 6.99083 14.8938 7.19968C15.0257 7.40852 15.0766 7.65838 15.0371 7.90219L14.9978 7.91907Z" fill="#6427FF"/>
<path d="M29.9534 14.4098C29.8792 14.6468 29.7286 14.8526 29.5251 14.9951C29.3216 15.1375 29.0767 15.2086 28.8285 15.1972H28.7779L23.6371 15.0173C23.4997 15.0161 23.3667 15.0652 23.2631 15.1553C23.1595 15.2455 23.0925 15.3704 23.0746 15.5066C22.8553 17.2896 24.6101 20.5687 25.4088 21.4855C25.5313 21.6345 25.5983 21.8213 25.5983 22.0142C25.5983 22.2071 25.5313 22.3939 25.4088 22.5429C25.2754 22.705 25.087 22.8124 24.8796 22.8445C24.6721 22.8767 24.4601 22.8314 24.2839 22.7173C22.7191 21.5932 21.6174 19.9376 21.1848 18.0601C21.1633 17.9435 21.1055 17.8366 21.0196 17.7548C20.9338 17.673 20.8242 17.6204 20.7067 17.6045H20.6223C20.5147 17.6043 20.4093 17.6349 20.3186 17.6927C20.2279 17.7505 20.1557 17.8331 20.1105 17.9308L18.53 21.3617C18.4578 21.5142 18.344 21.6432 18.2017 21.7338C18.0594 21.8243 17.8944 21.8728 17.7257 21.8736C17.5957 21.8743 17.4672 21.8462 17.3494 21.7913C17.2317 21.7363 17.1276 21.6558 17.0447 21.5557C16.9618 21.4556 16.9022 21.3384 16.8702 21.2124C16.8381 21.0864 16.8345 20.955 16.8595 20.8274L18.4231 12.5481C18.442 12.4415 18.4298 12.3318 18.3879 12.232C18.346 12.1323 18.2762 12.0467 18.1869 11.9856C16.8764 11.0969 16.3477 9.29708 16.1339 7.94156C16.0944 7.69775 16.1454 7.4479 16.2773 7.23905C16.4091 7.0302 16.6128 6.87677 16.8499 6.80764C17.0871 6.7385 17.3413 6.75844 17.5647 6.86369C17.7882 6.96895 17.9654 7.15226 18.0631 7.37911C20.4086 12.9193 25.735 13.2455 28.6935 12.953C28.8498 12.936 29.0079 12.9504 29.1585 12.9956C29.309 13.0407 29.449 13.1155 29.5702 13.2157C29.6913 13.3158 29.7911 13.4393 29.8637 13.5787C29.9363 13.7181 29.9802 13.8707 29.9928 14.0273C30.0017 14.1561 29.9884 14.2855 29.9534 14.4098Z" fill="#6427FF"/>
<path d="M24.5593 10.9458C25.2148 10.9762 25.8644 10.8095 26.4243 10.4672C26.9842 10.125 27.4287 9.62288 27.7006 9.02564C27.9725 8.42841 28.0593 7.76341 27.9498 7.1164C27.8403 6.46938 27.5395 5.87 27.0862 5.39552C26.6328 4.92105 26.0478 4.59322 25.4064 4.45432C24.7651 4.31541 24.0968 4.37179 23.4878 4.61618C22.8788 4.86057 22.357 5.28177 21.9895 5.82549C21.6221 6.36921 21.426 7.01051 21.4264 7.66673C21.4098 8.51623 21.7299 9.33782 22.3168 9.95217C22.9038 10.5665 23.7099 10.9237 24.5593 10.9458ZM24.5593 5.50691C25.1123 5.52743 25.6347 5.76623 26.0121 6.17102C26.3895 6.5758 26.5911 7.11362 26.5729 7.66673C26.5873 7.93974 26.546 8.21283 26.4515 8.46935C26.357 8.72588 26.2112 8.96046 26.023 9.15882C25.8349 9.35717 25.6083 9.51514 25.3572 9.62309C25.106 9.73104 24.8355 9.78671 24.5621 9.78671C24.2887 9.78671 24.0182 9.73104 23.767 9.62309C23.5158 9.51514 23.2893 9.35717 23.1011 9.15882C22.913 8.96046 22.7672 8.72588 22.6727 8.46935C22.5782 8.21283 22.5369 7.93974 22.5513 7.66673C22.5316 7.11415 22.7319 6.57632 23.1084 6.17136C23.4849 5.7664 24.0067 5.52742 24.5593 5.50691Z" fill="#6427FF"/>
<path d="M24.5593 5.50691C25.1123 5.52743 25.6347 5.76623 26.0121 6.17102C26.3895 6.5758 26.5911 7.11362 26.5729 7.66673C26.5873 7.93974 26.546 8.21283 26.4515 8.46935C26.357 8.72588 26.2112 8.96046 26.023 9.15882C25.8349 9.35717 25.6083 9.51514 25.3572 9.62309C25.106 9.73104 24.8355 9.78671 24.5621 9.78671C24.2887 9.78671 24.0182 9.73104 23.767 9.62309C23.5158 9.51514 23.2893 9.35717 23.1011 9.15882C22.913 8.96046 22.7672 8.72588 22.6727 8.46935C22.5782 8.21283 22.5369 7.93974 22.5513 7.66673C22.5316 7.11415 22.7319 6.57632 23.1084 6.17136C23.4849 5.7664 24.0067 5.52742 24.5593 5.50691Z" fill="#6427FF"/>
<path d="M15.56 3.93719C15.7092 3.93719 15.8522 3.87793 15.9577 3.77245C16.0632 3.66697 16.1225 3.5239 16.1225 3.37473V0.562455C16.1225 0.413283 16.0632 0.27022 15.9577 0.164739C15.8522 0.0592586 15.7092 0 15.56 0C15.4108 0 15.2678 0.0592586 15.1623 0.164739C15.0568 0.27022 14.9976 0.413283 14.9976 0.562455V3.37473C14.9976 3.5239 15.0568 3.66697 15.1623 3.77245C15.2678 3.87793 15.4108 3.93719 15.56 3.93719Z" fill="#6427FF"/>
<path d="M17.1633 4.63504C17.3 4.63484 17.4319 4.58485 17.5345 4.49442L19.6099 2.68894C19.68 2.64585 19.7397 2.58794 19.7849 2.51928C19.8301 2.45062 19.8597 2.37288 19.8717 2.29153C19.8836 2.21019 19.8776 2.12722 19.854 2.04847C19.8304 1.96971 19.7898 1.89709 19.7351 1.83571C19.6804 1.77433 19.6129 1.72569 19.5374 1.69321C19.4618 1.66073 19.3801 1.64521 19.2979 1.64773C19.2158 1.65024 19.1351 1.67075 19.0617 1.70779C18.9883 1.74483 18.924 1.79752 18.8731 1.86213L16.792 3.66761C16.6803 3.76614 16.6122 3.90499 16.6027 4.05367C16.5932 4.20236 16.6431 4.34873 16.7414 4.46067C16.7956 4.51761 16.8612 4.56254 16.9339 4.59257C17.0065 4.6226 17.0847 4.63707 17.1633 4.63504Z" fill="#6427FF"/>
<path d="M13.5858 4.49434C13.6884 4.58477 13.8203 4.63476 13.957 4.63496C14.0373 4.63416 14.1165 4.61617 14.1893 4.58222C14.262 4.54826 14.3267 4.49912 14.3789 4.4381C14.4772 4.32616 14.5271 4.17978 14.5176 4.0311C14.5081 3.88241 14.44 3.74357 14.3283 3.64504L12.2472 1.86205C12.1918 1.81096 12.1268 1.77151 12.0559 1.74604C11.985 1.72056 11.9097 1.70958 11.8345 1.71375C11.7593 1.71792 11.6857 1.73716 11.6181 1.77031C11.5505 1.80347 11.4902 1.84987 11.4408 1.90676C11.3915 1.96366 11.354 2.02989 11.3308 2.10152C11.3075 2.17316 11.2988 2.24874 11.3053 2.32378C11.3118 2.39882 11.3333 2.4718 11.3685 2.53837C11.4037 2.60495 11.452 2.66378 11.5104 2.71136L13.5858 4.49434Z" fill="#6427FF"/>
</svg>
