<svg width="32" height="24" viewBox="0 0 32 24" fill="none" xmlns="http://www.w3.org/2000/svg">
<path d="M6.58903 10.9457C7.43594 10.9106 8.23651 10.5495 8.82336 9.93787C9.4102 9.32623 9.73787 8.5114 9.73787 7.66376C9.73787 6.81612 9.4102 6.0013 8.82336 5.38965C8.23651 4.77801 7.43594 4.4169 6.58903 4.38184C5.74212 4.4169 4.94155 4.77801 4.3547 5.38965C3.76786 6.0013 3.44019 6.81612 3.44019 7.66376C3.44019 8.5114 3.76786 9.32623 4.3547 9.93787C4.94155 10.5495 5.74212 10.9106 6.58903 10.9457ZM6.58903 5.50675C7.14158 5.52726 7.66341 5.76624 8.03989 6.1712C8.41638 6.57616 8.61675 7.11399 8.59699 7.66657C8.61523 8.2182 8.41418 8.75458 8.03785 9.15832C7.66152 9.56205 7.14057 9.80025 6.58903 9.82078C6.03649 9.8017 5.51411 9.56414 5.13658 9.16024C4.75904 8.75635 4.55723 8.21914 4.57544 7.66657C4.55721 7.11346 4.75885 6.57564 5.13623 6.17086C5.51361 5.76607 6.03599 5.52727 6.58903 5.50675Z" fill="#B6B7B9"/>
<path fill-rule="evenodd" clip-rule="evenodd" d="M30.2909 12.3231C30.0576 12.13 29.7884 11.9849 29.4988 11.8961C29.2093 11.8073 28.905 11.7766 28.6035 11.8056C25.9488 12.07 21.1791 11.8056 19.1149 6.91227C18.9769 6.57968 18.7569 6.28747 18.4754 6.06291C18.1939 5.83836 17.8601 5.68877 17.5051 5.62812C17.1502 5.56746 16.7856 5.59771 16.4455 5.71604C16.1054 5.83438 15.8009 6.03693 15.5602 6.30482C15.3184 6.04114 15.0141 5.84257 14.6754 5.7274C14.3366 5.61224 13.9744 5.58417 13.6219 5.64581C13.2695 5.70744 12.9383 5.85678 12.6587 6.08007C12.3792 6.30337 12.1604 6.59342 12.0224 6.92352C9.93566 11.7888 5.19417 12.07 2.53375 11.8056C2.16166 11.7687 1.78617 11.8228 1.43964 11.9633C1.09311 12.1038 0.785945 12.3265 0.544611 12.6121C0.303278 12.8977 0.135016 13.2377 0.0543293 13.6028C-0.0263578 13.9679 -0.0170506 14.3472 0.0814491 14.7079C0.224729 15.1981 0.530546 15.625 0.948623 15.9184C1.3667 16.2118 1.87215 16.3541 2.38189 16.3221L6.93778 16.159C6.59279 17.8195 5.8882 19.3842 4.87357 20.743C4.57435 21.086 4.40439 21.5227 4.3931 21.9777C4.3818 22.4327 4.52987 22.8773 4.8117 23.2347C4.99652 23.4715 5.23293 23.6629 5.50292 23.7945C5.7729 23.9261 6.06935 23.9943 6.3697 23.994C6.76997 23.9965 7.1618 23.879 7.49461 23.6566C8.89768 22.6831 9.97709 21.3118 10.5937 19.7194L11.5668 21.823C11.7723 22.2668 12.1327 22.6205 12.5804 22.8174C13.0281 23.0144 13.5323 23.0412 13.9984 22.8927C14.4645 22.7443 14.8603 22.4308 15.1116 22.0112C15.3629 21.5916 15.4525 21.0946 15.3634 20.6137L13.8729 12.6718C14.647 11.9971 15.2291 11.1297 15.5602 10.1576C15.8913 11.1297 16.4734 11.9971 17.2476 12.6718L15.7739 20.6193C15.7181 20.9085 15.7275 21.2065 15.8015 21.4916C15.8754 21.7767 16.0121 22.0417 16.2014 22.2673C16.4177 22.5299 16.6971 22.7332 17.0135 22.8582C17.3299 22.9832 17.6729 23.0258 18.0102 22.9819C18.3475 22.9381 18.6682 22.8092 18.9421 22.6075C19.216 22.4058 19.4342 22.1377 19.5761 21.8286L20.5492 19.725C21.1658 21.3175 22.2452 22.6888 23.6483 23.6622C23.9811 23.8846 24.373 24.0021 24.7732 23.9997C25.1502 23.9991 25.5191 23.89 25.8358 23.6855C26.1524 23.4809 26.4034 23.1894 26.5589 22.8459C26.7143 22.5025 26.7675 22.1215 26.7122 21.7486C26.6569 21.3757 26.4953 21.0266 26.2469 20.743C25.2384 19.3819 24.5379 17.8178 24.1939 16.159L28.7498 16.3221C29.2268 16.3526 29.7012 16.2302 30.104 15.9729C30.5069 15.7156 30.8173 15.3367 30.9903 14.891C31.1633 14.4454 31.1898 13.9563 31.0661 13.4946C30.9424 13.0328 30.6748 12.6225 30.3022 12.3231H30.2909ZM12.9448 11.9631C14.2553 11.0744 14.784 9.27458 14.9978 7.91907L15.0371 7.90219C15.0766 7.65838 15.0257 7.40852 14.8938 7.19968C14.7619 6.99083 14.5582 6.8374 14.3211 6.76826C14.084 6.69913 13.8298 6.71907 13.6063 6.82432C13.3829 6.92958 13.2056 7.11288 13.1079 7.33974C10.7625 12.8799 5.44165 13.2061 2.47188 12.9137C2.3163 12.8978 2.15913 12.913 2.00947 12.9584C1.85981 13.0038 1.72066 13.0784 1.60008 13.178C1.47881 13.2776 1.37893 13.4007 1.30643 13.5399C1.23394 13.6791 1.19034 13.8315 1.17824 13.988C1.16594 14.1261 1.17929 14.2653 1.21761 14.3986C1.29905 14.6412 1.45856 14.8501 1.67122 14.9925C1.88389 15.135 2.13774 15.203 2.39314 15.186L7.53398 15.006C7.67216 15.005 7.80588 15.0549 7.90962 15.1462C8.01335 15.2375 8.07986 15.3638 8.09644 15.501C8.31579 17.2839 6.56093 20.5687 5.76225 21.4799C5.63975 21.6288 5.57279 21.8157 5.57279 22.0086C5.57279 22.2014 5.63975 22.3883 5.76225 22.5373C5.89564 22.6994 6.08401 22.8067 6.29146 22.8389C6.49892 22.8711 6.71095 22.8258 6.88716 22.7116C8.44142 21.5828 9.53275 19.9278 9.95816 18.0545C9.97964 17.9379 10.0374 17.831 10.1233 17.7492C10.2092 17.6673 10.3187 17.6147 10.4362 17.5989C10.5516 17.5879 10.6676 17.6128 10.7682 17.6702C10.8689 17.7276 10.9494 17.8146 10.9987 17.9195L12.5792 21.3505C12.6513 21.503 12.7651 21.632 12.9075 21.7225C13.0498 21.8131 13.2148 21.8616 13.3835 21.8623C13.5135 21.8631 13.642 21.835 13.7598 21.78C13.8775 21.725 13.9816 21.6446 14.0645 21.5445C14.1474 21.4444 14.207 21.3271 14.239 21.2012C14.271 21.0752 14.2747 20.9437 14.2497 20.8162L12.7086 12.5256C12.6897 12.419 12.7019 12.3093 12.7438 12.2095C12.7857 12.1098 12.8555 12.0242 12.9448 11.9631ZM29.5251 14.9951C29.7286 14.8526 29.8792 14.6468 29.9534 14.4098C29.9884 14.2855 30.0017 14.1561 29.9928 14.0273C29.9802 13.8707 29.9363 13.7181 29.8637 13.5787C29.7911 13.4393 29.6913 13.3158 29.5702 13.2157C29.449 13.1155 29.309 13.0407 29.1585 12.9956C29.0079 12.9504 28.8498 12.936 28.6935 12.953C25.735 13.2455 20.4086 12.9193 18.0631 7.37911C17.9654 7.15226 17.7882 6.96895 17.5647 6.86369C17.3413 6.75844 17.0871 6.7385 16.8499 6.80764C16.6128 6.87677 16.4091 7.0302 16.2773 7.23905C16.1454 7.4479 16.0944 7.69775 16.1339 7.94156C16.3477 9.29708 16.8764 11.0969 18.1869 11.9856C18.2762 12.0467 18.346 12.1323 18.3879 12.232C18.4298 12.3318 18.442 12.4415 18.4231 12.5481L16.8595 20.8274C16.8345 20.955 16.8381 21.0864 16.8702 21.2124C16.9022 21.3384 16.9618 21.4556 17.0447 21.5557C17.1276 21.6558 17.2317 21.7363 17.3494 21.7913C17.4672 21.8462 17.5957 21.8743 17.7257 21.8736C17.8944 21.8728 18.0594 21.8243 18.2017 21.7338C18.344 21.6432 18.4578 21.5142 18.53 21.3617L20.1105 17.9308C20.1557 17.8331 20.2279 17.7505 20.3186 17.6927C20.4093 17.6349 20.5147 17.6043 20.6223 17.6045H20.7067C20.8242 17.6204 20.9338 17.673 21.0196 17.7548C21.1055 17.8366 21.1633 17.9435 21.1848 18.0601C21.6174 19.9376 22.7191 21.5932 24.2839 22.7173C24.4601 22.8314 24.6721 22.8767 24.8796 22.8445C25.087 22.8124 25.2754 22.705 25.4088 22.5429C25.5313 22.3939 25.5983 22.2071 25.5983 22.0142C25.5983 21.8213 25.5313 21.6345 25.4088 21.4855C24.6101 20.5687 22.8553 17.2896 23.0746 15.5066C23.0925 15.3704 23.1595 15.2455 23.2631 15.1553C23.3667 15.0652 23.4997 15.0161 23.6371 15.0173L28.7779 15.1972H28.8285C29.0767 15.2086 29.3216 15.1375 29.5251 14.9951Z" fill="#B6B7B9"/>
<path d="M24.5595 10.9458C25.215 10.9762 25.8646 10.8095 26.4245 10.4672C26.9844 10.125 27.429 9.62288 27.7009 9.02564C27.9728 8.42841 28.0596 7.76341 27.95 7.1164C27.8405 6.46938 27.5397 5.87 27.0864 5.39552C26.6331 4.92105 26.048 4.59322 25.4067 4.45432C24.7653 4.31541 24.0971 4.37179 23.4881 4.61618C22.8791 4.86057 22.3572 5.28177 21.9898 5.82549C21.6224 6.36921 21.4262 7.01051 21.4266 7.66673C21.41 8.51623 21.7301 9.33782 22.3171 9.95217C22.904 10.5665 23.7101 10.9237 24.5595 10.9458ZM24.5595 5.50691C25.1126 5.52743 25.6349 5.76623 26.0123 6.17102C26.3897 6.5758 26.5913 7.11362 26.5731 7.66673C26.5876 7.93974 26.5463 8.21283 26.4517 8.46935C26.3572 8.72588 26.2114 8.96046 26.0233 9.15882C25.8351 9.35717 25.6086 9.51514 25.3574 9.62309C25.1062 9.73104 24.8357 9.78671 24.5623 9.78671C24.2889 9.78671 24.0184 9.73104 23.7672 9.62309C23.5161 9.51514 23.2895 9.35717 23.1014 9.15882C22.9132 8.96046 22.7675 8.72588 22.6729 8.46935C22.5784 8.21283 22.5371 7.93974 22.5516 7.66673C22.5318 7.11415 22.7322 6.57632 23.1087 6.17136C23.4851 5.7664 24.007 5.52742 24.5595 5.50691Z" fill="#B6B7B9"/>
<path d="M15.5603 3.93719C15.7094 3.93719 15.8525 3.87793 15.958 3.77245C16.0635 3.66697 16.1227 3.5239 16.1227 3.37473V0.562455C16.1227 0.413283 16.0635 0.27022 15.958 0.164739C15.8525 0.0592586 15.7094 0 15.5603 0C15.4111 0 15.268 0.0592586 15.1625 0.164739C15.0571 0.27022 14.9978 0.413283 14.9978 0.562455V3.37473C14.9978 3.5239 15.0571 3.66697 15.1625 3.77245C15.268 3.87793 15.4111 3.93719 15.5603 3.93719Z" fill="#B6B7B9"/>
<path d="M17.1633 4.63504C17.3 4.63484 17.4319 4.58485 17.5345 4.49442L19.6099 2.68894C19.68 2.64585 19.7397 2.58794 19.7849 2.51928C19.8301 2.45062 19.8597 2.37288 19.8717 2.29153C19.8836 2.21019 19.8776 2.12722 19.854 2.04847C19.8304 1.96971 19.7898 1.89709 19.7351 1.83571C19.6804 1.77433 19.6129 1.72569 19.5374 1.69321C19.4618 1.66073 19.3801 1.64521 19.2979 1.64773C19.2158 1.65024 19.1351 1.67075 19.0617 1.70779C18.9883 1.74483 18.924 1.79752 18.8731 1.86213L16.792 3.66761C16.6803 3.76614 16.6122 3.90499 16.6027 4.05367C16.5932 4.20236 16.6431 4.34873 16.7414 4.46067C16.7956 4.51761 16.8612 4.56254 16.9339 4.59257C17.0065 4.6226 17.0847 4.63707 17.1633 4.63504Z" fill="#B6B7B9"/>
<path d="M13.5861 4.49434C13.6886 4.58477 13.8206 4.63476 13.9573 4.63496C14.0376 4.63416 14.1168 4.61617 14.1895 4.58222C14.2623 4.54826 14.3269 4.49912 14.3791 4.4381C14.4774 4.32616 14.5273 4.17978 14.5178 4.0311C14.5084 3.88241 14.4403 3.74357 14.3285 3.64504L12.2474 1.86205C12.1921 1.81096 12.127 1.77151 12.0562 1.74604C11.9853 1.72056 11.91 1.70958 11.8348 1.71375C11.7596 1.71792 11.686 1.73716 11.6183 1.77031C11.5507 1.80347 11.4904 1.84987 11.4411 1.90676C11.3917 1.96366 11.3543 2.02989 11.331 2.10152C11.3077 2.17316 11.2991 2.24874 11.3056 2.32378C11.312 2.39882 11.3335 2.4718 11.3688 2.53837C11.404 2.60495 11.4522 2.66378 11.5106 2.71136L13.5861 4.49434Z" fill="#B6B7B9"/>
</svg>
