<svg width="36" height="32" viewBox="0 0 36 32" fill="none" xmlns="http://www.w3.org/2000/svg">
<path d="M28.845 22.4203V19.4215C28.845 15.9341 26.009 13.0981 22.5217 13.0981H12.7484C9.26104 13.0981 6.42505 15.9341 6.42505 19.4215V22.4203H11.3202V19.4825C11.3202 18.8108 12.3379 18.8108 12.3379 19.4825V22.4203H22.9288V19.4825C22.9288 18.8108 23.9465 18.8108 23.9465 19.4825V22.4203H28.8416H28.845Z" fill="#6427FF"/>
<path d="M12.2056 5.42774C12.2056 8.42318 14.6413 10.8589 17.6333 10.8589C20.6253 10.8589 23.0611 8.42317 23.0611 5.43113C23.0611 2.43909 20.6253 0 17.6333 0C14.6413 0 12.2056 2.4357 12.2056 5.42774Z" fill="#6427FF"/>
<path d="M35.2803 23.438H0V25.6871H35.2803V23.438Z" fill="#6427FF"/>
<path d="M32.4647 26.7046H2.81567V32H32.4647V26.7046Z" fill="#6427FF"/>
</svg>
