<svg width="32" height="32" viewBox="0 0 32 32" fill="none" xmlns="http://www.w3.org/2000/svg">
<path d="M29.0167 0.00012627H0.813645C0.36493 0.00012627 0.000107397 0.364949 0.000107397 0.813664C0.000107397 1.26365 0.36493 1.6272 0.813645 1.6272H4.39321L2.95806 2.99495C2.58182 3.35216 2.36825 3.84917 2.36698 4.37035V5.78005C2.36825 6.82749 3.21739 7.6766 4.26607 7.67787H14.6221C15.6708 7.6766 16.5199 6.82746 16.5212 5.78005V4.37035C16.5199 3.85044 16.3063 3.35343 15.9301 2.99495L14.4924 1.6272H18.2155V15.9682C18.2155 15.9797 18.2091 15.9886 18.2091 16C18.2091 16.0115 18.2155 16.0204 18.2155 16.0318V18.4177H14.0297C14.1949 18.0605 14.2813 17.6703 14.2826 17.2762V16.3254H14.8674C15.3173 16.3254 15.6809 15.9606 15.6809 15.5119C15.6809 15.0632 15.3173 14.6983 14.8674 14.6983H14.2826V14.181C14.2826 13.731 13.9191 13.3675 13.4691 13.3675H6.36722C5.91851 13.3675 5.55368 13.731 5.55368 14.181V14.6983H4.97275C4.52404 14.6983 4.15922 15.0632 4.15922 15.5119C4.15922 15.9606 4.52404 16.3254 4.97275 16.3254H5.55368V17.2737C5.55495 17.6678 5.64012 18.0567 5.8041 18.4152H2.9834C1.33599 18.4152 0.00126912 19.7512 0 21.3973V29.0166C0.0012714 30.664 1.33599 31.9987 2.9834 32H29.0166C30.6627 31.9975 31.9975 30.6627 32 29.0166V2.9834C31.9975 1.33726 30.6628 0.00266451 29.0167 0.00012627ZM14.8065 4.17715C14.8599 4.228 14.8904 4.29791 14.8904 4.37164V5.78261C14.8904 5.85379 14.8624 5.92243 14.8116 5.97328C14.7607 6.02413 14.6908 6.05336 14.6196 6.05336H4.26623C4.11623 6.05336 3.9942 5.93133 3.9942 5.78261V4.37164C3.99547 4.29791 4.02598 4.228 4.07937 4.17715L6.75642 1.62723H12.1323L14.8065 4.17715ZM26.5455 1.62723H29.0166C29.7654 1.6285 30.3717 2.23485 30.373 2.98356V15.1866H19.8429V1.62723H26.5455ZM7.18071 17.2738V14.9959H12.6555V17.2738C12.6555 17.9031 12.1445 18.4141 11.514 18.4153H8.32214C7.69291 18.4141 7.18198 17.9031 7.18071 17.2738ZM2.98351 20.0424H18.2159V23.0143H1.62718V21.3974C1.62845 20.6487 2.2348 20.0424 2.98351 20.0424ZM1.62718 29.0167V24.6415H18.2159V30.373H2.98351C2.2348 30.3717 1.62845 29.7654 1.62718 29.0167ZM29.0167 30.373H19.8429V16.8136H30.373V29.0167C30.3718 29.7654 29.7654 30.3717 29.0167 30.373Z" fill="#061B2E"/>
</svg>
