<svg width="24" height="24" viewBox="0 0 24 24" fill="none" xmlns="http://www.w3.org/2000/svg">
<path fill-rule="evenodd" clip-rule="evenodd" d="M22.0807 0H2.05053C0.956498 0 0 0.787705 0 1.86924V21.9432C0 23.031 0.956498 24 2.05053 24H22.0745C23.1748 24 24 23.0247 24 21.9432V1.86924C24.0062 0.787705 23.1748 0 22.0807 0ZM4.00104 20.0052H7.43943V9.31493H4.00104V20.0052ZM5.81401 7.6895H5.83901C6.98306 7.6895 7.69574 6.87054 7.69574 5.84527C7.67074 4.795 6.98306 4.00104 5.85777 4.00104C4.73248 4.00104 4.00104 4.80125 4.00104 5.84527C4.00104 6.87054 4.71372 7.6895 5.81401 7.6895ZM16.5668 20.0052H20.0052V13.7598C20.0052 10.5527 18.2985 9.06486 16.0417 9.06486C14.2224 9.06486 13.441 10.0901 12.9409 10.8028V9.31493H9.50246V20.0052H12.9409V13.9161C12.9409 13.6035 12.9659 13.2972 13.0596 13.0722C13.3097 12.447 13.8723 11.8031 14.8226 11.8031C16.0667 11.8031 16.5668 12.7596 16.5668 14.1599V20.0052Z" fill="#0A66C2"/>
</svg>
