<svg width="19" height="20" viewBox="0 0 19 20" fill="none" xmlns="http://www.w3.org/2000/svg">
<path d="M0 16.2324C0.0550955 15.0718 -0.00019927 13.8922 0.189497 12.755C0.52535 10.7412 2.35805 9.26584 4.36858 9.24192C5.56315 9.22773 6.75811 9.22814 7.95268 9.24202C9.83359 9.26392 11.5767 10.635 12.0821 12.4704C12.2015 12.904 12.0117 13.3273 11.6345 13.4687C11.2461 13.6143 10.8013 13.4395 10.6576 13.0086C10.0895 11.3052 8.86828 10.698 7.19091 10.7678C6.31296 10.8044 5.43213 10.7664 4.5528 10.7763C2.83029 10.7957 1.57515 12.0776 1.56927 13.8239C1.5635 15.5287 1.56838 17.2336 1.56768 18.9384C1.56738 19.6604 1.31701 20.0049 0.799133 20C0.281455 19.9952 0.0544977 19.6684 0.0532025 18.9186C0.051708 18.024 0.052804 17.1294 0.052804 16.2348C0.0351694 16.234 0.0176345 16.2332 0 16.2324Z" fill="#6427FF"/>
<path d="M9.94463 3.84836C9.94871 5.98152 8.24504 7.72409 6.15679 7.72267C4.05738 7.72125 2.36257 5.99683 2.35859 3.85809C2.3545 1.70973 4.03267 0.00101393 6.14772 4.53746e-07C8.26636 -0.00101302 9.94054 1.69585 9.94463 3.84836ZM6.1526 1.53987C4.90444 1.53926 3.86928 2.5872 3.86848 3.85221C3.86769 5.10385 4.92187 6.18148 6.15021 6.18442C7.37546 6.18746 8.43324 5.10993 8.43682 3.85525C8.44041 2.59236 7.40276 1.54048 6.1526 1.53987Z" fill="#6427FF"/>
<path d="M15.4133 16.625C15.1703 16.89 15.0048 17.0524 14.8603 17.2322C14.6057 17.5487 14.6194 18.0383 14.9044 18.2857C15.2178 18.5577 15.5916 18.6081 15.899 18.3177C16.5673 17.6863 17.2168 17.0322 17.8441 16.3587C18.1437 16.0369 18.1357 15.6291 17.8334 15.306C17.2274 14.6582 16.6009 14.0293 15.9652 13.4115C15.6293 13.0851 15.1954 13.1008 14.8969 13.4022C14.6094 13.6925 14.6064 14.1449 14.8991 14.4973C15.0342 14.66 15.1852 14.8092 15.4146 15.0572C15.1312 15.0572 14.9582 15.0572 14.7852 15.0572C12.6279 15.0573 10.4705 15.0547 8.31307 15.059C7.70244 15.0602 7.39837 15.2674 7.32962 15.6976C7.24225 16.2452 7.59584 16.6208 8.23138 16.6229C10.1066 16.6292 11.982 16.6252 13.8572 16.6252C14.3363 16.625 14.8153 16.625 15.4133 16.625Z" fill="#6427FF"/>
<path d="M12.2889 18.9833C12.2374 19.2072 12.2405 19.4711 12.1186 19.6435C12.0006 19.8105 11.7644 19.951 11.5615 19.984C11.0746 20.0632 10.7572 19.7196 10.7337 19.1613C10.7012 18.3898 10.955 17.9821 11.4773 17.9667C11.9612 17.9524 12.2448 18.3236 12.2889 18.9833Z" fill="#6427FF"/>
</svg>
