<svg width="34" height="34" viewBox="0 0 34 34" fill="none" xmlns="http://www.w3.org/2000/svg">
<path d="M0.78221 32.2233L0.782203 32.2233L0.781688 32.2251C0.703584 32.4985 0.770625 32.8038 0.982632 33.0107C1.13781 33.1717 1.34677 33.25 1.55172 33.25C1.61808 33.25 1.69345 33.2428 1.77289 33.2173L9.08301 31.1886C11.4934 32.5396 14.2277 33.25 17 33.25C25.9601 33.25 33.25 25.9601 33.25 17C33.25 8.03986 25.9601 0.75 17 0.75C8.03986 0.75 0.75 8.03986 0.75 17C0.75 19.8327 1.48751 22.611 2.88723 25.0597L0.78221 32.2233ZM9.59574 29.6342L9.59577 29.6341L9.59153 29.6318C9.47087 29.5639 9.33526 29.5224 9.18759 29.5224C9.12122 29.5224 9.04581 29.5296 8.96632 29.5551L2.72941 31.287L4.52246 25.1814C4.52248 25.1813 4.52249 25.1813 4.52251 25.1812C4.58696 24.9635 4.55407 24.7325 4.44353 24.543L4.44355 24.543L4.44182 24.5401C3.07497 22.2674 2.35345 19.6637 2.35345 17C2.35345 8.9229 8.9229 2.35345 17 2.35345C25.0771 2.35345 31.6466 8.9229 31.6466 17C31.6466 25.0771 25.0771 31.6466 17 31.6466C14.3961 31.6466 11.8357 30.9521 9.59574 29.6342Z" fill="#6427FF" stroke="#6427FF" stroke-width="0.5"/>
<path d="M17.0003 19.7584C15.4775 19.7584 14.2416 18.5225 14.2416 16.9998C14.2416 15.477 15.4775 14.2411 17.0003 14.2411C18.523 14.2411 19.7589 15.477 19.7589 16.9998C19.7589 18.5225 18.523 19.7584 17.0003 19.7584Z" fill="#6427FF"/>
<path d="M25.8274 19.7584C24.3046 19.7584 23.0688 18.5225 23.0688 16.9998C23.0688 15.477 24.3046 14.2411 25.8274 14.2411C27.3502 14.2411 28.586 15.477 28.586 16.9998C28.586 18.5225 27.3502 19.7584 25.8274 19.7584Z" fill="#6427FF"/>
<path d="M8.17213 19.7584C6.64937 19.7584 5.41351 18.5225 5.41351 16.9998C5.41351 15.477 6.64937 14.2411 8.17213 14.2411C9.69489 14.2411 10.9307 15.477 10.9307 16.9998C10.9307 18.5225 9.69489 19.7584 8.17213 19.7584Z" fill="#6427FF"/>
</svg>
