<svg width="22" height="6" viewBox="0 0 22 6" fill="none" xmlns="http://www.w3.org/2000/svg">
<path d="M2.4 0.75C1.07452 0.75 0 1.82452 0 3.15C0 4.47548 1.07452 5.55 2.4 5.55C3.72548 5.55 4.8 4.47548 4.8 3.15C4.8 1.82452 3.72548 0.75 2.4 0.75Z" fill="#061B2E"/>
<path d="M10.65 0.75C9.32452 0.75 8.25 1.82452 8.25 3.15C8.25 4.47548 9.32452 5.55 10.65 5.55C11.9755 5.55 13.05 4.47548 13.05 3.15C13.05 1.82452 11.9755 0.75 10.65 0.75Z" fill="#061B2E"/>
<path d="M18.9 0.75C17.5745 0.75 16.5 1.82452 16.5 3.15C16.5 4.47548 17.5745 5.55 18.9 5.55C20.2255 5.55 21.3 4.47548 21.3 3.15C21.3 1.82452 20.2255 0.75 18.9 0.75Z" fill="#061B2E"/>
</svg>
