<svg width="39" height="36" viewBox="0 0 39 36" fill="none" xmlns="http://www.w3.org/2000/svg">
<path d="M32.2125 12.2788C35.521 12.2788 38.2126 9.58722 38.2126 6.27881C38.2126 2.9704 35.521 0.278809 32.2125 0.278809C28.9041 0.278809 26.2125 2.9704 26.2125 6.27881C26.2125 9.58722 28.9041 12.2788 32.2125 12.2788ZM32.2125 1.57343C34.8071 1.57343 36.918 3.68424 36.918 6.27878C36.918 8.87333 34.8071 10.9841 32.2125 10.9841C29.618 10.9841 27.5072 8.87333 27.5072 6.27878C27.5072 3.68424 29.618 1.57343 32.2125 1.57343Z" fill="#061B2E"/>
<path d="M31.0503 10.0204C31.4078 10.0204 31.6976 9.73055 31.6976 9.37306V7.64471H32.8961C34.2389 7.64471 35.3313 6.55231 35.3313 5.20957C35.3313 3.86684 34.2389 2.77441 32.8961 2.77441H31.0503C31.0279 2.77441 31.0058 2.77554 30.9841 2.77776C30.9623 2.77997 30.9409 2.78324 30.9198 2.78757C30.9093 2.78974 30.8988 2.79214 30.8885 2.7948C30.6093 2.86664 30.4029 3.12008 30.4029 3.42174V6.99738V9.37306C30.4029 9.73057 30.6927 10.0204 31.0503 10.0204ZM34.0366 5.20957C34.0366 5.83844 33.525 6.35006 32.8961 6.35006H31.6976V4.06906H32.8961C33.525 4.06906 34.0366 4.5807 34.0366 5.20957Z" fill="#061B2E"/>
<path d="M7.24093 21.7996C7.25336 21.8006 7.26632 21.8013 7.28045 21.8013C7.29474 21.8013 7.30911 21.8007 7.32354 21.7998C7.32507 21.7997 7.32657 21.7998 7.32809 21.7996C7.34276 21.7987 7.35748 21.7971 7.37224 21.7953C7.37473 21.795 7.3772 21.7949 7.3797 21.7946C7.38005 21.7945 7.3804 21.7945 7.38076 21.7944C7.38096 21.7944 7.38117 21.7944 7.38137 21.7944C7.38443 21.7939 7.38749 21.7936 7.39057 21.7931C10.9054 21.3179 14.4318 21.0794 17.9453 21.0774C21.4638 21.079 24.9953 21.3177 28.5152 21.7938C28.5166 21.794 28.518 21.7942 28.5194 21.7944C28.5195 21.7944 28.5196 21.7944 28.5197 21.7944C28.5201 21.7945 28.5206 21.7946 28.521 21.7946C28.5219 21.7947 28.5226 21.7947 28.5234 21.7948C28.556 21.7991 28.5884 21.8013 28.6204 21.8013C28.9817 21.8013 29.2968 21.5346 29.3473 21.1665C29.3702 20.9999 29.3351 20.8387 29.2578 20.703C29.257 20.7017 29.2566 20.7005 29.2558 20.6992L26.9077 16.6319C26.4866 15.9027 26.1465 15.3639 25.6025 15.0723C25.0989 14.8024 24.5774 14.8027 23.7127 14.8033L17.9503 14.8033H12.3142L12.1881 14.8033C11.3235 14.8027 10.8019 14.8024 10.2983 15.0723C9.75428 15.3639 9.4142 15.9027 8.99315 16.6319L6.64487 20.6992C6.50475 20.9419 6.51489 21.2431 6.671 21.4758C6.80098 21.6695 7.01317 21.7871 7.24093 21.7996ZM10.2658 17.3666C10.5886 16.8074 10.811 16.4647 10.9925 16.3674C11.1705 16.272 11.575 16.2722 12.1872 16.2726L17.9502 16.2727H23.5865L23.7136 16.2726C24.3262 16.2723 24.7303 16.272 24.9083 16.3674C25.0898 16.4647 25.3122 16.8075 25.635 17.3666L27.2423 20.1505C24.3418 19.8082 21.4088 19.6257 18.4975 19.6066C18.4785 19.6065 17.9637 19.6046 17.9503 19.6046C17.9369 19.6046 17.4222 19.6065 17.4033 19.6066C14.4919 19.6257 11.5589 19.8081 8.65836 20.1506L10.2658 17.3666Z" fill="#061B2E"/>
<path d="M21.2955 25.354H14.6039C13.878 25.354 13.2874 25.9447 13.2874 26.6706V28.0264C13.2874 28.7524 13.878 29.343 14.6039 29.343H21.2955C22.0215 29.343 22.6122 28.7524 22.6122 28.0264V26.6706C22.6121 25.9447 22.0215 25.354 21.2955 25.354ZM21.1427 27.8736H14.7568V26.8234H21.1427V27.8736Z" fill="#061B2E"/>
<path d="M8.14288 22.7476C6.58074 22.7476 5.30988 24.0184 5.30988 25.5805C5.30988 27.1427 6.58077 28.4136 8.14288 28.4136C9.70502 28.4136 10.9759 27.1427 10.9759 25.5805C10.9759 24.0184 9.70502 22.7476 8.14288 22.7476ZM8.14288 26.9442C7.39101 26.9442 6.77929 26.3325 6.77929 25.5805C6.77929 24.8287 7.39101 24.217 8.14288 24.217C8.89478 24.217 9.5065 24.8287 9.5065 25.5805C9.5065 26.3325 8.89478 26.9442 8.14288 26.9442Z" fill="#061B2E"/>
<path d="M27.7574 22.7476C26.1952 22.7476 24.9243 24.0184 24.9243 25.5805C24.9243 27.1427 26.1952 28.4136 27.7574 28.4136C29.3195 28.4136 30.5903 27.1427 30.5903 25.5805C30.5903 24.0184 29.3195 22.7476 27.7574 22.7476ZM27.7574 26.9442C27.0054 26.9442 26.3937 26.3325 26.3937 25.5805C26.3937 24.8287 27.0054 24.217 27.7574 24.217C28.5092 24.217 29.1209 24.8287 29.1209 25.5805C29.1209 26.3325 28.5092 26.9442 27.7574 26.9442Z" fill="#061B2E"/>
<path d="M34.3598 17.1828C34.0658 17.1749 33.7611 17.1712 33.4007 17.1712C33.0959 17.1712 32.7926 17.1738 32.4714 17.1766C32.131 17.1796 31.779 17.1826 31.4042 17.1826H31.3629C30.9921 17.1826 30.6085 17.1826 30.2007 17.3788C30.0559 17.4485 29.9168 17.5379 29.7746 17.6546L28.4425 15.2876C27.8285 14.1866 27.2974 13.458 26.4352 13.0344C26.4074 13.0208 26.3792 13.0074 26.3507 12.9944C26.2738 12.9593 26.1952 12.9269 26.1143 12.8969C25.3325 12.6075 24.3436 12.5513 22.7807 12.5513H18.9196H16.9798H13.1187C11.3941 12.5513 10.3684 12.6198 9.54873 12.9944C9.37863 13.0722 9.22131 13.1611 9.07378 13.2618C9.0729 13.2623 9.07202 13.2629 9.07114 13.2635C9.06717 13.2662 9.06329 13.2691 9.05932 13.2718C8.42301 13.711 7.9689 14.3694 7.45822 15.2852L6.12957 17.6462C5.9908 17.5336 5.85491 17.4469 5.71352 17.3789C5.30567 17.1826 4.92215 17.1826 4.5513 17.1826H4.51004C4.13516 17.1826 3.78318 17.1796 3.44277 17.1766C3.12161 17.1738 2.81827 17.1712 2.51342 17.1712C2.15309 17.1712 1.84836 17.1749 1.55454 17.1829C0.748594 17.2046 0.14769 17.6941 0.0236716 18.43C-0.0541194 18.8916 0.0622585 19.3938 0.351381 19.8439C0.639651 20.2928 1.07992 20.6462 1.59104 20.8391L3.32616 21.494C2.73918 22.7848 2.69607 24.2411 2.74685 26.6095C2.74782 26.6552 2.75764 32.2451 2.75764 32.2451C2.75764 32.4392 2.77245 32.63 2.80099 32.8162C3.07686 34.6167 4.6362 36.0001 6.51259 36.0001C8.58306 36.0001 10.2675 34.3156 10.2675 32.2451V31.8035H16.9798H18.9196H25.6319V32.2451C25.6319 34.3156 27.3164 36.0001 29.3868 36.0001C31.4573 36.0001 33.1418 34.3156 33.1418 32.2451C33.1418 32.2451 33.1462 26.8922 33.1482 26.8016C33.2052 24.3221 33.176 22.823 32.5754 21.4988L34.3233 20.8391C34.8344 20.6462 35.2746 20.2927 35.5629 19.8439C35.852 19.3937 35.9684 18.8916 35.8905 18.43C35.7665 17.6941 35.1656 17.2046 34.3598 17.1828ZM1.51707 18.9158C1.46391 18.7882 1.46679 18.7025 1.47331 18.6699C1.49227 18.663 1.53141 18.6534 1.59427 18.6517C1.87464 18.6441 2.1667 18.6406 2.51339 18.6406C2.81186 18.6406 3.11209 18.6432 3.42996 18.6459C3.77351 18.6489 4.12872 18.652 4.50998 18.652H4.55124C4.84918 18.652 4.9801 18.6566 5.07647 18.7029C5.14988 18.7382 5.2399 18.8102 5.3481 18.9205C4.83537 19.3963 4.43739 19.8166 4.11709 20.2219L2.10986 19.4643C1.83914 19.3621 1.61755 19.1571 1.51707 18.9158ZM29.3869 34.5306C28.1266 34.5306 27.1014 33.5053 27.1014 32.2451V31.0688C27.1014 30.6884 26.8123 30.3755 26.4418 30.3379C26.4171 30.3354 26.392 30.3341 26.3667 30.3341H18.9196H16.9798H9.53277C9.50741 30.3341 9.48234 30.3354 9.45765 30.3379C9.08718 30.3755 8.79806 30.6884 8.79806 31.0688V32.2451C8.79806 32.442 8.77302 32.6332 8.72597 32.8156C8.48134 33.7642 7.64137 34.4762 6.63002 34.5276C6.59111 34.5296 6.55197 34.5306 6.51259 34.5306C5.25233 34.5306 4.22703 33.5053 4.22703 32.2451V27.0679C4.22703 27.0619 4.22697 27.0559 4.22679 27.0499C4.19758 25.8594 4.18098 24.9353 4.22509 24.1742C4.23734 23.9628 4.25427 23.7639 4.27693 23.5755C4.28146 23.5378 4.28622 23.5005 4.29121 23.4636C4.3916 22.7225 4.58768 22.1417 4.94619 21.5772C4.96338 21.5565 4.97981 21.5349 4.99489 21.5121C5.33021 21.0044 5.8115 20.4787 6.55538 19.8076C6.60837 19.7598 6.65359 19.7042 6.69062 19.6433C6.69488 19.6363 6.6995 19.6295 6.70353 19.6224L8.74017 16.0033C9.4275 14.7708 9.80079 14.2994 10.8902 14.1229C11.4223 14.0366 12.1251 14.0206 13.1187 14.0206H16.9798H18.9196H22.7806C23.1118 14.0206 23.4107 14.0224 23.6817 14.028C25.8113 14.0716 26.2207 14.3493 27.0664 15.8384C27.0972 15.8926 27.1285 15.9483 27.1605 16.0057L29.1958 19.6223C29.2055 19.6397 29.216 19.6566 29.2271 19.673C29.2604 19.7224 29.2996 19.7675 29.3439 19.8075C30.7552 21.0808 31.3481 21.903 31.5752 23.2469C31.6051 23.4237 31.6286 23.6096 31.6469 23.8067C31.6541 23.8856 31.6606 23.9662 31.6663 24.0488C31.7201 24.8333 31.7033 25.7932 31.6725 27.0498C31.6723 27.0558 31.6723 32.245 31.6723 32.245C31.6723 33.5053 30.6471 34.5306 29.3869 34.5306ZM34.3971 18.9159C34.2966 19.1571 34.075 19.3622 33.8044 19.4643L31.7971 20.2219C31.4769 19.8167 31.0788 19.3965 30.566 18.9205C30.6743 18.8102 30.7643 18.7382 30.8376 18.7029C30.934 18.6566 31.0649 18.652 31.3629 18.652H31.4041C31.7854 18.652 32.1406 18.6489 32.4841 18.6459C32.802 18.6432 33.1022 18.6406 33.4007 18.6406C33.7474 18.6406 34.0395 18.6441 34.32 18.6517C34.3827 18.6534 34.4219 18.663 34.4408 18.6699C34.4474 18.7026 34.4503 18.7882 34.3971 18.9159Z" fill="#061B2E"/>
</svg>
