<svg width="32" height="32" viewBox="0 0 32 32" fill="none" xmlns="http://www.w3.org/2000/svg">
<path fill-rule="evenodd" clip-rule="evenodd" d="M16.0142 30.2269C15.0758 30.5792 12.1404 31.5993 9.35039 31.7138C6.86786 31.8155 4.53106 31.1707 3.49881 29.0525C2.78895 27.5954 2.72142 26.3744 3.0136 25.3329C3.30188 24.3049 3.95557 23.4419 4.771 22.7008C6.17044 21.4282 8.08388 20.5509 8.90997 19.6267C9.6703 18.7765 10.4345 17.4982 11.4608 16.4312C12.611 15.2354 14.0645 14.2952 16.0981 14.2952C18.1413 14.2952 19.5556 15.4277 20.7358 16.8232C21.7382 18.0087 22.5468 19.3953 23.5613 20.1521C24.3846 20.7667 25.7055 21.3767 26.8276 22.2116C27.7931 22.9297 28.6128 23.8073 28.9863 24.9259C29.3617 26.0513 29.3084 27.439 28.4112 29.1904C27.2286 31.4987 24.8858 32.1308 22.4633 31.9786C19.7259 31.8066 16.9192 30.6353 16.0142 30.2269ZM14.4925 29.1925C13.8647 28.6938 13.0674 28.0081 12.3434 27.2315C11.2695 26.0787 10.3848 24.7176 10.2838 23.4568C10.115 21.3475 11.3328 19.5891 13.4883 19.5891C14.3841 19.5891 15.1078 20.0341 15.6413 20.5943C15.7821 20.7422 15.909 20.8975 16.0217 21.0514C16.1393 20.8968 16.2723 20.7408 16.4201 20.5918C16.965 20.043 17.7037 19.5983 18.6243 19.5837C19.1909 19.5745 20.2282 19.84 20.9437 20.7998C21.3731 21.3756 21.7005 22.2156 21.6756 23.4312C21.6497 24.7102 20.8001 26.0851 19.7327 27.245C18.9908 28.0511 18.1594 28.7571 17.5189 29.2579C18.7064 29.7289 20.649 30.3808 22.5561 30.5006C24.3824 30.6151 26.2013 30.2554 27.0928 28.515C27.7515 27.2297 27.8567 26.2209 27.5812 25.3948C27.3036 24.5623 26.6623 23.9346 25.9436 23.4C24.8207 22.5646 23.4995 21.9543 22.6755 21.3393C21.5832 20.5246 20.6842 19.0562 19.6047 17.7794C18.7025 16.7127 17.6603 15.776 16.0981 15.776C14.5262 15.776 13.4172 16.5335 12.5282 17.4577C11.5155 18.5106 10.7644 19.775 10.0144 20.6142C9.16377 21.5654 7.20767 22.4868 5.76735 23.7966C5.16236 24.3465 4.6537 24.9704 4.43971 25.7332C4.22928 26.4825 4.31956 27.3555 4.83036 28.4038C5.6042 29.992 7.42806 30.3101 9.28996 30.234C11.2254 30.1548 13.2359 29.6034 14.4925 29.1925ZM16.0441 28.5164C16.6227 28.0966 17.7101 27.256 18.6428 26.2422C19.4501 25.3649 20.1752 24.3686 20.1951 23.401C20.2321 21.5793 19.1579 21.0564 18.6482 21.0646C18.1512 21.0724 17.7652 21.339 17.4709 21.6354C16.9526 22.1576 16.697 22.8028 16.697 22.8028C16.5851 23.0879 16.3092 23.2748 16.0028 23.2727C15.6964 23.2706 15.4231 23.08 15.315 22.7932C15.315 22.7932 15.0672 22.1391 14.5689 21.6155C14.297 21.3301 13.9447 21.0703 13.4883 21.0703C12.2644 21.0703 11.6641 22.1409 11.76 23.3388C11.8383 24.3149 12.5954 25.329 13.4272 26.2216C14.3777 27.2418 15.465 28.0906 16.0441 28.5164ZM1.73075 9.19577C3.04417 8.62455 4.27655 8.90821 5.32409 9.71154C6.24829 10.4203 7.0239 11.5621 7.54003 12.8247C8.15498 14.3279 8.39811 15.9936 8.15711 17.2523C7.96232 18.27 7.4565 19.042 6.66667 19.4202C4.10131 20.6483 1.78407 18.6112 0.683209 15.8873C0.0643534 14.356 -0.161719 12.6498 0.11945 11.3676C0.344811 10.3389 0.887954 9.56225 1.73075 9.19577ZM2.32152 10.554C1.89782 10.7381 1.67956 11.1675 1.56617 11.6851C1.33903 12.7209 1.55622 14.0951 2.05635 15.3324C2.46833 16.3515 3.07439 17.285 3.83081 17.8391C4.46779 18.3059 5.21888 18.4711 6.02719 18.0844C6.41713 17.8974 6.60624 17.4766 6.70257 16.9736C6.89807 15.9524 6.66809 14.6052 6.16938 13.3852C5.7574 12.3782 5.16023 11.4522 4.423 10.8867C3.80877 10.4161 3.09109 10.2191 2.32152 10.554ZM9.74317 0.0995534C10.8469 -0.129718 11.8233 0.218988 12.6309 0.964743C13.6699 1.92448 14.4196 3.60439 14.7356 5.40764C15.0466 7.18351 14.9396 9.06709 14.3599 10.4473C13.917 11.502 13.2018 12.2776 12.2293 12.61C10.7523 13.1147 9.52634 12.5716 8.61281 11.405C7.83684 10.4143 7.30009 8.92953 7.0662 7.3584C6.78859 5.4933 6.93788 3.51481 7.53221 2.13705C8.00497 1.04117 8.75997 0.303587 9.74317 0.0995534ZM10.0439 1.54947C9.50608 1.66109 9.15062 2.12425 8.8922 2.72391C8.38958 3.8884 8.29645 5.56368 8.53141 7.1405C8.72442 8.43722 9.13818 9.67387 9.77872 10.4918C10.2817 11.1337 10.9375 11.4864 11.7505 11.2084C12.3348 11.0086 12.7283 10.5078 12.9946 9.87363C13.4787 8.72123 13.5363 7.14619 13.2764 5.66286C13.061 4.43332 12.6263 3.26137 11.9911 2.45199C11.4767 1.79616 10.8291 1.38667 10.0439 1.54947ZM21.542 0.000735568C22.5906 0.0220632 23.4252 0.636298 23.9893 1.66429C24.6824 2.92759 24.9554 4.87018 24.7688 6.7662C24.6131 8.34587 24.1411 9.88572 23.3843 10.9702C22.5163 12.215 21.2914 12.8993 19.7444 12.6021C18.7822 12.4169 18.0329 11.7547 17.537 10.7662C16.9075 9.51249 16.6913 7.69786 16.8989 5.92056C17.1072 4.13616 17.7424 2.40045 18.731 1.30101C19.4792 0.468521 20.4251 -0.0216584 21.542 0.000735568ZM21.5124 1.48158C20.6494 1.46416 19.9815 1.9938 19.4771 2.75235C18.8813 3.64847 18.5138 4.86058 18.3698 6.09225C18.1985 7.56137 18.3403 9.06567 18.8604 10.1018C19.1309 10.6404 19.4995 11.0467 20.0238 11.1476C20.9462 11.325 21.6521 10.865 22.1697 10.1232C22.7985 9.22172 23.1653 7.93353 23.2947 6.62082C23.4501 5.04613 23.2666 3.42595 22.6908 2.37698C22.4086 1.86263 22.0367 1.49225 21.5124 1.48158ZM25.2945 19.3605C24.5577 18.9368 24.0767 18.1452 23.8802 17.1264C23.6321 15.8422 23.8354 14.1711 24.3839 12.6512C24.9444 11.0978 25.8675 9.71474 26.9656 9.012C27.8158 8.46779 28.7706 8.29539 29.7794 8.65974C30.8635 9.0511 31.5158 9.86759 31.8112 10.9173C32.1944 12.2797 31.9317 14.0809 31.2435 15.6954C30.5532 17.3145 29.4406 18.7299 28.2345 19.363C27.284 19.8621 26.2717 19.9218 25.2945 19.3605ZM26.0325 18.0762C26.6855 18.4516 27.3612 18.2429 27.9715 17.7776C28.7468 17.1865 29.4193 16.1976 29.881 15.1145C30.3438 14.029 30.5966 12.8435 30.485 11.8415C30.3936 11.0225 30.0495 10.3318 29.2764 10.0524C28.5772 9.80005 27.9349 10.0571 27.3836 10.5511C26.6997 11.1636 26.1501 12.1198 25.7769 13.1538C25.324 14.4089 25.1296 15.7853 25.3344 16.846C25.4396 17.3909 25.6383 17.8498 26.0325 18.0762Z" fill="#061B2E"/>
</svg>
