<svg width="23" height="32" viewBox="0 0 23 32" fill="none" xmlns="http://www.w3.org/2000/svg">
<path d="M11.2695 0C5.04755 0 0 5.04386 0 11.2695C0 13.2392 0.508068 15.0911 1.39535 16.7H1.37326L9.67538 31.0805C10.3823 32.3065 12.1568 32.3065 12.8637 31.0805L21.1658 16.7H21.1437C22.031 15.0874 22.5391 13.2392 22.5391 11.2695C22.5391 5.04755 17.4952 0 11.2695 0ZM11.2695 16.9025C8.15854 16.9025 5.63661 14.3805 5.63661 11.2695C5.63661 8.15854 8.15854 5.63661 11.2695 5.63661C14.3805 5.63661 16.9025 8.15854 16.9025 11.2695C16.9025 14.3805 14.3805 16.9025 11.2695 16.9025Z" fill="#6427FF"/>
</svg>
