<svg width="21" height="24" viewBox="0 0 21 24" fill="none" xmlns="http://www.w3.org/2000/svg">
<path d="M10.528 0C7.11487 0 4.3125 2.76644 4.3125 6.21551C4.3125 9.66458 7.07894 12.431 10.528 12.431C13.9412 12.431 16.7435 9.66458 16.7435 6.21551C16.7435 2.76644 13.9412 0 10.528 0ZM10.528 11.0298C7.86935 11.0298 5.71368 8.87417 5.71368 6.21551C5.71368 3.55685 7.86935 1.40118 10.528 1.40118C13.1867 1.40118 15.3423 3.55685 15.3423 6.21551C15.3423 8.87417 13.1867 11.0298 10.528 11.0298Z" fill="#6427FF"/>
<path d="M10.528 11.0298C7.86935 11.0298 5.71368 8.87417 5.71368 6.21551C5.71368 3.55685 7.86935 1.40118 10.528 1.40118C13.1867 1.40118 15.3423 3.55685 15.3423 6.21551C15.3423 8.87417 13.1867 11.0298 10.528 11.0298Z" fill="#6427FF"/>
<path d="M0.682628 23.9996H20.0118C20.407 23.9996 20.6944 23.6763 20.6944 23.317V19.7961C20.6944 16.5985 18.1076 14.0117 14.91 14.0117H5.78438C2.5868 14.0117 0 16.5985 0 19.7961V23.317C0 23.6763 0.32335 23.9996 0.682628 23.9996ZM1.36526 19.7961C1.36526 17.353 3.34129 15.377 5.78438 15.377H14.946C17.3891 15.377 19.3651 17.353 19.3651 19.7961V22.6344H1.40118V19.7961H1.36526Z" fill="#6427FF"/>
<path d="M1.36526 19.7961C1.36526 17.353 3.34129 15.377 5.78438 15.377H14.946C17.3891 15.377 19.3651 17.353 19.3651 19.7961V22.6344H1.40118V19.7961H1.36526Z" fill="#6427FF"/>
</svg>
