<svg width="41" height="28" viewBox="0 0 41 28" fill="none" xmlns="http://www.w3.org/2000/svg">
<path fill-rule="evenodd" clip-rule="evenodd" d="M32.6569 1.32038C32.9197 0.531865 33.6577 0 34.4889 0H36.959C37.7903 0 38.5282 0.531865 38.791 1.32038L40.0784 5.18245C40.4951 6.43286 39.5646 7.72414 38.2465 7.72414H36.6895V26.069H37.655C38.1883 26.069 38.6205 26.5013 38.6205 27.0345C38.6205 27.5676 38.1883 28 37.655 28H33.7929C33.2598 28 32.8274 27.5676 32.8274 27.0345C32.8274 26.5013 33.2598 26.069 33.7929 26.069H34.7584V7.72414H33.2014C31.8835 7.72414 30.9527 6.43286 31.3697 5.18245L32.6569 1.32038ZM35.7239 5.7931H38.2465L36.959 1.93103H34.4889L33.2014 5.7931H35.7239ZM3.86207 13.5172C3.86207 11.9176 5.15889 10.6207 6.75862 10.6207H26.069C27.6686 10.6207 28.9655 11.9176 28.9655 13.5172V15.4483H27.0345C27.0345 13.8486 25.7376 12.5517 24.1379 12.5517H20.2759C18.6762 12.5517 17.3793 13.8486 17.3793 15.4483H15.4483C15.4483 13.8486 14.1515 12.5517 12.5517 12.5517H8.68966C7.08993 12.5517 5.7931 13.8486 5.7931 15.4483H3.86207V13.5172ZM30.8966 13.5172V15.6132C32.0216 16.0108 32.8276 17.0837 32.8276 18.3448V25.1034H30.8966V27.0345C30.8966 27.5676 30.4642 28 29.931 28C29.3979 28 28.9655 27.5676 28.9655 27.0345V25.1034H3.86207V27.0345C3.86207 27.5676 3.42979 28 2.89655 28C2.36332 28 1.93103 27.5676 1.93103 27.0345V25.1034H0V18.3448C0 17.0837 0.806014 16.0108 1.93103 15.6132V13.5172C1.93103 10.8511 4.09242 8.68966 6.75862 8.68966H26.069C28.7351 8.68966 30.8966 10.8511 30.8966 13.5172ZM26.069 17.3793H29.931C30.4642 17.3793 30.8966 17.8117 30.8966 18.3448V23.1724H1.93103V18.3448C1.93103 17.8117 2.36332 17.3793 2.89655 17.3793H6.75862H14.4828H18.3448H26.069ZM13.5172 15.4483H7.72414C7.72414 14.9151 8.15642 14.4828 8.68966 14.4828H12.5517C13.085 14.4828 13.5172 14.9151 13.5172 15.4483ZM25.1035 15.4483H19.3103C19.3103 14.9151 19.7427 14.4828 20.2759 14.4828H24.1379C24.6711 14.4828 25.1035 14.9151 25.1035 15.4483Z" fill="#061B2E"/>
</svg>
