<svg width="16" height="16" viewBox="0 0 16 16" fill="none" xmlns="http://www.w3.org/2000/svg">
<path d="M15.9987 1.33807L16 7.08735C16 7.44559 15.861 7.77844 15.6083 8.03242L8.03175 15.609C7.51042 16.1303 6.66293 16.1303 6.14161 15.609L0.390994 9.85839C-0.130331 9.33706 -0.130331 8.48958 0.390994 7.96825L7.96758 0.391662C8.22023 0.13902 8.55575 0 8.91265 0H14.6633C15.3985 0.00267346 15.9973 0.601529 15.9987 1.33673V1.33807ZM15.1071 7.08735V1.33807C15.1111 1.09879 14.9012 0.890263 14.6646 0.891599L8.91265 0.892936C8.78165 0.892936 8.69076 0.930365 8.59852 1.02394L1.02193 8.60053C0.849492 8.7743 0.849492 9.05769 1.02193 9.23013L6.77255 14.9807C6.94498 15.1532 7.22971 15.1532 7.40215 14.9807L14.9787 7.40415C15.0723 7.31058 15.1084 7.22236 15.1084 7.09002L15.1071 7.08735Z" fill="#6F7276"/>
<path d="M13.1782 2.82194C13.7142 3.35797 13.7142 4.23353 13.1782 4.76822C12.6408 5.30559 11.7692 5.30559 11.2319 4.76822C10.6945 4.23086 10.6945 3.35931 11.2319 2.82194C11.7679 2.28591 12.6435 2.28591 13.1782 2.82194ZM12.5486 3.45154C12.3574 3.26039 12.0526 3.26039 11.8628 3.45154C11.6743 3.64136 11.6743 3.94881 11.8628 4.13729C12.0513 4.32577 12.3601 4.32577 12.5486 4.13729C12.7397 3.94613 12.7397 3.6427 12.5486 3.45154Z" fill="#6F7276"/>
</svg>
