<svg width="51" height="56" viewBox="0 0 51 56" fill="none" xmlns="http://www.w3.org/2000/svg">
<path d="M37.3333 13.333C36.5969 13.333 36 13.9299 36 14.6663V21.333H14.6667V14.6663C14.6667 13.9299 14.0698 13.333 13.3333 13.333C12.5969 13.333 12 13.9299 12 14.6663V21.333C12 22.8059 13.1938 23.9997 14.6667 23.9997H36C37.4729 23.9997 38.6667 22.8059 38.6667 21.333V14.6663C38.6667 13.9299 38.0698 13.333 37.3333 13.333Z" fill="#6427FF"/>
<path d="M31.9333 6.6L25.3333 0L18.7344 6.59893C18.2135 7.11976 18.2135 7.96352 18.7344 8.48435C19.2552 9.00517 20.099 9.00517 20.6198 8.48435L24.0001 5.10408V17.3331C24.0001 18.0696 24.5969 18.6665 25.3334 18.6665C26.0698 18.6665 26.6667 18.0696 26.6667 17.3331V5.10408L30.048 8.48435C30.5689 9.00517 31.4126 9.00517 31.9335 8.48435C32.4543 7.96352 32.4543 7.11976 31.9335 6.59893L31.9333 6.6Z" fill="#6427FF"/>
<path d="M2.324 40.242V46.416C2.324 47.284 2.534 47.928 2.954 48.348C3.38333 48.768 3.976 48.978 4.732 48.978C5.47867 48.978 6.062 48.768 6.482 48.348C6.91133 47.928 7.126 47.284 7.126 46.416V40.242H8.4V46.402C8.4 47.214 8.23667 47.9 7.91 48.46C7.58333 49.0107 7.14 49.4213 6.58 49.692C6.02933 49.9627 5.40867 50.098 4.718 50.098C4.02733 50.098 3.402 49.9627 2.842 49.692C2.29133 49.4213 1.85267 49.0107 1.526 48.46C1.20867 47.9 1.05 47.214 1.05 46.402V40.242H2.324ZM11.7993 43.742C12.0513 43.3033 12.4246 42.9393 12.9193 42.65C13.4233 42.3513 14.0066 42.202 14.6693 42.202C15.3506 42.202 15.9666 42.3653 16.5173 42.692C17.0773 43.0187 17.5159 43.4807 17.8333 44.078C18.1506 44.666 18.3093 45.352 18.3093 46.136C18.3093 46.9107 18.1506 47.6013 17.8333 48.208C17.5159 48.8147 17.0773 49.286 16.5173 49.622C15.9666 49.958 15.3506 50.126 14.6693 50.126C14.0159 50.126 13.4373 49.9813 12.9333 49.692C12.4386 49.3933 12.0606 49.0247 11.7993 48.586V53.64H10.5253V42.328H11.7993V43.742ZM17.0073 46.136C17.0073 45.5573 16.8906 45.0533 16.6573 44.624C16.4239 44.1947 16.1066 43.868 15.7053 43.644C15.3133 43.42 14.8793 43.308 14.4033 43.308C13.9366 43.308 13.5026 43.4247 13.1013 43.658C12.7093 43.882 12.3919 44.2133 12.1493 44.652C11.9159 45.0813 11.7993 45.5807 11.7993 46.15C11.7993 46.7287 11.9159 47.2373 12.1493 47.676C12.3919 48.1053 12.7093 48.4367 13.1013 48.67C13.5026 48.894 13.9366 49.006 14.4033 49.006C14.8793 49.006 15.3133 48.894 15.7053 48.67C16.1066 48.4367 16.4239 48.1053 16.6573 47.676C16.8906 47.2373 17.0073 46.724 17.0073 46.136ZM21.2602 39.64V50H19.9862V39.64H21.2602ZM26.7775 50.126C26.0588 50.126 25.4055 49.9627 24.8175 49.636C24.2388 49.3093 23.7815 48.8473 23.4455 48.25C23.1188 47.6433 22.9555 46.9433 22.9555 46.15C22.9555 45.366 23.1235 44.6753 23.4595 44.078C23.8048 43.4713 24.2715 43.0093 24.8595 42.692C25.4475 42.3653 26.1055 42.202 26.8335 42.202C27.5615 42.202 28.2195 42.3653 28.8075 42.692C29.3955 43.0093 29.8575 43.4667 30.1935 44.064C30.5388 44.6613 30.7115 45.3567 30.7115 46.15C30.7115 46.9433 30.5342 47.6433 30.1795 48.25C29.8342 48.8473 29.3628 49.3093 28.7655 49.636C28.1682 49.9627 27.5055 50.126 26.7775 50.126ZM26.7775 49.006C27.2348 49.006 27.6642 48.8987 28.0655 48.684C28.4668 48.4693 28.7888 48.1473 29.0315 47.718C29.2835 47.2887 29.4095 46.766 29.4095 46.15C29.4095 45.534 29.2882 45.0113 29.0455 44.582C28.8028 44.1527 28.4855 43.8353 28.0935 43.63C27.7015 43.4153 27.2768 43.308 26.8195 43.308C26.3528 43.308 25.9235 43.4153 25.5315 43.63C25.1488 43.8353 24.8408 44.1527 24.6075 44.582C24.3742 45.0113 24.2575 45.534 24.2575 46.15C24.2575 46.7753 24.3695 47.3027 24.5935 47.732C24.8268 48.1613 25.1348 48.4833 25.5175 48.698C25.9002 48.9033 26.3202 49.006 26.7775 49.006ZM31.9106 46.136C31.9106 45.352 32.0693 44.666 32.3866 44.078C32.7039 43.4807 33.1379 43.0187 33.6886 42.692C34.2486 42.3653 34.8693 42.202 35.5506 42.202C36.2226 42.202 36.8059 42.3467 37.3006 42.636C37.7953 42.9253 38.1639 43.2893 38.4066 43.728V42.328H39.6946V50H38.4066V48.572C38.1546 49.02 37.7766 49.3933 37.2726 49.692C36.7779 49.9813 36.1993 50.126 35.5366 50.126C34.8553 50.126 34.2393 49.958 33.6886 49.622C33.1379 49.286 32.7039 48.8147 32.3866 48.208C32.0693 47.6013 31.9106 46.9107 31.9106 46.136ZM38.4066 46.15C38.4066 45.5713 38.2899 45.0673 38.0566 44.638C37.8233 44.2087 37.5059 43.882 37.1046 43.658C36.7126 43.4247 36.2786 43.308 35.8026 43.308C35.3266 43.308 34.8926 43.42 34.5006 43.644C34.1086 43.868 33.7959 44.1947 33.5626 44.624C33.3293 45.0533 33.2126 45.5573 33.2126 46.136C33.2126 46.724 33.3293 47.2373 33.5626 47.676C33.7959 48.1053 34.1086 48.4367 34.5006 48.67C34.8926 48.894 35.3266 49.006 35.8026 49.006C36.2786 49.006 36.7126 48.894 37.1046 48.67C37.5059 48.4367 37.8233 48.1053 38.0566 47.676C38.2899 47.2373 38.4066 46.7287 38.4066 46.15ZM41.3715 46.136C41.3715 45.352 41.5302 44.666 41.8475 44.078C42.1649 43.4807 42.5989 43.0187 43.1495 42.692C43.7095 42.3653 44.3349 42.202 45.0255 42.202C45.6229 42.202 46.1782 42.342 46.6915 42.622C47.2049 42.8927 47.5969 43.252 47.8675 43.7V39.64H49.1555V50H47.8675V48.558C47.6155 49.0153 47.2422 49.3933 46.7475 49.692C46.2529 49.9813 45.6742 50.126 45.0115 50.126C44.3302 50.126 43.7095 49.958 43.1495 49.622C42.5989 49.286 42.1649 48.8147 41.8475 48.208C41.5302 47.6013 41.3715 46.9107 41.3715 46.136ZM47.8675 46.15C47.8675 45.5713 47.7509 45.0673 47.5175 44.638C47.2842 44.2087 46.9669 43.882 46.5655 43.658C46.1735 43.4247 45.7395 43.308 45.2635 43.308C44.7875 43.308 44.3535 43.42 43.9615 43.644C43.5695 43.868 43.2569 44.1947 43.0235 44.624C42.7902 45.0533 42.6735 45.5573 42.6735 46.136C42.6735 46.724 42.7902 47.2373 43.0235 47.676C43.2569 48.1053 43.5695 48.4367 43.9615 48.67C44.3535 48.894 44.7875 49.006 45.2635 49.006C45.7395 49.006 46.1735 48.894 46.5655 48.67C46.9669 48.4367 47.2842 48.1053 47.5175 47.676C47.7509 47.2373 47.8675 46.7287 47.8675 46.15Z" fill="#6427FF"/>
</svg>
