<svg width="26" height="32" viewBox="0 0 26 32" fill="none" xmlns="http://www.w3.org/2000/svg">
<path d="M11.3389 25.4613C16.5869 26.4639 21.1309 21.9199 20.1282 16.6719C19.5629 13.7386 17.1949 11.3706 14.2616 10.8053C9.01356 9.8026 4.46956 14.3466 5.47222 19.5946C6.02689 22.5279 8.39489 24.8959 11.3389 25.4613ZM7.65889 16.6826C8.12822 14.9013 9.56822 13.4613 11.3496 12.9919C15.4029 11.9146 19.0189 15.5306 17.9416 19.5839C17.4722 21.3653 16.0322 22.8053 14.2509 23.2746C10.1976 24.3519 6.58156 20.7359 7.65889 16.6826Z" fill="#061B2E"/>
<path d="M23.5093 0H2.09067C0.938667 0 0 0.938667 0 2.09067V27.776C0 28.928 0.938667 29.8667 2.09067 29.8667H2.13333V32H4.26667V29.8667H21.3333V32H23.4667V29.8667H23.5093C24.6613 29.8667 25.6 28.928 25.6 27.776V2.09067C25.6 0.938667 24.6613 0 23.5093 0ZM2.09067 2.13333H7.46667V6.4H2.09067V2.13333ZM23.4667 27.7333L2.13333 27.776L2.10133 8.53333H23.4667V27.7333ZM23.4667 6.4H9.6V2.12267L23.4667 2.09067V6.4Z" fill="#061B2E"/>
</svg>
