<svg width="66" height="64" viewBox="0 0 66 64" fill="none" xmlns="http://www.w3.org/2000/svg">
<path d="M32.9214 63.8693C23.0641 63.8693 15.0449 56.9447 15.0449 48.4342C15.0449 39.924 23.0641 32.999 32.9214 32.999C42.7786 32.999 50.7978 39.9236 50.7978 48.4342C50.7978 56.9443 42.7786 63.8693 32.9214 63.8693ZM32.9214 37.3865C25.4865 37.3865 19.4345 42.3412 19.4345 48.4321C19.4345 54.5229 25.4839 59.4776 32.9214 59.4776C40.3589 59.4776 46.4083 54.5229 46.4083 48.4321C46.4083 42.3412 40.3589 37.3865 32.9214 37.3865Z" fill="#6427FF"/>
<path d="M32.9217 37.4596C26.8696 37.4596 21.9478 32.5378 21.9478 26.4857C21.9478 20.4335 26.8696 15.5117 32.9217 15.5117C38.9738 15.5117 43.8956 20.4335 43.8956 26.4857C43.8956 32.5378 38.9738 37.4596 32.9217 37.4596ZM32.9217 19.9013C29.292 19.9013 26.3373 22.856 26.3373 26.4857C26.3373 30.1153 29.292 33.07 32.9217 33.07C36.5513 33.07 39.5061 30.1153 39.5061 26.4857C39.5061 22.856 36.5513 19.9013 32.9217 19.9013Z" fill="#6427FF"/>
<path d="M51.3031 35.9642C51.3031 34.8723 52.1151 33.9724 53.1933 33.8051C57.8079 33.0863 61.3004 29.7941 61.3004 25.8491C61.3004 21.3799 56.8175 17.7448 51.3006 17.7448C49.9755 17.7448 48.6778 17.9561 47.4707 18.3649C46.4446 18.7106 45.3225 18.3045 44.8067 17.3525C44.1757 16.1865 44.6915 14.6804 45.9453 14.2469C47.638 13.6598 49.4515 13.3525 51.3006 13.3525C59.2348 13.3525 65.6899 18.9548 65.6899 25.8463C65.6899 31.9972 60.5404 37.1251 53.7889 38.1512C52.4775 38.3515 51.3033 37.2897 51.3033 35.9619L51.3031 35.9642Z" fill="#6427FF"/>
<path d="M51.3031 17.5583C46.4608 17.5583 42.5239 13.6214 42.5239 8.77915C42.5239 3.93692 46.4608 0 51.3031 0C56.1453 0 60.0822 3.93692 60.0822 8.77915C60.0822 13.6214 56.1453 17.5583 51.3031 17.5583ZM51.3031 4.38957C48.8833 4.38957 46.9135 6.3594 46.9135 8.77915C46.9135 11.1989 48.8833 13.1687 51.3031 13.1687C53.7228 13.1687 55.6926 11.1989 55.6926 8.77915C55.6926 6.3594 53.7228 4.38957 51.3031 4.38957Z" fill="#6427FF"/>
<path d="M14.6334 35.9642C14.6334 34.8723 13.8214 33.9724 12.7432 33.8051C8.12864 33.0863 4.63616 29.7941 4.63616 25.8491C4.63616 21.3799 9.119 17.7448 14.636 17.7448C15.961 17.7448 17.2587 17.9561 18.4658 18.3649C19.4919 18.7106 20.614 18.3045 21.1298 17.3525C21.7608 16.1865 21.245 14.6804 19.9912 14.2469C18.2985 13.6598 16.4851 13.3525 14.636 13.3525C6.70171 13.3525 0.246582 18.9548 0.246582 25.8463C0.246582 31.9972 5.39608 37.1251 12.1476 38.1512C13.459 38.3515 14.6332 37.2897 14.6332 35.9619L14.6334 35.9642Z" fill="#6427FF"/>
<path d="M14.6336 17.5583C9.79141 17.5583 5.85449 13.6214 5.85449 8.77915C5.85449 3.93692 9.79415 0 14.6336 0C19.4731 0 23.4128 3.93692 23.4128 8.77915C23.4128 13.6214 19.4759 17.5583 14.6336 17.5583ZM14.6336 4.38957C12.2139 4.38957 10.2441 6.3594 10.2441 8.77915C10.2441 11.1989 12.2139 13.1687 14.6336 13.1687C17.0534 13.1687 19.0232 11.1989 19.0232 8.77915C19.0232 6.3594 17.0534 4.38957 14.6336 4.38957Z" fill="#6427FF"/>
<path d="M54.8692 64.0005H53.4975C52.2849 64.0005 51.3027 63.0183 51.3027 61.8057C51.3027 60.593 52.2849 59.6109 53.4975 59.6109H54.8692C58.5071 59.6109 61.4536 56.6644 61.4536 53.0265V44.9223C61.4536 43.7097 62.4358 42.7275 63.6484 42.7275C64.861 42.7275 65.8432 43.7097 65.8432 44.9223V53.0265C65.8432 59.0869 60.9296 64.0005 54.8692 64.0005Z" fill="#6427FF"/>
<path d="M12.7984 64.0005H10.9739C4.91358 64.0005 0 59.0869 0 53.0265V44.9223C0 43.7097 0.982141 42.7275 2.19479 42.7275C3.40743 42.7275 4.38958 43.7097 4.38958 44.9223V53.0265C4.38958 56.6644 7.33607 59.6109 10.9739 59.6109H12.7984C14.011 59.6109 14.9932 60.593 14.9932 61.8057C14.9932 63.0183 14.011 64.0005 12.7984 64.0005Z" fill="#6427FF"/>
<path d="M30.727 6.93555H35.1166C36.3292 6.93555 37.3114 8.14819 37.3114 9.13033C37.3114 10.343 36.3292 11.3251 35.1166 11.3251H30.727C29.5144 11.3251 28.5322 10.1125 28.5322 9.13033C28.5322 7.91769 29.5144 6.93555 30.727 6.93555Z" fill="#6427FF"/>
<path d="M48.6031 48.4339C48.6031 55.7452 41.5825 61.6742 32.9214 61.6742C24.2603 61.6742 17.2397 55.7456 17.2397 48.4339C17.2397 41.1198 24.2603 35.1914 32.9214 35.1914C41.5825 35.1914 48.6031 41.1201 48.6031 48.4339Z" fill="#6427FF"/>
<path d="M41.7009 26.4852C41.7009 31.3329 37.7694 35.2644 32.9217 35.2644C28.074 35.2644 24.1426 31.3329 24.1426 26.4852C24.1426 21.6348 28.074 17.7061 32.9217 17.7061C37.7694 17.7061 41.7009 21.6348 41.7009 26.4852Z" fill="#6427FF"/>
<path d="M57.8875 8.7787C57.8875 12.4138 54.9382 15.3631 51.3031 15.3631C47.668 15.3631 44.7188 12.4138 44.7188 8.7787C44.7188 5.14357 47.668 2.19434 51.3031 2.19434C54.9382 2.19434 57.8875 5.14357 57.8875 8.7787Z" fill="#6427FF"/>
<path d="M21.218 8.7787C21.218 12.4138 18.2715 15.3631 14.6337 15.3631C10.9985 15.3631 8.04932 12.4138 8.04932 8.7787C8.04932 5.14357 10.9985 2.19434 14.6337 2.19434C18.2715 2.19434 21.218 5.14357 21.218 8.7787Z" fill="#6427FF"/>
</svg>
