<svg width="26" height="21" viewBox="0 0 26 21" fill="none" xmlns="http://www.w3.org/2000/svg">
<path fill-rule="evenodd" clip-rule="evenodd" d="M8.96034 13.9231C8.605 14.2784 8.02876 14.2784 7.67228 13.9231C7.31694 13.5678 7.31694 12.9904 7.67228 12.635C10.557 9.75029 15.2412 9.75029 18.1258 12.635C18.4811 12.9904 18.4811 13.5678 18.1258 13.9231C17.7693 14.2784 17.1931 14.2784 16.8377 13.9231C14.6636 11.749 11.1347 11.749 8.96034 13.9231ZM5.25796 10.2195C4.90261 10.576 4.32523 10.576 3.96989 10.2195C3.61455 9.8642 3.61341 9.28682 3.96875 8.93148C8.89769 4.00371 16.9004 4.00371 21.8297 8.93148C22.185 9.28682 22.1838 9.8642 21.8285 10.2195C21.4732 10.576 20.8958 10.576 20.5405 10.2195C16.3232 6.00228 9.47522 6.00228 5.25796 10.2195ZM1.55557 6.51715C1.19909 6.8725 0.622841 6.8725 0.267501 6.51715C-0.0889769 6.16181 -0.0889769 5.58443 0.266362 5.22909C7.23848 -1.74303 18.5599 -1.74303 25.5321 5.22909C25.8874 5.58443 25.8874 6.16181 25.5309 6.51715C25.1756 6.8725 24.5993 6.8725 24.2428 6.51715C17.9824 0.255544 7.81572 0.255544 1.55557 6.51715ZM12.7563 15.4424C14.2904 15.4424 15.5351 16.6871 15.5351 18.2212C15.5351 19.7552 14.2904 21 12.7563 21C11.2223 20.9989 9.9775 19.7541 9.9775 18.2212C9.9775 16.6871 11.2223 15.4424 12.7563 15.4424ZM12.7563 17.2645C12.2279 17.2645 11.7997 17.6928 11.7997 18.2212C11.7997 18.7496 12.2279 19.1778 12.7563 19.1778C13.2847 19.1778 13.713 18.7484 13.713 18.2212C13.713 17.6927 13.2847 17.2645 12.7563 17.2645Z" fill="#061B2E"/>
</svg>
