<svg width="97" height="40" viewBox="0 0 97 40" fill="none" xmlns="http://www.w3.org/2000/svg">
<path d="M28.9155 14.816C28.8035 14.64 28.6995 14.4 28.6035 14.096C28.5075 13.792 28.4595 13.472 28.4595 13.136C28.4595 12.512 28.5955 12.064 28.8675 11.792C29.1555 11.52 29.5235 11.384 29.9715 11.384H40.4355C40.5475 11.56 40.6515 11.8 40.7475 12.104C40.8435 12.408 40.8915 12.728 40.8915 13.064C40.8915 13.688 40.7475 14.136 40.4595 14.408C40.1875 14.68 39.8275 14.816 39.3795 14.816H36.7155V25.904C36.5395 25.952 36.2595 26 35.8755 26.048C35.5075 26.096 35.1395 26.12 34.7715 26.12C34.4035 26.12 34.0755 26.088 33.7875 26.024C33.5155 25.976 33.2835 25.88 33.0915 25.736C32.8995 25.592 32.7555 25.392 32.6595 25.136C32.5635 24.88 32.5155 24.544 32.5155 24.128V14.816H28.9155ZM45.7305 25.976C45.5705 26.024 45.3145 26.072 44.9625 26.12C44.6265 26.168 44.2745 26.192 43.9065 26.192C43.5545 26.192 43.2345 26.168 42.9465 26.12C42.6745 26.072 42.4425 25.976 42.2505 25.832C42.0585 25.688 41.9065 25.496 41.7945 25.256C41.6985 25 41.6505 24.672 41.6505 24.272V17.072C41.6505 16.704 41.7145 16.392 41.8425 16.136C41.9865 15.864 42.1865 15.624 42.4425 15.416C42.6985 15.208 43.0105 15.024 43.3785 14.864C43.7625 14.688 44.1705 14.536 44.6025 14.408C45.0345 14.28 45.4825 14.184 45.9465 14.12C46.4105 14.04 46.8745 14 47.3385 14C48.1065 14 48.7145 14.152 49.1625 14.456C49.6105 14.744 49.8345 15.224 49.8345 15.896C49.8345 16.12 49.8025 16.344 49.7385 16.568C49.6745 16.776 49.5945 16.968 49.4985 17.144C49.1625 17.144 48.8185 17.16 48.4665 17.192C48.1145 17.224 47.7705 17.272 47.4345 17.336C47.0985 17.4 46.7785 17.472 46.4745 17.552C46.1865 17.616 45.9385 17.696 45.7305 17.792V25.976ZM51.4217 11.096C51.4217 10.488 51.6217 9.976 52.0217 9.56C52.4377 9.144 52.9817 8.936 53.6537 8.936C54.3257 8.936 54.8617 9.144 55.2617 9.56C55.6777 9.976 55.8857 10.488 55.8857 11.096C55.8857 11.704 55.6777 12.216 55.2617 12.632C54.8617 13.048 54.3257 13.256 53.6537 13.256C52.9817 13.256 52.4377 13.048 52.0217 12.632C51.6217 12.216 51.4217 11.704 51.4217 11.096ZM55.6937 25.976C55.5177 26.008 55.2537 26.048 54.9017 26.096C54.5657 26.16 54.2217 26.192 53.8697 26.192C53.5177 26.192 53.1977 26.168 52.9097 26.12C52.6377 26.072 52.4057 25.976 52.2137 25.832C52.0217 25.688 51.8697 25.496 51.7577 25.256C51.6617 25 51.6137 24.672 51.6137 24.272V14.504C51.7897 14.472 52.0457 14.432 52.3817 14.384C52.7337 14.32 53.0857 14.288 53.4377 14.288C53.7897 14.288 54.1017 14.312 54.3737 14.36C54.6617 14.408 54.9017 14.504 55.0937 14.648C55.2857 14.792 55.4297 14.992 55.5257 15.248C55.6377 15.488 55.6937 15.808 55.6937 16.208V25.976ZM58.3391 10.376C58.4991 10.328 58.7551 10.28 59.1071 10.232C59.4591 10.168 59.8191 10.136 60.1871 10.136C60.5391 10.136 60.8511 10.16 61.1231 10.208C61.4111 10.256 61.6511 10.352 61.8431 10.496C62.0351 10.64 62.1791 10.84 62.2751 11.096C62.3711 11.336 62.4191 11.656 62.4191 12.056V14.408C62.8191 14.248 63.1951 14.136 63.5471 14.072C63.9151 14.008 64.3151 13.976 64.7471 13.976C65.5151 13.976 66.2431 14.112 66.9311 14.384C67.6191 14.656 68.2271 15.056 68.7551 15.584C69.2831 16.096 69.6991 16.736 70.0031 17.504C70.3071 18.272 70.4591 19.16 70.4591 20.168C70.4591 21.208 70.2991 22.12 69.9791 22.904C69.6751 23.672 69.2431 24.312 68.6831 24.824C68.1231 25.336 67.4351 25.728 66.6191 26C65.8191 26.256 64.9311 26.384 63.9551 26.384C62.8991 26.384 62.0031 26.256 61.2671 26C60.5311 25.76 59.9071 25.456 59.3951 25.088C58.6911 24.592 58.3391 23.952 58.3391 23.168V10.376ZM63.9551 23.168C64.6911 23.168 65.2591 22.92 65.6591 22.424C66.0751 21.912 66.2831 21.16 66.2831 20.168C66.2831 19.16 66.0751 18.408 65.6591 17.912C65.2431 17.416 64.6831 17.168 63.9791 17.168C63.6591 17.168 63.3791 17.2 63.1391 17.264C62.9151 17.328 62.6671 17.424 62.3951 17.552V22.784C62.5711 22.896 62.7791 22.992 63.0191 23.072C63.2751 23.136 63.5871 23.168 63.9551 23.168ZM72.7616 26C72.5056 25.776 72.2976 25.512 72.1376 25.208C71.9936 24.904 71.9216 24.56 71.9216 24.176C71.9216 23.856 71.9936 23.544 72.1376 23.24C72.2976 22.92 72.4896 22.624 72.7136 22.352L76.8416 17.504H72.4256C72.3296 17.328 72.2336 17.104 72.1376 16.832C72.0576 16.56 72.0176 16.264 72.0176 15.944C72.0176 15.384 72.1376 14.984 72.3776 14.744C72.6336 14.488 72.9696 14.36 73.3856 14.36H80.9456C81.2016 14.584 81.4016 14.848 81.5456 15.152C81.7056 15.456 81.7856 15.8 81.7856 16.184C81.7856 16.504 81.7056 16.824 81.5456 17.144C81.4016 17.448 81.2176 17.736 80.9936 18.008L76.9616 22.856H81.6656C81.7616 23.032 81.8496 23.256 81.9296 23.528C82.0256 23.8 82.0736 24.096 82.0736 24.416C82.0736 24.976 81.9456 25.384 81.6896 25.64C81.4496 25.88 81.1216 26 80.7056 26H72.7616ZM85.5682 23.024C85.3922 22.624 85.2002 22.176 84.9922 21.68C84.8002 21.184 84.5922 20.616 84.3682 19.976C84.1602 19.336 83.9362 18.608 83.6962 17.792C83.4722 16.96 83.2322 16.008 82.9762 14.936C83.2002 14.712 83.4962 14.52 83.8642 14.36C84.2482 14.184 84.6642 14.096 85.1122 14.096C85.6722 14.096 86.1362 14.216 86.5042 14.456C86.8722 14.68 87.1442 15.112 87.3202 15.752L89.2162 22.352H89.3122C89.5042 21.808 89.6882 21.216 89.8642 20.576C90.0562 19.936 90.2402 19.28 90.4162 18.608C90.5922 17.92 90.7522 17.24 90.8962 16.568C91.0562 15.88 91.1922 15.208 91.3042 14.552C91.8802 14.248 92.5122 14.096 93.2002 14.096C93.7602 14.096 94.2242 14.216 94.5922 14.456C94.9602 14.696 95.1442 15.112 95.1442 15.704C95.1442 16.136 95.0882 16.64 94.9762 17.216C94.8642 17.776 94.7122 18.376 94.5202 19.016C94.3442 19.656 94.1282 20.32 93.8722 21.008C93.6322 21.68 93.3762 22.344 93.1042 23C92.8322 23.656 92.5522 24.28 92.2642 24.872C91.9762 25.448 91.6962 25.968 91.4242 26.432C90.9762 27.216 90.5602 27.856 90.1762 28.352C89.7922 28.848 89.4242 29.232 89.0722 29.504C88.7202 29.792 88.3682 29.984 88.0162 30.08C87.6642 30.192 87.2962 30.248 86.9122 30.248C86.2402 30.248 85.6962 30.048 85.2802 29.648C84.8642 29.248 84.6162 28.728 84.5362 28.088C85.0482 27.688 85.5602 27.24 86.0722 26.744C86.5842 26.264 87.0482 25.768 87.4642 25.256C87.1922 25.176 86.8962 24.992 86.5762 24.704C86.2722 24.4 85.9362 23.84 85.5682 23.024Z" fill="#1B1B1B"/>
<path d="M16.6309 22.6254L18.7297 24.6934C19.0332 24.9924 19.0332 25.4767 18.7297 25.7757C18.4261 26.0746 17.9345 26.0746 17.631 25.7757L15.5314 23.7076C14.5305 24.4653 13.2771 24.9166 11.9175 24.9166C10.2779 24.9166 8.79285 24.2611 7.71757 23.2027C6.64311 22.1436 5.97754 20.6808 5.97754 19.0657C5.97754 17.4507 6.64311 15.9871 7.71757 14.9288C8.79285 13.8704 10.2779 13.2148 11.9175 13.2148C13.5572 13.2148 15.0422 13.8704 16.1175 14.9288C17.192 15.9871 17.8576 17.4507 17.8576 19.0657C17.8576 20.4041 17.3993 21.6395 16.6309 22.6254ZM15.018 16.011C14.2253 15.2302 13.1291 14.7468 11.9175 14.7468C10.706 14.7468 9.60977 15.2302 8.8171 16.011C8.0236 16.7926 7.53278 17.8723 7.53278 19.0657C7.53278 20.2583 8.0236 21.3389 8.8171 22.1197C9.60977 22.9013 10.706 23.3847 11.9175 23.3847C13.1291 23.3847 14.2253 22.9013 15.018 22.1197C15.8115 21.3389 16.3023 20.2583 16.3023 19.0657C16.3023 17.8723 15.8115 16.7926 15.018 16.011Z" fill="#6427FF"/>
<path d="M16.6309 22.6254L18.7297 24.6934C19.0332 24.9924 19.0332 25.4767 18.7297 25.7757C18.4261 26.0746 17.9345 26.0746 17.631 25.7757L15.5314 23.7076C14.5305 24.4653 13.2771 24.9166 11.9175 24.9166C10.2779 24.9166 8.79285 24.2611 7.71757 23.2027C6.64311 22.1436 5.97754 20.6808 5.97754 19.0657C5.97754 17.4507 6.64311 15.9871 7.71757 14.9288C8.79285 13.8704 10.2779 13.2148 11.9175 13.2148C13.5572 13.2148 15.0422 13.8704 16.1175 14.9288C17.192 15.9871 17.8576 17.4507 17.8576 19.0657C17.8576 20.4041 17.3993 21.6395 16.6309 22.6254ZM15.018 16.011C14.2253 15.2302 13.1291 14.7468 11.9175 14.7468C10.706 14.7468 9.60977 15.2302 8.8171 16.011C8.0236 16.7926 7.53278 17.8723 7.53278 19.0657C7.53278 20.2583 8.0236 21.3389 8.8171 22.1197C9.60977 22.9013 10.706 23.3847 11.9175 23.3847C13.1291 23.3847 14.2253 22.9013 15.018 22.1197C15.8115 21.3389 16.3023 20.2583 16.3023 19.0657C16.3023 17.8723 15.8115 16.7926 15.018 16.011Z" stroke="#6427FF"/>
<path fill-rule="evenodd" clip-rule="evenodd" d="M22.1312 19.5871H22.2492C22.6141 19.5871 22.964 19.4444 23.222 19.1902C23.7593 18.661 23.7593 17.8029 23.222 17.2737L15.2175 9.38923C13.337 7.53692 10.288 7.53692 8.40752 9.38923L0.402968 17.2737C0.144952 17.5279 0 17.8725 0 18.232C0 18.9804 0.615976 19.5871 1.37582 19.5871H1.49385C4.07743 19.2794 7.45341 19.1255 11.6218 19.1255C15.7902 19.1255 19.2933 19.2794 22.1312 19.5871Z" fill="#6427FF"/>
</svg>
