<svg width="350" height="221" viewBox="0 0 350 221" fill="none" xmlns="http://www.w3.org/2000/svg">
<path d="M184.433 34.0834C162.45 28.9143 146.444 33.9378 128.161 40.2463C119.149 43.3557 110.026 46.6441 100.53 47.8951C93.4413 48.829 86.2803 49.0768 79.1652 49.7837C71.7679 50.5188 64.3737 51.4464 57.1135 53.0783C44.8831 55.8277 23.5811 60.8936 24.888 77.3598C25.4113 83.9537 29.9126 89.9471 29.4582 96.5462C28.8754 105.004 20.9851 111.555 15.816 117.53C8.68055 125.779 2.26351 134.933 3.44049 146.4C4.38948 155.65 10.397 163.777 17.8037 169.398C25.2104 175.019 33.9757 178.508 42.6121 181.952C55.7665 187.199 66.8904 193.343 77.2385 203.098C83.233 208.749 89.6156 214.348 97.3849 217.087C107.825 220.768 121.134 217.565 125.386 206.509C127.703 200.482 128.355 193.465 131.949 187.99C135.652 182.35 143.459 177.604 150.346 178.517C161.563 180.004 165.937 188.326 171.284 197.078C173.895 201.353 176.994 205.289 181.38 207.856C188.902 212.257 196.419 210.541 204.349 208.755C212.918 206.826 221.574 205.267 230.296 204.224C245.095 202.455 259.984 203.247 274.73 205.107C288.732 206.873 309.063 216.079 320.611 203.586C325.67 198.112 326.678 190.618 324.835 183.625C322.195 173.606 316.513 162.483 316.82 152.076C317.272 136.713 324.197 126.487 332.661 114.482C336.714 108.734 339.836 102.347 339.69 95.1548C339.355 78.6082 328.982 65.9041 318.167 54.4958C307.375 43.1126 296.594 30.1424 285.675 20.0488" stroke="#ED725A" stroke-width="0.782566" stroke-miterlimit="10"/>
<path d="M341.625 50.9786C341.625 53.3827 339.677 55.3312 337.273 55.3312C334.869 55.3312 332.92 53.3827 332.92 50.9786C332.92 48.5746 334.869 46.626 337.273 46.626C339.677 46.626 341.625 48.5746 341.625 50.9786Z" stroke="#ED725A" stroke-width="0.782566" stroke-miterlimit="10"/>
<path d="M195.903 198.351C195.903 200.755 193.954 202.703 191.55 202.703C189.146 202.703 187.198 200.755 187.198 198.351C187.198 195.947 189.147 193.998 191.55 193.998C193.954 193.998 195.903 195.947 195.903 198.351Z" stroke="#ED725A" stroke-width="0.782566" stroke-miterlimit="10"/>
<path d="M180.7 8.82749C182.507 8.82749 183.972 10.2925 183.972 12.0991V76.7824C183.972 78.5896 182.507 80.054 180.7 80.054H55.1583C53.3511 80.054 51.8866 78.5891 51.8866 76.7824V12.0991C51.8866 10.2925 53.3516 8.82749 55.1583 8.82749H180.7ZM180.7 8.04492H55.1583C52.9227 8.04492 51.1041 9.86361 51.1041 12.0991V76.7824C51.1041 79.0179 52.9227 80.8366 55.1583 80.8366H180.7C182.936 80.8366 184.754 79.0179 184.754 76.7824V12.0991C184.755 9.86361 182.936 8.04492 180.7 8.04492Z" fill="white"/>
<path d="M180.7 80.0537H55.1582C53.351 80.0537 51.8865 78.5888 51.8865 76.7821V17.5518H183.972V76.7821C183.972 78.5893 182.507 80.0537 180.7 80.0537Z" fill="#AFB9E8"/>
<path d="M59.5698 13.4447C59.5698 14.4787 58.7315 15.3171 57.6974 15.3171C56.6634 15.3171 55.825 14.4787 55.825 13.4447C55.825 12.4107 56.6634 11.5723 57.6974 11.5723C58.7315 11.5723 59.5698 12.4107 59.5698 13.4447Z" stroke="white" stroke-width="0.782566" stroke-miterlimit="10"/>
<path d="M66.8279 13.4447C66.8279 14.4787 65.9895 15.3171 64.9555 15.3171C63.9215 15.3171 63.0831 14.4787 63.0831 13.4447C63.0831 12.4107 63.9215 11.5723 64.9555 11.5723C65.9895 11.5723 66.8279 12.4107 66.8279 13.4447Z" stroke="white" stroke-width="0.782566" stroke-miterlimit="10"/>
<path d="M51.8865 17.5518H183.972" stroke="white" stroke-width="0.782566" stroke-miterlimit="10"/>
<path d="M173.353 70.9821C172.025 69.2213 169.758 67.6009 167.988 68.8133C166.503 69.8307 166.448 72.1278 166.563 74.0372C162.353 68.0772 157.344 62.7907 151.744 58.3979C148.71 56.0179 145.223 53.8178 141.496 54.1047C137.768 54.3917 135.835 59.6218 136.815 63.5571C126.638 50.0818 115.289 40.5236 103.47 32.2529C99.4358 29.4304 94.9595 26.7087 90.1739 25.0997C85.0835 23.388 78.0519 21.382 73.4525 25.3564C71.482 27.0593 70.4553 29.6574 70.1757 32.2466C69.8298 35.4515 70.3718 38.8358 71.2452 41.9238C73.3341 49.3107 76.6845 56.2756 80.5708 62.8366C84.4585 69.3997 93.0099 80.1777 93.0099 80.1777H177.4C176.754 76.8174 175.353 73.6329 173.353 70.9821Z" fill="#909DF4"/>
<path d="M128.975 66.9749C128.975 66.9749 112.773 52.9237 105.824 50.541C98.8745 48.1584 84.5953 51.9856 84.4163 51.9856C84.2369 51.9856 71.6339 80.0558 71.6339 80.0558H123.323L128.975 66.9749Z" fill="#EF9748"/>
<path d="M159.753 105.125C160.935 106.357 162.163 107.545 163.434 108.686C164.66 109.787 166.003 110.769 167.199 111.895C167.494 112.173 167.763 112.478 168.031 112.781C169.009 113.887 169.995 115.005 170.707 116.299C170.802 116.471 170.894 116.649 171.036 116.784C171.179 116.919 171.387 117.005 171.575 116.949C171.77 116.89 171.895 116.7 171.978 116.513C172.322 115.738 172.236 114.838 172.026 114.017C171.89 113.488 171.706 112.973 171.558 112.448C171.436 112.013 171.257 111.544 171.322 111.093C174.793 112.543 177.617 115.171 180.781 117.203C181.429 117.62 182.857 117.775 183.098 117.202C183.416 116.444 178.798 113.022 176.683 110.761C178.278 111.576 179.969 112.429 181.409 113.501C182.406 114.244 183.495 114.877 184.685 115.256C185.353 115.468 186.886 115.783 186.574 114.563C186.481 114.203 186.21 113.92 185.944 113.661C183.876 111.654 181.381 110.236 179.209 108.344C181.654 109.308 183.899 111.037 186.526 111.127C186.782 111.136 187.059 111.122 187.261 110.965C187.568 110.725 187.671 110.392 187.471 110.057C187.271 109.723 186.926 109.507 186.593 109.304C184.155 107.812 181.615 106.164 179.177 104.672C180.488 105.028 181.701 105.67 182.956 106.188C184.213 106.705 185.568 107.106 186.916 106.938C187.35 106.883 187.889 106.604 187.79 106.178C187.743 105.972 187.555 105.834 187.38 105.715C184.417 103.689 181.453 101.664 178.491 99.6383C177.66 99.0701 176.828 98.5015 175.975 97.9652C174.949 97.3193 173.764 96.8398 172.811 96.1131C172.067 95.546 171.168 95.125 170.37 94.6346C168.398 93.4232 166.488 92.1168 164.636 90.7285" fill="#FFCAA3"/>
<path d="M171.388 111.082C170.455 110.671 169.507 110.294 168.548 109.949" stroke="black" stroke-width="0.521711" stroke-miterlimit="10"/>
<path d="M176.823 110.754C175.557 109.888 174.246 109.089 172.896 108.36" stroke="black" stroke-width="0.521711" stroke-miterlimit="10"/>
<path d="M179.215 108.293C178.175 107.634 177.136 106.975 176.096 106.316" stroke="black" stroke-width="0.521711" stroke-miterlimit="10"/>
<path d="M180.36 105.318C179.586 104.892 178.841 104.413 178.132 103.886" stroke="black" stroke-width="0.521711" stroke-miterlimit="10"/>
<path d="M109.554 50.9785C115.954 52.9902 119.166 53.1739 124.891 56.7262C130.975 60.5008 146.026 76.3597 146.026 76.3597C146.026 76.3597 166.336 90.6786 173.948 96.0929L160.274 109.126C145.15 100.085 129.626 89.2909 118.162 75.91" fill="#EF9748"/>
<path d="M86.3331 77.3335C86.3331 77.3335 92.6803 73.9293 95.4735 73.2266C99.3425 72.2536 103.931 71.9787 105.162 72.3533C105.738 72.5286 107.905 73.4191 109.04 74.7458C110.244 75.2728 110.734 75.5367 111.449 75.8378C112.164 76.1388 112.5 76.9808 113.249 77.6225C113.998 78.2642 114.82 80.0516 114.82 80.0516C114.82 80.0516 109.108 80.0709 107.504 80.1241C105.899 80.1774 104.167 83.2408 100.577 84.326" fill="#FFCAA3"/>
<path d="M99.4098 48.4539C95.0066 48.4184 90.7186 47.2712 86.3243 47.2686C78.3426 47.2639 73.7615 51.4511 69.8789 57.2551C66.9391 61.65 64.1709 67.0586 62.0877 71.8839C59.6565 77.5163 56.9332 83.7883 56.2236 89.9393C55.8991 92.7528 56.3035 95.6588 57.6041 98.1593C60.0107 102.785 65.3583 103.593 68.4776 103.94C71.5969 104.287 77.0629 103.233 79.7397 101.573C93.8296 92.8363 103.146 84.0805 103.146 84.0805L87.988 76.3106L80.7164 79.156L89.8995 62.1796" fill="#EF9748"/>
<path d="M89.154 63.5576L80.7169 79.1568" stroke="black" stroke-width="0.521711" stroke-miterlimit="10"/>
<path d="M87.9884 76.3115C83.642 77.9982 79.2952 79.6844 74.9488 81.3711C71.9813 82.5225 69.0722 84.8008 66.7084 86.9189" stroke="black" stroke-width="0.521711" stroke-miterlimit="10"/>
<path d="M82.7806 78.4297L98.4841 88.0928" stroke="black" stroke-width="0.521711" stroke-miterlimit="10"/>
<path d="M124.99 70.8691C122.911 74.3062 120.032 80.0523 120.032 80.0523" stroke="black" stroke-width="0.521711" stroke-miterlimit="10"/>
<path d="M168.403 92.1621L153.169 104.851" stroke="black" stroke-width="0.521711" stroke-miterlimit="10"/>
<path d="M108.453 76.373C109.557 76.6662 110.681 76.888 111.814 77.0367C112.164 77.0826 112.529 77.1264 112.825 77.3179" stroke="black" stroke-width="0.521711" stroke-miterlimit="10"/>
<path d="M109.428 75.0441C109.231 74.9455 109.025 74.8698 108.818 74.7942C107.725 74.3925 106.599 73.985 105.434 74.0153" stroke="black" stroke-width="0.521711" stroke-miterlimit="10"/>
<path d="M105.879 80.7613C106.47 80.3356 107.201 80.1426 107.925 80.0675C109.428 79.9115 111.038 80.2355 112.481 79.6699" stroke="black" stroke-width="0.521711" stroke-miterlimit="10"/>
<path d="M49.4116 91.0293C49.6553 96.9747 53.4491 102.638 58.8546 105.126" stroke="black" stroke-width="0.521711" stroke-miterlimit="10"/>
<path d="M45.2035 90.7715C45.3266 94.6509 46.9283 98.4104 49.4116 100.648" stroke="black" stroke-width="0.521711" stroke-miterlimit="10"/>
<path d="M130.7 53.1377C135.336 57.0615 139.642 61.3755 143.558 66.0187" stroke="black" stroke-width="0.521711" stroke-miterlimit="10"/>
<path d="M130.803 48.4863C134.036 50.8872 136.999 53.6513 139.618 56.7101" stroke="black" stroke-width="0.521711" stroke-miterlimit="10"/>
<path d="M93.3709 56.3663C90.921 55.4862 88.651 54.1767 86.4108 52.8511C85.4608 52.2886 84.5008 51.7127 83.7339 50.9181C82.967 50.1236 82.403 49.0723 82.4249 47.9684C82.4453 46.951 82.9545 46.002 83.5873 45.2049C85.5615 42.7184 88.7522 41.4277 91.9138 41.1407C95.0754 40.8538 98.2474 41.4642 101.337 42.1936C105.982 43.2897 110.724 44.7468 114.308 47.8985C115.316 48.7859 116.229 49.8142 116.793 51.0339C117.57 52.7185 117.628 54.664 117.296 56.4895C116.963 58.3149 116.263 60.0496 115.568 61.7697" fill="#EF9748"/>
<path d="M105.936 38.0156L99.6905 39.8354L99.8303 42.9755L96.6688 48.3695C96.6688 48.3695 104.142 51.2639 106.952 57.1661C110.013 57.621 111.239 55.1397 111.239 55.1397L114.248 47.9292" fill="#FFCAA3"/>
<path d="M120.633 44.2829C121.172 41.1866 121.82 37.8367 121.77 35.3711C121.727 33.2837 121.408 30.1316 120.06 28.4965C118.324 26.3909 115.164 26.357 112.512 26.0612C108.157 25.576 105.147 29.5211 103.858 33.2065C102.868 36.0378 102.949 38.8013 103.866 41.7198C105.065 45.534 109.316 50.6572 114.847 50.0285C117.782 49.6952 120.063 47.5619 120.633 44.2829Z" fill="#FFCAA3"/>
<path d="M115.289 37.5171C115.235 37.9777 114.907 38.3184 114.554 38.2777C114.201 38.237 113.959 37.8306 114.012 37.3694C114.065 36.9087 114.394 36.5681 114.746 36.6088C115.099 36.6495 115.342 37.0559 115.289 37.5171Z" fill="black"/>
<path d="M121.316 38.0893C121.263 38.55 120.933 38.8907 120.581 38.85C120.228 38.8093 119.986 38.4029 120.039 37.9417C120.092 37.481 120.422 37.1403 120.774 37.181C121.126 37.2222 121.369 37.6287 121.316 38.0893Z" fill="black"/>
<path d="M118.644 37.0684C118.51 38.1353 118.62 39.2194 118.622 40.2899C118.623 40.9525 118.647 42.1196 117.786 42.2698C117.221 42.3684 115.992 42.0319 115.992 42.0319" stroke="black" stroke-width="0.521711" stroke-miterlimit="10"/>
<path d="M116.473 43.9245L114.215 42.0234C114.215 42.0234 112.557 44.1906 113.414 44.9758C114.797 46.2451 116.473 43.9245 116.473 43.9245Z" fill="white"/>
<path d="M120.139 29.1559C121.135 30.7142 121.685 31.9679 121.727 36.6429C122.204 36.524 122.687 36.4024 123.116 36.1619C123.544 35.9214 123.919 35.5432 124.044 35.0684C124.277 34.1888 123.622 33.3186 123.586 32.4092C123.56 31.7524 123.861 31.1258 124.217 30.5733C124.492 30.1482 124.813 29.7245 124.879 29.2226C124.972 28.5157 124.529 27.8438 124.001 27.3643C122.822 26.2943 121.242 25.868 119.887 25.0829C119.231 24.7025 118.882 24.1083 118.273 23.6617C117.584 23.1572 116.849 22.718 116.079 22.3507C114.302 21.5024 112.353 21.0443 110.389 20.9608C106.581 20.7981 102.82 22.2197 100.165 24.8794C96.6561 28.3963 95.2474 35.1034 97.4491 38.9875C98.6902 41.1766 99.8296 42.9755 99.8296 42.9755C99.9705 43.1993 103.007 40.4733 103.193 40.1029C103.381 39.7273 103.452 39.3063 103.568 38.9019C103.961 37.5241 105.331 37.293 106.505 36.8626C108.218 36.2355 109.074 34.7105 109.406 32.9894C109.597 32.0002 109.625 30.9871 109.653 29.9802C109.647 30.2055 111.031 30.6918 111.238 30.7559C113.28 31.3857 115.588 31.4968 117.661 30.9391C118.273 30.7747 118.925 30.564 119.408 30.1461C119.541 30.0318 120.359 29.3802 120.139 29.1559Z" fill="#1E1611"/>
<path d="M107.38 47.2627C107.489 47.342 109.657 49.71 113.805 50.0805" stroke="black" stroke-width="0.521711" stroke-miterlimit="10"/>
<path d="M111.634 34.239C112.003 33.5164 112.742 32.9947 113.547 32.8893C114.351 32.7839 115.199 33.0975 115.742 33.7005" stroke="black" stroke-width="0.521711" stroke-miterlimit="10"/>
<path d="M119.302 34.3383C119.575 33.7263 120.156 33.3355 120.662 33.4221C121.169 33.5087 121.551 34.0712 121.582 34.7269" stroke="black" stroke-width="0.521711" stroke-miterlimit="10"/>
<path d="M117.459 38.7044C116.932 40.2726 115.263 41.1058 113.733 40.5653C112.203 40.0248 111.39 38.3146 111.918 36.7464C112.445 35.1781 114.113 34.3449 115.644 34.8854C117.174 35.4259 117.987 37.1361 117.459 38.7044Z" stroke="#572A2F" stroke-width="0.521711" stroke-miterlimit="10"/>
<path d="M123.083 39.4377C122.799 41.0712 121.746 42.245 120.731 42.0598C119.716 41.8746 119.122 40.4003 119.406 38.7673C119.69 37.1338 120.742 35.96 121.758 36.1452C122.773 36.3304 123.367 37.8042 123.083 39.4377Z" stroke="#572A2F" stroke-width="0.521711" stroke-miterlimit="10"/>
<path d="M119.674 37.9007L117.613 37.5146" stroke="#572A2F" stroke-width="0.521711" stroke-miterlimit="10"/>
<path d="M112.035 36.4512L105.824 36.9254" stroke="#572A2F" stroke-width="0.521711" stroke-miterlimit="10"/>
<path d="M107.599 38.0443C107.568 36.5386 105.536 35.358 104.2 35.838C100.986 36.992 102.068 42.7475 105.055 43.2995C105.899 43.4555 107.112 43.1231 107.411 42.1663" fill="#FFCAA3"/>
<path d="M103.966 38.4053L106.728 40.9074" stroke="black" stroke-width="0.521711" stroke-miterlimit="10"/>
<path d="M106.18 36.1885C106.853 36.5933 107.399 37.2152 107.723 37.9487" stroke="black" stroke-width="0.521711" stroke-miterlimit="10"/>
<path d="M102.361 40.585C102.775 41.8157 103.621 43.1184 104.96 43.3401C105.889 43.494 106.953 43.0871 107.333 42.123" stroke="black" stroke-width="0.521711" stroke-miterlimit="10"/>
<path d="M95.2689 32.1127C95.3315 30.0874 95.5538 28.047 96.2127 26.1308C96.8716 24.2145 97.9943 22.4183 99.6143 21.2011C100.511 20.5276 101.536 20.0455 102.573 19.6193C103.447 19.2604 104.339 18.9369 105.263 18.7402C108.724 18.0035 112.31 19.0986 115.552 20.5166" fill="#FFC36C"/>
<path d="M117.103 20.7946C116.248 19.9708 115.142 19.4386 113.993 19.1439C113.307 18.9681 112.598 18.8726 111.892 18.9075C111.524 18.9258 111.159 18.9795 110.798 19.0505C108.289 19.544 106.028 20.8603 103.853 22.2058C100.949 24.0026 98.0507 25.9366 95.9211 28.6056C95.1521 29.5692 94.4718 30.681 94.4029 31.9117C94.3648 32.5936 94.5187 33.2734 94.742 33.9192C95.1187 35.0081 96.004 36.5612 96.7454 37.4434C103.132 31.4693 110.305 26.7431 118.586 23.9353C118.543 22.7494 117.957 21.6184 117.103 20.7946Z" fill="#FFC36C"/>
<path d="M95.6826 28.9146C95.6826 28.9146 101.074 21.3983 111.081 18.9004" stroke="black" stroke-width="0.521711" stroke-miterlimit="10"/>
<path d="M98.4843 29.7637C99.2736 31.1285 100.083 32.5178 101.258 33.569" stroke="black" stroke-width="0.521711" stroke-miterlimit="10"/>
<path d="M104.784 24.1123C105.601 25.835 106.616 27.4706 107.803 28.9778" stroke="black" stroke-width="0.521711" stroke-miterlimit="10"/>
<path d="M111.466 20.5215C112.845 21.9421 114.023 23.5563 114.956 25.3024" stroke="black" stroke-width="0.521711" stroke-miterlimit="10"/>
<path d="M113.772 19.709C114.956 21.1677 115.994 22.8998 116.768 24.5891" stroke="black" stroke-width="0.521711" stroke-miterlimit="10"/>
<path d="M95.3498 30.6055C95.7369 32.7711 97.0041 34.6065 98.6214 35.9102" stroke="black" stroke-width="0.521711" stroke-miterlimit="10"/>
<path d="M91.6624 46.3662C94.7149 47.5067 97.7983 48.6617 100.514 50.4622C103.231 52.2621 105.981 54.7913 106.952 57.9023" stroke="black" stroke-width="0.521711" stroke-miterlimit="10"/>
<path d="M109.066 56.9547C110.456 56.288 111.585 55.0933 112.172 53.668" stroke="black" stroke-width="0.521711" stroke-miterlimit="10"/>
<path d="M82.4239 47.6396C83.8356 55.747 94.5307 54.196 99.5125 56.7096" stroke="black" stroke-width="0.521711" stroke-miterlimit="10"/>
<path d="M117.478 53.5293C117.283 54.6426 116.898 55.7528 116.159 56.6084C115.049 57.8934 113.323 58.4256 111.692 58.8982" stroke="black" stroke-width="0.521711" stroke-miterlimit="10"/>
<path d="M113.168 56.9541C113.91 62.0528 114.661 67.7666 114.424 72.9132" stroke="black" stroke-width="0.521711" stroke-miterlimit="10"/>
<path d="M101.835 55.7832C102.609 57.9019 102.245 63.6464 102.161 68.8286" stroke="black" stroke-width="0.521711" stroke-miterlimit="10"/>
<path d="M153.598 204.247H37.4461C35.6389 204.247 34.1744 202.782 34.1744 200.975V122.328H156.869V200.975C156.869 202.782 155.404 204.247 153.598 204.247Z" fill="#D4BCDD"/>
<path d="M153.598 111.726C155.405 111.726 156.869 113.191 156.869 114.998V200.975C156.869 202.782 155.404 204.247 153.598 204.247H37.4461C35.6389 204.247 34.1744 202.782 34.1744 200.975V114.998C34.1744 113.19 35.6394 111.726 37.4461 111.726H153.598ZM153.598 110.943H37.4461C35.2105 110.943 33.3918 112.762 33.3918 114.998V200.975C33.3918 203.21 35.2105 205.029 37.4461 205.029H153.597C155.833 205.029 157.651 203.21 157.651 200.975V114.998C157.652 112.762 155.833 110.943 153.598 110.943Z" fill="white"/>
<path d="M43.5115 117.338C43.5115 118.594 42.4926 119.613 41.2363 119.613C39.9795 119.613 38.9611 118.594 38.9611 117.338C38.9611 116.081 39.98 115.062 41.2363 115.062C42.4926 115.062 43.5115 116.081 43.5115 117.338Z" stroke="white" stroke-width="0.782566" stroke-miterlimit="10"/>
<path d="M50.0558 119.613C51.3124 119.613 52.331 118.594 52.331 117.338C52.331 116.081 51.3124 115.062 50.0558 115.062C48.7993 115.062 47.7806 116.081 47.7806 117.338C47.7806 118.594 48.7993 119.613 50.0558 119.613Z" stroke="white" stroke-width="0.782566" stroke-miterlimit="10"/>
<path d="M34.1744 122.328H156.869" stroke="white" stroke-width="0.782566" stroke-miterlimit="10"/>
<path d="M145.08 204.247C143.432 200.185 141.188 196.38 138.446 193.003C136.763 190.93 134.807 188.959 132.338 188.047C129.869 187.134 126.787 187.534 125.108 189.611C123.824 191.199 123.58 193.394 123.388 195.452C119.321 191.086 115.201 186.676 110.24 183.438C105.279 180.2 99.2589 177.896 93.5144 179.156C87.1443 180.552 87.1443 188.603 87.1443 188.603C87.1443 188.603 83.2393 183.13 82.8866 182.615C80.2749 178.795 77.3205 175.296 74.1761 171.936C71.0881 168.637 68.1514 165.167 64.6727 162.287C61.2059 159.417 55.5798 155.752 50.9204 157.489C48.4965 158.392 47.8287 160.495 48.3666 162.92C48.8695 165.19 49.1345 167.464 49.8399 169.698C45.9213 165.33 41.4617 161.308 36.2921 158.589C32.5619 156.628 24.779 153.304 20.9074 156.517C19.7909 157.443 19.2838 158.978 19.251 160.454C19.048 169.492 25.5595 179.203 30.8058 185.88C36.1883 192.731 42.682 198.799 49.4064 204.247H145.08Z" fill="#FFDD99"/>
<path d="M121.504 163.418C120.808 167.259 121.015 171.231 121.034 175.155C121.052 179.081 121.369 181.649 119.948 185.211C118.667 188.429 115.989 189.522 114.592 192.673C113.88 194.278 111.181 204.24 111.181 204.24H74.9363C74.9363 204.24 73.92 188.58 79.5091 175.216C85.0982 161.852 92.0849 159.456 92.0849 159.456L112.706 154.137L121.504 163.418Z" fill="#735D9D"/>
<path d="M168.989 140.056C170.064 138.759 171.568 137.945 172.856 136.89C174.042 135.918 174.929 134.555 175.914 133.377C177.118 131.937 178.054 130.298 179.098 128.744C180.219 127.076 181.655 125.727 183.077 124.323C183.275 124.128 183.477 123.927 183.589 123.673C183.792 123.215 183.555 122.613 183.029 122.471C182.002 122.194 180.906 122.457 179.909 122.83C179.316 123.052 177.308 123.763 177.186 122.633C177.049 121.355 178.118 119.489 178.528 118.305C179.061 116.764 179.607 115.22 180.039 113.647C180.451 112.149 180.357 109.269 179.561 109.223C178.763 109.176 179.365 109.653 179.157 109.766C179.49 109.327 178.907 108.316 178.43 108.014C177.952 107.712 177.33 108.69 177.187 109.217C177.35 108.702 176.897 107.851 176.514 107.816C175.957 107.764 175.524 108.292 175.192 108.723C174.859 109.153 174.564 109.634 174.094 109.922C174.098 109.553 174.042 109.182 173.93 108.828C173.567 108.622 173.15 108.962 172.887 109.272C167.546 115.579 163.931 123.4 158.006 129.471" fill="#E27769"/>
<path d="M177.312 121.766C177.331 123.318 177.291 124.871 177.194 126.421" stroke="black" stroke-width="0.521711" stroke-miterlimit="10"/>
<path d="M178.987 109.396C178.521 110.861 177.62 112.1 176.944 113.463C175.866 115.633 174.904 117.856 173.904 120.061" stroke="black" stroke-width="0.521711" stroke-miterlimit="10"/>
<path d="M177.148 109.107C176.822 109.793 176.45 110.457 176.036 111.092C175.591 111.773 175.099 112.422 174.623 113.081C173.262 114.967 172.036 116.949 170.955 119.007" stroke="black" stroke-width="0.521711" stroke-miterlimit="10"/>
<path d="M173.909 110.156C173.549 110.924 172.962 111.557 172.407 112.199C170.67 114.208 169.174 116.426 167.962 118.79" stroke="black" stroke-width="0.521711" stroke-miterlimit="10"/>
<path d="M102.303 156.215C108.788 153.501 113.036 150.651 119.456 147.76C125.245 145.153 133.368 143.014 139.076 140.231C146.97 136.383 154.371 132.133 160.86 126.311L172.647 138.72C172.647 138.72 155.99 155.714 150.174 159.026C136.16 167.009 131.055 168.503 116.486 176.122" fill="#735D9D"/>
<path d="M120.869 173.989C120.951 171.058 121.62 168.144 122.824 165.471" stroke="black" stroke-width="0.521711" stroke-miterlimit="10"/>
<path d="M156.926 129.573L168.616 142.694" stroke="black" stroke-width="0.521711" stroke-miterlimit="10"/>
<path d="M100.417 192.19C105.36 192.282 110.283 193.063 114.569 195.667C116.627 196.918 117.774 198.591 118.341 200.913C118.82 202.873 118.975 204.97 118.799 206.981C118.782 207.172 118.634 207.348 118.47 207.388C118.238 207.444 117.771 207.213 117.771 207.213C117.771 207.213 118.192 209.207 117.746 209.621C117.435 209.91 116.848 209.517 116.627 209.277C116.37 208.997 116.019 208.281 116.019 208.281C116.019 208.281 116.314 209.425 116.065 209.622C115.696 209.914 114.628 209.174 114.375 208.424C114.22 208.85 113.966 209.245 113.573 209.14C112.338 208.812 111.371 207.064 110.354 206.198C109.003 205.046 107.191 204.968 105.505 204.993C104.729 205.005 103.951 205.024 103.178 204.947C102.385 204.869 101.671 204.558 100.898 204.401C99.4594 204.11 97.9584 203.977 96.4987 203.892" fill="#E27769"/>
<path d="M109.546 202.488C110.903 203.052 112.341 203.68 113.105 204.843C113.333 205.191 113.49 205.573 113.63 205.957C113.926 206.767 114.151 207.596 114.376 208.424" stroke="black" stroke-width="0.521711" stroke-miterlimit="10"/>
<path d="M111.493 200.036C112.265 200.527 113.021 201.05 113.675 201.688C114.33 202.327 114.881 203.088 115.179 203.952C115.349 204.446 115.434 204.964 115.52 205.48C115.696 206.541 115.878 207.602 116.065 208.662" stroke="black" stroke-width="0.521711" stroke-miterlimit="10"/>
<path d="M114.143 198.351C115.428 199.308 116.434 200.636 117.009 202.132C117.517 203.456 117.686 204.88 117.852 206.288C117.905 206.734 117.957 207.181 118.01 207.627" stroke="black" stroke-width="0.521711" stroke-miterlimit="10"/>
<path d="M94.9719 157.163C94.9719 157.163 84.7407 158.677 80.8143 160.932C74.6758 164.458 71.9775 169.84 68.0657 178.967C64.1539 188.094 62.5674 192.099 62.5293 195.123C62.473 199.575 64.4769 204.24 72.6651 204.24C87.2516 204.24 98.7783 204.24 98.7783 204.24L104.047 191.933L83.7275 188.754L89.3348 175.626" fill="#735D9D"/>
<path d="M104.047 191.933L83.7272 188.754L89.3345 175.626" stroke="black" stroke-width="0.521711" stroke-miterlimit="10"/>
<path d="M76.5109 190.632C76.6674 190.632 79.7601 188.705 83.7277 188.754" stroke="black" stroke-width="0.521711" stroke-miterlimit="10"/>
<path d="M98.4414 191.057L92.8674 204.241" stroke="black" stroke-width="0.521711" stroke-miterlimit="10"/>
<path d="M110.836 160.298C111.105 158.91 111.095 157.428 110.873 155.939" stroke="black" stroke-width="0.521711" stroke-miterlimit="10"/>
<path d="M89.182 159.947C90.3094 162.762 92.8032 165.097 95.5276 166.291C98.9578 167.794 103.61 168.072 106.889 166.064C108.416 165.129 109.467 163.899 110.129 162.495" stroke="black" stroke-width="0.521711" stroke-miterlimit="10"/>
<path d="M146.891 165.225C152.999 162.113 158.585 157.977 163.343 153.042" stroke="black" stroke-width="0.521711" stroke-miterlimit="10"/>
<path d="M158.285 162.272C161.247 159.978 164.023 157.446 166.579 154.709" stroke="black" stroke-width="0.521711" stroke-miterlimit="10"/>
<path d="M60.3126 187.444C59.0203 191.659 58.5539 196.125 58.9483 200.515" stroke="black" stroke-width="0.521711" stroke-miterlimit="10"/>
<path d="M56.2335 188.073C55.418 190.438 54.9516 192.924 54.8551 195.424" stroke="black" stroke-width="0.521711" stroke-miterlimit="10"/>
<path d="M98.396 144.582L92.8006 148.332L94.0084 152.332L92.3259 158.36C92.2184 158.745 92.2836 159.154 92.5058 159.485C93.4199 160.846 96.2564 164.229 101.878 164.223C107.821 164.218 107.737 160.276 107.737 160.276L108.819 151.881" fill="#E27769"/>
<path d="M109.651 144.082C108.113 141.215 107.234 139.441 105.618 137.465C104.249 135.791 101.976 133.426 99.8328 132.955C97.0735 132.347 94.4769 134.338 92.1266 135.792C88.2675 138.178 88.3348 143.315 89.6381 147.142C90.6392 150.082 92.7094 151.203 95.3211 152.996C98.7341 155.338 106.153 156.398 109.338 153.831C111.721 151.912 111.281 147.118 109.651 144.082Z" fill="#E27769"/>
<path d="M101.404 143.83C101.586 144.274 101.459 144.748 101.119 144.887C100.779 145.027 100.356 144.78 100.173 144.336C99.9904 143.892 100.118 143.418 100.458 143.278C100.798 143.139 101.221 143.385 101.404 143.83Z" fill="black"/>
<path d="M106.883 140.81C107.065 141.254 106.938 141.728 106.598 141.868C106.259 142.008 105.835 141.76 105.653 141.316C105.47 140.872 105.597 140.399 105.937 140.259C106.276 140.119 106.7 140.366 106.883 140.81Z" fill="black"/>
<path d="M103.949 142.741C104.562 143.288 105.301 143.656 106.042 143.997C106.5 144.209 108.029 144.617 107.688 145.361C107.469 145.839 106.575 146.594 106.575 146.594" stroke="black" stroke-width="0.521711" stroke-miterlimit="10"/>
<path d="M92.7532 156.829C92.7532 156.829 93.4517 155.041 93.6218 154.402C93.9082 153.323 93 153.268 92.6869 152.317C92.5236 151.822 92.6577 151.215 92.7678 150.725C93.0036 149.673 93.5457 148.491 93.0599 147.429C92.7527 146.756 92.0922 146.33 91.5637 145.813C91.0347 145.296 90.6043 144.508 90.9209 143.839C91.2955 143.048 92.4021 142.989 93.0808 142.437C93.759 141.885 93.9176 140.911 93.8712 140.038C93.8248 139.165 93.6234 138.285 93.7763 137.424C93.8039 137.269 93.8467 137.109 93.9562 136.996C94.2875 136.652 94.84 136.985 95.2558 137.218C96.0034 137.639 96.9076 137.587 97.6896 137.27C98.0861 137.109 98.4497 136.815 98.5927 136.412C98.6814 136.163 98.6803 135.892 98.7236 135.631C98.7669 135.37 98.8697 135.097 99.0951 134.959C99.2589 134.859 99.4613 134.846 99.6528 134.854C100.256 134.882 100.851 135.093 101.336 135.454C101.742 135.756 101.97 135.976 102.483 135.956C102.975 135.937 103.448 135.775 103.939 135.918C104.532 136.09 104.928 136.633 105.277 137.142C106.239 138.542 107.201 139.943 108.163 141.343C108.644 140.649 109.133 139.939 109.37 139.128C109.606 138.318 109.551 137.374 109.019 136.718C108.506 136.086 107.631 135.803 107.195 135.115C106.714 134.356 106.788 133.258 106.736 132.398C106.679 131.459 106.39 130.511 105.854 129.718C105.335 128.95 104.462 128.354 103.538 128.424C103.004 128.465 102.495 128.722 101.959 128.706C101.628 128.696 101.309 128.582 101.005 128.451C99.5959 127.846 98.3746 126.865 96.9707 126.249C95.5668 125.633 93.8055 125.445 92.5941 126.385C91.9727 126.868 91.5606 127.598 90.8844 127.999C88.9348 129.156 86.1374 126.977 84.2796 128.275C83.0807 129.113 83.0436 130.928 82.0341 131.986C80.7434 133.339 78.3957 132.984 76.9313 134.146C75.4538 135.32 75.448 137.659 76.3344 139.325C76.7727 140.148 77.4107 140.996 77.2219 141.909C77.1039 142.478 76.684 142.926 76.3271 143.384C75.8174 144.041 75.4026 144.798 75.3009 145.623C75.1992 146.448 75.4522 147.346 76.0877 147.881C76.4826 148.214 77.0841 148.371 77.3831 148.802C77.7196 149.288 77.814 150.157 77.8802 150.729C77.9387 151.231 77.9449 151.745 78.0968 152.227C78.5115 153.545 79.9655 154.329 81.3465 154.33C81.9835 154.33 82.6826 154.21 83.2064 154.572C83.6405 154.872 83.8173 155.414 84.0803 155.871C84.9359 157.357 87.0175 157.981 88.5498 157.212C89.1257 156.923 89.6579 156.458 90.3022 156.449C90.9423 156.44 92.147 156.934 92.7532 156.829Z" fill="#2C221D"/>
<path d="M101.751 155.183C103.476 155.613 106.744 155.703 109.221 154.138" stroke="black" stroke-width="0.521711" stroke-miterlimit="10"/>
<path d="M97.0871 143.695C97.0818 141.965 98.2244 140.306 100.09 140.633" stroke="black" stroke-width="0.521711" stroke-miterlimit="10"/>
<path d="M103.518 139.386C103.459 138.893 103.83 138.316 104.387 138.033C104.945 137.749 105.638 137.792 106.028 138.11" stroke="black" stroke-width="0.521711" stroke-miterlimit="10"/>
<path d="M95.7774 148.695C94.7909 147.488 92.3811 147.824 91.598 149.068C89.7162 152.061 94.2749 156.06 97.0608 154.603C97.8491 154.19 98.6249 153.144 98.2576 152.174" fill="#E27769"/>
<path d="M93.0474 151.31L96.8966 151.585" stroke="black" stroke-width="0.521711" stroke-miterlimit="10"/>
<path d="M93.436 148.089C94.2425 147.989 95.0846 148.148 95.8171 148.538" stroke="black" stroke-width="0.521711" stroke-miterlimit="10"/>
<path d="M93.1318 154.111C94.2556 154.85 95.7769 155.371 97.0092 154.696C97.8643 154.228 98.4715 153.217 98.1658 152.188" stroke="black" stroke-width="0.521711" stroke-miterlimit="10"/>
<path d="M104.549 146.878C104.3 147.804 104.607 149.022 105.67 149.214C106.467 149.358 107.33 148.867 107.588 148.095" stroke="black" stroke-width="0.521711" stroke-miterlimit="10"/>
<path d="M317.359 94.1123H201.069C199.262 94.1123 197.798 92.6474 197.798 90.8407V33.3555H320.63V90.8402C320.63 92.6474 319.165 94.1123 317.359 94.1123Z" fill="#D5D8BC"/>
<path d="M317.359 24.6312C319.166 24.6312 320.63 26.0962 320.63 27.9028V90.8404C320.63 92.6477 319.165 94.1121 317.359 94.1121H201.069C199.262 94.1121 197.798 92.6471 197.798 90.8404V27.9034C197.798 26.0962 199.263 24.6317 201.069 24.6317L317.359 24.6312ZM317.359 23.8486H201.069C198.834 23.8486 197.015 25.6673 197.015 27.9028V90.8404C197.015 93.076 198.834 94.8947 201.069 94.8947H317.358C319.594 94.8947 321.412 93.076 321.412 90.8404V27.9034C321.413 25.6678 319.594 23.8486 317.359 23.8486Z" fill="white"/>
<path d="M203.609 27.3773C204.643 27.3773 205.481 28.2157 205.481 29.2497C205.481 30.2837 204.643 31.1221 203.609 31.1221C202.575 31.1221 201.736 30.2837 201.736 29.2497C201.736 28.2157 202.575 27.3773 203.609 27.3773ZM203.609 26.5947C202.145 26.5947 200.954 27.7858 200.954 29.2497C200.954 30.7136 202.145 31.9047 203.609 31.9047C205.073 31.9047 206.264 30.7136 206.264 29.2497C206.264 27.7858 205.073 26.5947 203.609 26.5947Z" fill="white"/>
<path d="M210.867 27.3773C211.901 27.3773 212.739 28.2157 212.739 29.2497C212.739 30.2837 211.901 31.1221 210.867 31.1221C209.833 31.1221 208.994 30.2837 208.994 29.2497C208.994 28.2157 209.833 27.3773 210.867 27.3773ZM210.867 26.5947C209.403 26.5947 208.212 27.7858 208.212 29.2497C208.212 30.7136 209.403 31.9047 210.867 31.9047C212.331 31.9047 213.522 30.7136 213.522 29.2497C213.522 27.7858 212.331 26.5947 210.867 26.5947Z" fill="white"/>
<path d="M197.798 33.3555H320.63" stroke="white" stroke-width="0.782566" stroke-miterlimit="10"/>
<path d="M303.858 83.2505C301.559 79.4086 299.12 75.4222 295.342 73.0787C291.565 70.7352 286.035 70.6465 283.215 74.1122C280.715 77.184 281.18 81.6629 281.778 85.6013C278.997 82.0506 275.74 78.8853 272.124 76.221C269.333 74.1649 266.256 72.3775 262.867 71.7332C259.349 71.0638 255.334 71.8015 252.448 73.9776C248.508 76.9472 248.568 81.6227 248.955 86.1329C244.173 77.0687 238.858 68.0765 231.496 60.8315C229.591 58.9565 227.352 57.3329 224.777 56.6146C223.3 56.2029 221.633 56.1226 220.309 56.8958C218.296 58.0701 217.763 60.7209 217.706 63.0509C217.637 65.8619 217.961 68.6822 218.666 71.4045C217.381 70.0241 215.686 69.002 213.834 68.6478C209.573 67.8319 205.367 71.055 205.124 75.4295C204.872 79.9804 207.641 84.3247 209.756 88.1473C210.562 89.6039 211.39 91.0553 212.303 92.4488C212.481 92.7206 213.159 94.0718 213.572 94.0718C213.574 94.0718 309.952 94.0718 309.952 94.0718C307.921 90.6765 305.89 86.6442 303.858 83.2505Z" fill="#B5AE6B"/>
<mask id="mask0_5_541" style="mask-type:luminance" maskUnits="userSpaceOnUse" x="197" y="24" width="124" height="71">
<path d="M317.359 94.1127H201.069C199.262 94.1127 197.798 92.6478 197.798 90.8411V27.9035C197.798 26.0963 199.263 24.6318 201.069 24.6318H317.358C319.165 24.6318 320.63 26.0968 320.63 27.9035V90.8411C320.63 92.6478 319.165 94.1127 317.359 94.1127Z" fill="white"/>
</mask>
<g mask="url(#mask0_5_541)">
<path d="M312.292 89.8043L280.056 28.0233L270.896 27.4844L263.702 33.3557L245.196 46.8111L266 107.78L312.292 89.8043Z" fill="white"/>
<path d="M251.728 45.9219C253.527 47.4207 256.032 48.0312 258.319 47.5277" stroke="black" stroke-width="0.521711" stroke-miterlimit="10"/>
<path d="M260.573 46.8107C262.826 46.0532 264.824 44.5595 266.189 42.6136C267.554 40.6676 268.278 38.2797 268.222 35.9033" stroke="black" stroke-width="0.521711" stroke-miterlimit="10"/>
<path d="M303.496 66.8343C297.919 56.1977 281.182 22.6767 276.766 24.3274C271.699 26.2212 266 31.1045 266 31.1045C266 31.1045 268.73 39.8426 268.938 40.6711C269.697 43.6923 270.478 46.7072 271.282 49.717C273.282 57.2093 275.064 64.8122 277.534 72.1672C280.043 79.6376 282.823 87.0209 285.82 94.3086C287.022 97.2302 287.987 100.654 290.273 102.941C291.569 104.261 293.383 105.182 295.227 105.02C296.5 104.908 297.67 104.303 298.802 103.71C303.783 101.102 317.665 94.8815 317.665 94.8815C317.665 94.8815 310.53 80.2501 303.496 66.8343Z" fill="#4C4139"/>
<path d="M275.058 107.716C273.702 102.779 271.382 98.2349 269.663 93.4357C267.415 87.1569 265.418 80.791 263.098 74.5373C259.56 64.9978 254.543 51.8063 250.702 42.3848C250.702 42.3848 243.66 46.4244 242.24 47.4036C240.82 48.3834 241.128 50.7139 241.128 50.7139C246.733 71.6162 263.709 119.088 263.709 119.088C265.718 118.026 270.703 115.226 272.712 114.164C275.361 112.765 275.82 110.49 275.058 107.716Z" fill="#4C4139"/>
<path d="M243.638 46.5254C250.148 56.5261 255.216 64.6694 262.001 74.4859" stroke="black" stroke-width="0.521711" stroke-miterlimit="10"/>
<path d="M274.837 26.8516C276.188 40.1181 277.011 53.4379 277.306 66.7697" stroke="black" stroke-width="0.521711" stroke-miterlimit="10"/>
</g>
<path d="M207.262 97.6715C205.904 98.7071 204.508 99.6915 203.077 100.623C201.696 101.521 200.218 102.284 198.862 103.213C198.528 103.442 198.215 103.701 197.903 103.959C196.766 104.901 195.62 105.853 194.717 107.022C194.597 107.177 194.478 107.339 194.316 107.45C194.155 107.562 193.936 107.614 193.759 107.53C193.575 107.442 193.482 107.234 193.428 107.037C193.208 106.218 193.431 105.343 193.766 104.563C193.981 104.061 194.243 103.582 194.47 103.085C194.658 102.674 194.907 102.239 194.912 101.783C191.259 102.68 188.064 104.841 184.623 106.361C183.919 106.673 182.484 106.606 182.334 106.002C182.136 105.204 187.227 102.536 189.665 100.627C187.964 101.187 186.161 101.768 184.574 102.606C183.474 103.186 182.301 103.644 181.066 103.834C180.374 103.941 178.81 104.016 179.307 102.859C179.454 102.518 179.765 102.28 180.069 102.065C182.421 100.401 185.105 99.3853 187.544 97.8504C184.979 98.4264 182.495 99.788 179.885 99.4724C179.631 99.4416 179.359 99.3853 179.184 99.1985C178.917 98.9142 178.867 98.5693 179.116 98.2693C179.366 97.9699 179.74 97.8097 180.1 97.66C182.738 96.5623 185.502 95.3258 188.141 94.2282C186.791 94.3774 185.494 94.825 184.173 95.1427C182.852 95.4604 181.451 95.6467 180.146 95.2726C179.725 95.1521 179.236 94.7932 179.399 94.3878C179.478 94.1917 179.685 94.0842 179.875 93.9929C183.116 92.4486 186.356 90.9044 189.596 89.3596C190.505 88.9265 191.414 88.493 192.339 88.0944C194.347 87.2294 196.288 86.2403 198.302 85.3773C200.417 84.4717 202.542 83.5936 204.679 82.7422" fill="#D16159"/>
<path d="M194.848 101.763C195.833 101.501 196.827 101.274 197.828 101.082" stroke="black" stroke-width="0.521711" stroke-miterlimit="10"/>
<path d="M189.529 100.601C190.913 99.9406 192.332 99.3526 193.777 98.8408" stroke="black" stroke-width="0.521711" stroke-miterlimit="10"/>
<path d="M187.544 97.7999C188.673 97.3095 189.802 96.8185 190.93 96.3281" stroke="black" stroke-width="0.521711" stroke-miterlimit="10"/>
<path d="M186.871 94.6834C187.702 94.3813 188.512 94.0234 189.294 93.6123" stroke="black" stroke-width="0.521711" stroke-miterlimit="10"/>
<path d="M242.241 47.4043C239.828 49.0112 237.442 50.8058 235.912 52.4706C233.457 55.1407 219.024 72.6337 219.024 72.6337C219.024 72.6337 204.24 81.5497 195.767 86.4736L205.031 101.567C205.031 101.567 222.208 95.3918 230.968 89.2382C238.931 83.6444 254.175 65.3162 254.175 65.3162" fill="#4C4139"/>
<path d="M248.281 72.6372L243.638 58.1973" stroke="black" stroke-width="0.521711" stroke-miterlimit="10"/>
<path d="M203.563 81.8848L213.843 97.8538" stroke="black" stroke-width="0.521711" stroke-miterlimit="10"/>
<path d="M202.302 97.1202L210.829 93.1719" stroke="black" stroke-width="0.521711" stroke-miterlimit="10"/>
<path d="M208.012 92.9739C208.054 93.3652 207.772 93.7168 207.381 93.7601C206.99 93.8029 206.639 93.5206 206.595 93.1294C206.552 92.7381 206.835 92.3865 207.226 92.3432C207.617 92.3004 207.968 92.5826 208.012 92.9739Z" stroke="black" stroke-width="0.521711" stroke-miterlimit="10"/>
<path d="M203.846 94.8609C204.24 94.8609 204.559 94.5418 204.559 94.1482C204.559 93.7546 204.24 93.4355 203.846 93.4355C203.453 93.4355 203.134 93.7546 203.134 94.1482C203.134 94.5418 203.453 94.8609 203.846 94.8609Z" stroke="black" stroke-width="0.521711" stroke-miterlimit="10"/>
<path d="M218.924 72.8516C218.912 72.7556 218.9 72.6596 218.888 72.5641C220.857 71.9741 222.736 71.0861 224.442 69.9404" stroke="black" stroke-width="0.521711" stroke-miterlimit="10"/>
<path d="M225.879 55.8338C228.672 52.4729 232.093 49.6343 235.911 47.5078" stroke="black" stroke-width="0.521711" stroke-miterlimit="10"/>
<path d="M228.129 48.156C230.773 46.1881 233.664 44.552 236.713 43.2988" stroke="black" stroke-width="0.521711" stroke-miterlimit="10"/>
<path d="M256.405 20.6855L258.47 26.7995L265.835 33.925C265.835 33.925 266.027 38.1644 261.86 42.6089C257.725 47.0194 253.245 44.0592 253.245 44.0592L247.897 36.1965" fill="#D16159"/>
<path d="M239.162 36.621C238.315 33.9065 237.247 28.0508 237.329 25.821C237.398 23.933 237.963 22.0856 239.206 20.6259C240.807 18.7461 244.572 19.4197 246.976 19.1911C250.923 18.816 253.39 23.4932 254.502 26.8462C255.357 29.4219 255.763 32.0737 254.891 34.7011C253.472 38.9728 248.915 43.2905 244.094 42.1224C241.475 41.4875 239.983 39.252 239.162 36.621Z" fill="#D16159"/>
<path d="M260.133 19.9205C259.5 19.2444 258.629 18.7138 258.347 17.831C258.191 17.3417 257.949 15.8772 257.791 15.3889C256.909 12.6645 254.625 11.7526 252.029 12.2002C251.752 9.5948 248.988 9.34334 246.719 9.31725C245.774 9.30629 244.812 9.21395 243.965 8.76163C243.07 8.28322 242.258 7.60604 241.213 7.50639C240.28 7.4177 239.319 7.72499 238.545 8.2347C235.854 10.0038 235.085 13.4268 231.789 14.4603C230.748 14.7869 229.66 14.8834 228.761 15.5668C228.09 16.0765 227.59 16.8393 227.496 17.6771C227.361 18.8724 228.151 19.5996 228.967 20.3269C229.918 21.1752 230.472 22.2562 230.396 23.5469C230.349 24.3284 230.14 25.0896 230.015 25.8623C229.659 28.0623 230.362 30.1418 232.204 31.4738C232.593 31.7545 233.119 32.0174 234.542 32.3262C235.544 32.5438 238.146 32.1682 238.146 32.1682C238.146 32.1682 237.503 28.4259 237.515 26.9693C237.527 25.5837 237.949 24.2924 238.76 23.1854C239.452 22.2405 240.964 21.9082 242.091 21.9588C243.779 22.0345 245.391 22.9647 247.069 22.768C247.766 22.6861 248.429 22.3924 248.976 21.9546C251.233 23.416 253.569 25.5644 254.086 28.1839C254.112 28.3169 254.444 29.8679 254.327 29.8925C256.262 29.4855 258.7 29.329 259.57 27.2161C259.87 26.4873 259.718 25.7209 259.945 24.9821C260.133 24.3702 260.68 23.9236 260.936 23.3361C261.428 22.1993 260.979 20.8241 260.133 19.9205Z" fill="#2C221D"/>
<path d="M252.089 27.8632C252.189 26.1796 254.514 24.9473 255.989 25.5426C259.535 26.9742 258.072 33.3672 254.706 33.8545C253.754 33.9922 252.412 33.567 252.119 32.4835" fill="#D16159"/>
<path d="M256.138 28.4248L252.938 31.1043" stroke="black" stroke-width="0.521711" stroke-miterlimit="10"/>
<path d="M253.757 25.8486C252.986 26.2723 252.349 26.9447 251.954 27.7508" stroke="black" stroke-width="0.521711" stroke-miterlimit="10"/>
<path d="M257.839 30.9346C257.322 32.2936 256.319 33.7148 254.811 33.9041C253.765 34.0356 252.592 33.5337 252.208 32.4387" stroke="black" stroke-width="0.521711" stroke-miterlimit="10"/>
<path d="M250.902 40.6127C250.902 40.6127 252.624 39.5186 253.757 37.1094" stroke="black" stroke-width="0.521711" stroke-miterlimit="10"/>
<path d="M242.036 30.1436C242.195 31.645 242.361 33.146 242.532 34.6464C242.555 34.8536 242.586 35.0758 242.729 35.2276C243.296 35.826 244.594 35.5386 245.197 35.1801" stroke="black" stroke-width="0.521711" stroke-miterlimit="10"/>
<path d="M246.611 35.7959L244.015 37.312C244.015 37.312 245.02 39.2371 246.025 38.8609C247.897 38.1613 246.611 35.7959 246.611 35.7959Z" fill="white"/>
<path d="M243.358 26.8984C243.624 26.3522 244.17 25.9854 244.748 25.7986C245.726 25.483 246.844 25.638 247.698 26.2077" stroke="black" stroke-width="0.521711" stroke-miterlimit="10"/>
<path d="M237.293 29.0767C237.387 28.5044 237.715 28.0714 238.099 27.8111C238.748 27.3713 239.583 27.376 240.302 27.8225" stroke="black" stroke-width="0.521711" stroke-miterlimit="10"/>
<path d="M246.791 29.1371C246.924 29.6974 246.68 30.2353 246.245 30.338C245.811 30.4408 245.35 30.0704 245.218 29.5101C245.085 28.9498 245.33 28.4119 245.764 28.3091C246.199 28.2063 246.658 28.5768 246.791 29.1371Z" fill="black"/>
<path d="M240.807 30.9183C240.94 31.4786 240.695 32.0165 240.261 32.1193C239.826 32.2226 239.366 31.8517 239.233 31.2913C239.1 30.731 239.345 30.1931 239.78 30.0904C240.214 29.9876 240.674 30.358 240.807 30.9183Z" fill="black"/>
<path d="M239.229 22.6846C238.113 23.2845 237.627 24.5961 236.873 25.6145C235.653 27.2605 233.538 28.198 231.499 27.9961" stroke="#635149" stroke-width="0.521711" stroke-miterlimit="10"/>
<path d="M249.167 21.8039C250.178 20.8706 250.903 19.6326 251.224 18.2949" stroke="#635149" stroke-width="0.521711" stroke-miterlimit="10"/>
<path d="M343.925 159.894H256.489C254.682 159.894 253.218 158.429 253.218 156.622V94.5039H347.197V156.622C347.196 158.43 345.732 159.894 343.925 159.894Z" fill="#F9D4BB"/>
<path d="M343.925 85.7796C345.732 85.7796 347.196 87.2446 347.196 89.0513V156.622C347.196 158.429 345.731 159.894 343.925 159.894H256.49C254.682 159.894 253.218 158.429 253.218 156.622V89.0513C253.218 87.2441 254.683 85.7796 256.49 85.7796H343.925ZM343.925 84.9971H256.49C254.254 84.9971 252.435 86.8158 252.435 89.0513V156.622C252.435 158.858 254.254 160.676 256.49 160.676H343.925C346.16 160.676 347.979 158.858 347.979 156.622V89.0513C347.979 86.8158 346.16 84.9971 343.925 84.9971Z" fill="white"/>
<path d="M260.901 90.3968C260.901 91.4309 260.063 92.2692 259.029 92.2692C257.995 92.2692 257.156 91.4309 257.156 90.3968C257.156 89.3628 257.995 88.5244 259.029 88.5244C260.063 88.5244 260.901 89.3628 260.901 90.3968Z" stroke="white" stroke-width="0.782566" stroke-miterlimit="10"/>
<path d="M268.159 90.3968C268.159 91.4309 267.32 92.2692 266.286 92.2692C265.252 92.2692 264.414 91.4309 264.414 90.3968C264.414 89.3628 265.252 88.5244 266.286 88.5244C267.32 88.5244 268.159 89.3628 268.159 90.3968Z" stroke="white" stroke-width="0.782566" stroke-miterlimit="10"/>
<path d="M253.218 94.5039H347.196" stroke="white" stroke-width="0.782566" stroke-miterlimit="10"/>
<path d="M322.973 134.717C320.82 134.34 320.212 140.126 321.244 142.052C318.41 137.999 314.823 131.792 311.988 127.739C308.81 123.194 305.011 117.532 299.279 116.052C294.115 114.719 291.421 119.217 291.34 123.808C291.263 128.204 291.705 132.639 292.519 136.955C293.407 141.662 294.559 147.022 297.121 151.131C294.398 146.764 290.04 145.288 285.169 145.693C282.901 145.882 280.543 146.646 279.111 148.415C276.82 151.244 277.679 156.387 278.655 159.895C280.785 159.895 282.915 159.895 285.045 159.895C296.373 159.895 341.246 159.914 341.246 159.914C341.246 159.914 329.956 135.939 322.973 134.717Z" fill="#EF9748"/>
<path d="M257.889 126.565C248.552 126.704 239.296 124.729 230.364 122.006C221.432 119.284 205.158 113.307 205.158 113.307L200.512 127.336C200.512 127.336 224.569 142.576 256.582 145.179" fill="#E27769"/>
<path d="M277.887 130.375C271.665 125.096 258.182 125.473 254.317 125.624C250.452 125.774 243.563 124.633 243.563 124.633L241.027 145.769C241.027 145.769 255.341 148.172 263.305 148.754" fill="#2C221D"/>
<path d="M260.35 135.446C261.327 138.202 260.881 142.256 260.892 145.18C260.902 147.788 261.819 149.236 262.204 151.816C262.664 154.898 264.413 157.101 266.258 159.894H305.902L303.814 137.913L298.417 130.114L287.023 127.076L261.299 133.842" fill="#2C221D"/>
<path d="M272.798 130.114C272.402 131.51 272.114 133.076 272.354 134.522C272.635 136.216 273.71 137.283 275.243 137.913" stroke="#6D574E" stroke-width="0.521711" stroke-miterlimit="10"/>
<path d="M277.193 138.38C284.218 139.639 291.612 134.617 292.317 128.224" stroke="#6D574E" stroke-width="0.521711" stroke-miterlimit="10"/>
<path d="M330.049 157.36C329.478 155.703 328.406 154.272 327.304 152.911C324.273 149.168 320.879 145.718 317.187 142.625L303.921 154.701L312.13 162.659L302.542 180.038L315.26 183.667C315.26 183.667 324.993 172.919 328.718 166.927C330.546 163.986 331.186 160.661 330.049 157.36Z" fill="#E27769"/>
<path d="M305.079 176.145C305.079 176.145 299.518 184.149 298.956 185.594C298.451 186.892 298.175 188.516 297.977 189.899C297.43 193.711 299.474 197.63 301.014 199.482C301.188 199.69 301.445 199.825 301.704 199.873C302.275 199.979 302.504 199.683 302.491 199.009C302.803 199.433 303.115 199.856 303.427 200.28C303.556 200.456 303.691 200.637 303.875 200.728C304.23 200.903 304.673 200.689 304.944 200.343C305.216 199.997 305.355 199.546 305.487 199.109C305.817 199.587 306.33 200.088 306.825 199.796C307.319 199.503 307.746 198.445 307.636 197.837C307.798 198.371 308.507 198.386 308.894 197.997C309.28 197.609 309.422 197 309.538 196.432C309.829 194.995 310.104 193.513 310.807 192.257C311.276 191.42 311.914 190.725 312.471 189.959C314.282 187.466 315.178 184.287 315.763 181.156" fill="#E27769"/>
<path d="M308.728 188.482C308.478 189.037 308.227 189.592 307.977 190.146C307.773 190.596 307.569 191.047 307.405 191.515C306.675 193.598 306.796 195.98 307.733 197.96" stroke="black" stroke-width="0.521711" stroke-miterlimit="10"/>
<path d="M304.543 188.275C304.032 190.795 303.825 193.825 304.188 195.72C304.423 196.948 304.959 198.115 305.615 199.167" stroke="black" stroke-width="0.521711" stroke-miterlimit="10"/>
<path d="M300.876 187.328C300.876 187.328 300.55 189.187 300.473 190.238C300.228 193.578 300.67 196.803 302.49 199.279" stroke="black" stroke-width="0.521711" stroke-miterlimit="10"/>
<path d="M204.022 127.574C203.021 127.477 202.02 127.38 201.019 127.283C200.123 127.196 199.22 127.107 198.363 126.832C197.791 126.649 197.249 126.385 196.71 126.122C194.487 125.04 193.349 124.716 191.223 123.464C190.002 122.744 188.753 122.066 187.45 121.503C186.175 120.952 184.851 120.655 183.673 119.909C183.571 119.845 183.465 119.771 183.418 119.66C183.382 119.575 183.385 119.478 183.398 119.385C183.672 117.463 187.589 117.903 189.112 118.329C189.571 118.457 190.048 118.611 190.516 118.516C190.547 117.905 190.278 117.319 189.98 116.785C189.102 115.211 187.819 113.958 186.66 112.59C185.588 111.324 184.503 110.059 183.515 108.726C182.59 107.477 181.638 104.758 182.364 104.426C183.091 104.095 182.702 104.757 182.937 104.787C182.468 104.499 182.647 103.345 182.983 102.891C183.32 102.437 184.253 103.125 184.576 103.565C184.239 103.144 184.353 102.187 184.698 102.016C185.199 101.766 185.794 102.102 186.259 102.384C186.724 102.666 187.173 103.008 187.715 103.107C187.579 102.764 187.497 102.398 187.473 102.027C187.737 101.704 188.249 101.871 188.606 102.065C195.864 106.019 202.057 112.007 209.774 115.532" fill="#E27769"/>
<path d="M188.987 115.314C189.802 116.483 190.351 117.889 190.777 119.613" stroke="black" stroke-width="0.521711" stroke-miterlimit="10"/>
<path d="M182.96 104.382C183.924 105.58 185.211 106.41 186.334 107.437C188.122 109.072 189.822 110.798 191.55 112.494" stroke="black" stroke-width="0.521711" stroke-miterlimit="10"/>
<path d="M184.571 103.45C185.122 103.972 185.709 104.456 186.325 104.9C186.986 105.374 187.679 105.802 188.361 106.245C190.31 107.512 192.169 108.918 193.921 110.448" stroke="black" stroke-width="0.521711" stroke-miterlimit="10"/>
<path d="M187.97 103.259C188.583 103.845 189.359 104.223 190.108 104.621C192.453 105.869 194.649 107.398 196.633 109.165" stroke="black" stroke-width="0.521711" stroke-miterlimit="10"/>
<path d="M204.314 128.03C204.314 128.03 200.212 127.474 198.537 127.032" stroke="black" stroke-width="0.521711" stroke-miterlimit="10"/>
<path d="M295.083 129.243C297.907 129.516 300.732 129.78 303.42 130.795C306.817 132.077 309.77 134.487 312.55 136.951C315.454 139.526 318.418 143.029 321.244 145.716L306.756 158.394L296.497 148.397" fill="#2C221D"/>
<path d="M312.13 162.659C312.13 162.659 314.274 159.915 316.446 158.394" stroke="black" stroke-width="0.521711" stroke-miterlimit="10"/>
<path d="M302.54 154.285L317.648 142.052" stroke="#6D574E" stroke-width="0.521711" stroke-miterlimit="10"/>
<path d="M246.567 146.651L248.76 125.329" stroke="#6D574E" stroke-width="0.521711" stroke-miterlimit="10"/>
<path d="M260.35 142.625C260.35 142.625 261.352 147.176 261.626 149.128" stroke="#6D574E" stroke-width="0.521711" stroke-miterlimit="10"/>
<path d="M295.984 148.358C299.124 150.782 306.756 158.394 306.756 158.394" stroke="#6D574E" stroke-width="0.521711" stroke-miterlimit="10"/>
<path d="M279.867 114.116L286.618 116.853L286.222 121.354L289.625 127.932C289.625 127.932 287.964 134.136 280.511 135.681C274.218 136.985 274.361 132.924 274.361 132.924L271.363 124.273" fill="#E27769"/>
<path d="M265.604 117.582C266.601 114.207 267.141 112.135 268.416 109.686C269.495 107.612 271.381 104.607 273.546 103.635C276.334 102.384 279.522 103.919 282.331 104.939C286.944 106.615 288.005 112.069 287.469 116.408C287.058 119.742 285.113 121.387 282.743 123.86C279.646 127.094 272.024 129.851 268.086 127.836C265.14 126.328 264.548 121.156 265.604 117.582Z" fill="#E27769"/>
<path d="M313.832 137.981C315.647 137.385 316.539 135.249 316.438 133.732C316.275 131.289 315.134 130.029 314.947 128.52C314.824 127.537 315.117 126.542 315.033 125.555C314.896 123.926 313.714 122.507 312.253 121.772C310.793 121.037 309.095 120.905 307.466 121.05C306.218 121.162 304.963 121.428 303.722 121.251C302.685 121.104 301.714 120.653 300.811 120.123C299.213 119.186 297.756 117.966 296.727 116.426C294.978 113.807 294.605 110.513 293.256 107.667C292.576 106.233 291.632 104.93 290.503 103.817C287.759 101.113 285.146 100.112 281.255 99.9827C278.59 99.894 274.882 100.25 272.843 102.735C272.843 102.735 268.901 102.836 267.021 104.822C264.789 107.178 264.949 110.589 266.899 113.308C267.907 111.654 268.764 109.906 270.239 108.635C270.069 108.903 270.15 109.279 270.368 109.51C270.587 109.74 270.911 109.845 271.227 109.87C272.07 109.938 272.867 109.518 273.609 109.111C273.358 109.779 273.252 110.502 273.299 111.214C273.309 111.364 273.33 111.524 273.429 111.638C273.542 111.767 273.727 111.802 273.898 111.817C275.06 111.914 276.255 111.355 276.926 110.402C276.608 111.266 276.331 112.351 276.971 113.013C277.423 113.481 278.188 113.515 278.791 113.27C279.394 113.025 279.872 112.555 280.334 112.097C280.111 112.317 280.404 113.563 280.458 113.85C280.577 114.48 280.77 115.091 280.984 115.694C281.643 117.547 282.454 119.352 283.508 121.014C284.597 122.731 286.152 124.032 287.264 125.705C287.969 126.765 288.565 127.926 289.512 128.776C290.677 129.821 292.282 130.608 293.812 130.919C295.354 131.233 296.948 131.091 298.507 131.04C304.271 130.852 308.641 133.738 313.832 137.981Z" fill="#893D33"/>
<path d="M300.385 100.654C300.053 99.8346 299.568 99.0833 298.945 98.51C296.698 96.4414 291.8 96.5755 290.125 99.3859C289.205 100.931 289.653 102.918 290.351 104.575L291.727 107.595C293.646 108.637 296.074 108.682 298.03 107.71C299.664 106.899 300.817 105.402 300.898 103.546C300.94 102.6 300.761 101.583 300.385 100.654Z" fill="#893D33"/>
<path d="M280.389 118.172C280.856 116.777 283.094 116.269 284.2 117.105C286.86 119.118 284.173 124.167 281.229 123.811C280.396 123.71 279.363 123.047 279.363 122.068" fill="#E27769"/>
<path d="M283.67 119.565L280.366 121.093" stroke="black" stroke-width="0.521711" stroke-miterlimit="10"/>
<path d="M282.251 116.854C281.506 117.036 280.817 117.457 280.301 118.046" stroke="black" stroke-width="0.521711" stroke-miterlimit="10"/>
<path d="M284.531 122.066C283.786 123.093 282.619 124.06 281.306 123.877C280.395 123.749 279.522 123.06 279.448 122.051" stroke="black" stroke-width="0.521711" stroke-miterlimit="10"/>
<path d="M272.897 128.7C272.897 128.7 275.998 128.552 279.139 126.432" stroke="black" stroke-width="0.521711" stroke-miterlimit="10"/>
<path d="M269.641 115.883C269.152 116.737 268.642 117.616 267.852 118.205C267.663 118.346 267.458 118.471 267.305 118.649C267.085 118.905 266.991 119.265 267.058 119.595C267.125 119.926 267.35 120.221 267.653 120.372" stroke="black" stroke-width="0.521711" stroke-miterlimit="10"/>
<path d="M268.248 122.366C268.743 122.778 269.485 122.94 270.072 122.625C270.814 122.228 270.829 121.281 270.854 120.543" stroke="black" stroke-width="0.521711" stroke-miterlimit="10"/>
<path d="M273.257 114.05C273.799 113.937 274.367 113.912 274.906 114.039C275.445 114.167 275.955 114.453 276.299 114.887C276.737 115.438 276.873 116.163 276.995 116.855" stroke="black" stroke-width="0.521711" stroke-miterlimit="10"/>
<path d="M267.222 111.991C267.737 111.621 268.46 111.597 269.031 111.873C269.602 112.15 270.018 112.699 270.197 113.307" stroke="black" stroke-width="0.521711" stroke-miterlimit="10"/>
<path d="M274.168 117.168C273.955 117.611 273.525 117.846 273.206 117.693C272.887 117.54 272.801 117.057 273.013 116.615C273.225 116.173 273.655 115.938 273.974 116.091C274.293 116.244 274.379 116.726 274.168 117.168Z" fill="black"/>
<path d="M268.307 115.241C268.095 115.683 267.665 115.918 267.346 115.765C267.027 115.612 266.94 115.13 267.152 114.687C267.364 114.245 267.794 114.01 268.114 114.163C268.433 114.316 268.52 114.798 268.307 115.241Z" fill="black"/>
<path d="M329.091 175.747C332.27 172.515 334.523 168.381 335.517 163.958" stroke="black" stroke-width="0.521711" stroke-miterlimit="10"/>
<path d="M336.372 173.946C337.334 172.049 337.947 169.977 338.174 167.863" stroke="black" stroke-width="0.521711" stroke-miterlimit="10"/>
<path d="M274.14 72.6123C274.14 72.6123 268.71 75.103 265.064 76.7557C263.002 77.6906 259.546 80.2481 258.366 82.194C256.864 84.6696 256.472 87.731 256.643 90.2586C256.757 91.9312 257.521 93.8256 258.642 95.649C259.38 96.8499 260.168 98.1057 260.855 97.9424C261.542 97.7796 261.295 96.0961 261.295 96.094C261.297 96.1957 262.109 97.7927 262.297 97.92C262.548 98.0906 262.844 98.2382 263.104 98.1026C263.455 97.9179 263.694 97.7165 263.864 97.3576C264.008 97.0539 264.019 96.7388 264.049 96.4002C264.076 96.0929 264.051 95.3516 264.035 95.0391C264.187 95.3761 264.332 96.4274 264.62 96.3721C264.908 96.3162 265.378 96.0757 265.637 95.7606C266.138 95.1486 266.404 94.3828 266.66 93.6341C266.663 93.8151 266.666 94.0014 266.734 94.1694C266.802 94.3374 266.95 94.4855 267.131 94.4991C267.359 94.5158 268.288 93.8376 268.424 93.6539C269.009 92.8594 269.227 91.7961 269.65 90.9045C270.003 90.1606 270.349 89.6336 270.858 88.9867C271.322 88.3967 272.031 87.6668 272.708 87.3115C274.087 86.5879 274.933 86.3907 276.344 85.7239C277.533 85.1621 278.698 84.4677 279.519 83.4175" fill="#D16159"/>
<path d="M266.538 93.9469C266.643 92.7589 266.788 91.5747 266.973 90.3966C267.096 89.6115 267.24 88.8205 267.554 88.0901C268.067 86.8933 269 85.9355 269.914 85.0068" stroke="black" stroke-width="0.521711" stroke-miterlimit="10"/>
<path d="M264.161 95.3008C263.7 93.3209 263.749 91.2628 263.801 89.2302C263.816 88.6683 263.831 88.1018 263.965 87.556C264.197 86.6144 264.768 85.7974 265.327 85.0049" stroke="black" stroke-width="0.521711" stroke-miterlimit="10"/>
<path d="M261.352 96.488C260.716 94.518 260.077 92.5267 259.901 90.4638C259.868 90.0689 259.851 89.6719 259.865 89.2754C259.918 87.7958 260.399 86.3507 261.128 85.0615" stroke="black" stroke-width="0.521711" stroke-miterlimit="10"/>
<path d="M278.761 43.1698L288.316 61.197L266.991 75.8007L281.026 86.8547C281.026 86.8547 304.955 79.0651 311.473 75.2008C316.59 72.167 318.786 64.2876 308.928 51.4358C299.069 38.584 292.263 30.9623 290.242 28.8191C285.891 24.2067 280.715 22.291 275.89 24.7195" fill="#4C4139"/>
<path d="M278.761 43.1699L288.316 61.1971L266.992 75.8003" stroke="black" stroke-width="0.521711" stroke-miterlimit="10"/>
<path d="M279.312 81.8845C279.312 82.2779 278.992 82.5972 278.599 82.5972C278.206 82.5972 277.886 82.2784 277.886 81.8845C277.886 81.4912 278.206 81.1719 278.599 81.1719C278.993 81.1719 279.312 81.4912 279.312 81.8845Z" stroke="black" stroke-width="0.521711" stroke-miterlimit="10"/>
<path d="M283 80.3775C283.393 80.3775 283.712 80.0584 283.712 79.6648C283.712 79.2712 283.393 78.9521 283 78.9521C282.606 78.9521 282.287 79.2712 282.287 79.6648C282.287 80.0584 282.606 80.3775 283 80.3775Z" stroke="black" stroke-width="0.521711" stroke-miterlimit="10"/>
<path d="M274.519 81.7299C274.598 81.7915 283.712 77.1973 283.712 77.1973" stroke="black" stroke-width="0.521711" stroke-miterlimit="10"/>
<path d="M275.018 70.3039C275.108 70.2418 291.404 83.3274 291.404 83.3274" stroke="black" stroke-width="0.521711" stroke-miterlimit="10"/>
<path d="M287.796 61.3768C289.797 60.5953 291.808 59.7532 293.946 59.4319C296.231 59.088 298.554 59.2065 300.853 59.3254" stroke="black" stroke-width="0.521711" stroke-miterlimit="10"/>
<path d="M281.026 86.8542L308.646 76.8154" stroke="black" stroke-width="0.521711" stroke-miterlimit="10"/>
<path d="M285.856 20.2186C280.336 15.0328 274.699 9.87365 268.173 6.02969C256.092 -1.08696 239.23 0.0143675 230.895 5.19234C224.498 9.16674 221.126 14.1167 217.017 20.2463C211.874 27.9191 206.481 36.1731 198.006 39.8464C193.875 41.637 189.332 42.1748 184.914 43.0398C180.496 43.9048 175.978 45.2008 172.593 48.1698C169.208 51.1383 167.279 56.1786 169.108 60.2933C170.544 63.5253 174.081 65.5584 177.617 65.6586C181.152 65.7593 184.599 64.118 187.144 61.6623C193.638 55.396 196.661 38.911 184.665 34.1655" stroke="#ED725A" stroke-width="0.782566" stroke-miterlimit="10"/>
<path d="M23.7628 131.977C24.526 135.597 26.4558 139.45 29.0644 142.423C32.4602 146.293 39.3859 148.798 42.3638 143.17C43.749 140.553 44.4397 136.319 41.1388 134.446C40.9046 134.313 40.6417 134.193 40.3578 134.19C39.7198 134.183 39.2967 134.738 39.1084 135.245C38.2261 137.618 39.6462 140.184 41.563 142.09C42.4525 142.975 43.4886 143.8 44.7715 144.24C46.0539 144.681 47.6248 144.676 48.7438 143.994C50.4843 142.932 50.9423 140.594 50.815 138.919" stroke="#8F96DB" stroke-width="0.782566" stroke-miterlimit="10"/>
<path d="M16.4666 36.6574C19.5379 32.7847 23.6735 29.2866 28.3209 27.494C30.8356 26.5242 34.1208 26.1762 36.7648 26.701C38.0847 26.9629 39.618 27.3793 40.4246 28.5661C41.2755 29.8183 40.2822 32.1388 41.9647 32.8483C42.3967 33.0304 42.8881 32.9866 43.3519 32.9167C44.8101 32.6976 46.2292 32.2583 47.6879 32.0439C49.1471 31.83 50.7002 31.8587 52.0139 32.5291C53.3276 33.1995 54.3261 34.6357 54.1299 36.0976C54.0533 36.6699 53.8044 37.2365 53.9103 37.8041C54.0877 38.7536 55.1635 39.2503 56.1255 39.341C58.1174 39.5283 60.0112 39.4636 61.7047 40.7387C62.9474 41.6741 63.6611 43.3473 63.0251 44.6901" stroke="#FFDD99" stroke-width="0.782566" stroke-miterlimit="10"/>
<path d="M146.595 32.9739C147.369 31.2512 148.237 29.5238 149.588 28.2044C150.939 26.885 152.868 26.0242 154.721 26.3847C155.68 26.5714 156.586 27.0702 157.562 27.0499C158.905 27.0217 160.054 25.9887 160.658 24.7888C161.262 23.5888 161.438 22.2277 161.683 20.9072C162.074 18.7985 162.709 16.6433 164.151 15.0563C165.594 13.4692 168.031 12.6183 169.959 13.5595" stroke="#FFDD99" stroke-width="0.782566" stroke-miterlimit="10"/>
<path d="M55.6909 208.669C56.2272 205.469 54.0683 202.441 50.869 201.905C47.6697 201.368 44.6414 203.527 44.1052 206.727C43.5689 209.926 45.7278 212.954 48.9271 213.49C52.1264 214.027 55.1547 211.868 55.6909 208.669Z" stroke="#909DF4" stroke-width="0.782566" stroke-miterlimit="10"/>
<path d="M149.872 12.255C152.503 12.255 154.636 10.1222 154.636 7.49128C154.636 4.86034 152.503 2.72754 149.872 2.72754C147.241 2.72754 145.108 4.86034 145.108 7.49128C145.108 10.1222 147.241 12.255 149.872 12.255Z" stroke="#8F96DB" stroke-width="0.782566" stroke-miterlimit="10"/>
<path d="M319.383 190.242L322.541 211.042L334.951 201.9L319.383 190.242Z" fill="#FFDD99"/>
<path d="M6.94698 167.42L15.3429 157.9L1 158.415L6.94698 167.42Z" stroke="#8F96DB" stroke-width="0.782566" stroke-miterlimit="10"/>
<path d="M20.3633 190.993C22.2405 190.993 23.7622 189.471 23.7622 187.594C23.7622 185.717 22.2405 184.195 20.3633 184.195C18.4861 184.195 16.9644 185.717 16.9644 187.594C16.9644 189.471 18.4861 190.993 20.3633 190.993Z" fill="#FFDD99"/>
<path d="M27.6271 45.7275L19.4555 63.5575L44.4246 59.9363L27.6271 45.7275Z" fill="#ED725A"/>
<path d="M11.6032 90.1527C11.6032 91.2921 10.6798 92.2155 9.54038 92.2155C8.40097 92.2155 7.47754 91.2921 7.47754 90.1527C7.47754 89.0133 8.40097 88.0898 9.54038 88.0898C10.6798 88.0898 11.6032 89.0133 11.6032 90.1527Z" fill="#909DF4"/>
<path d="M291.58 8.82749C291.58 9.96691 290.657 10.8903 289.517 10.8903C288.378 10.8903 287.455 9.96691 287.455 8.82749C287.455 7.68808 288.378 6.76465 289.517 6.76465C290.657 6.76465 291.58 7.68808 291.58 8.82749Z" fill="#ED725A"/>
<path d="M329.516 188.949C331.055 188.318 333.044 188.44 334.436 189.375C335.665 190.2 336.308 191.751 337.79 192.235C339.963 192.944 341.88 190.921 343.977 190.782C345.79 190.662 347.251 191.891 347.96 193.473C348.567 194.828 348.682 196.343 348.79 197.823" stroke="#8F96DB" stroke-width="0.782566" stroke-miterlimit="10"/>
<path d="M313.552 47.4821C314.306 45.6076 316.292 44.3023 318.312 44.3539C319.34 44.38 320.382 44.7212 321.378 44.4635C324.475 43.6616 324.217 38.2687 327.277 37.3348C329.397 36.6879 331.703 38.7419 333.779 37.963C335.565 37.2926 336.002 35.044 336.568 33.2227C338.097 28.2988 342.622 24.4418 347.726 23.7119" stroke="#8F96DB" stroke-width="0.782566" stroke-miterlimit="10"/>
<path d="M289.948 155.743C291.755 155.743 293.22 157.208 293.22 159.014V216.946C293.22 218.753 291.755 220.218 289.948 220.218H196.113C194.306 220.218 192.841 218.753 192.841 216.946V159.015C192.841 157.207 194.306 155.743 196.113 155.743H289.948M289.948 154.96H196.113C193.877 154.96 192.059 156.779 192.059 159.014V216.946C192.059 219.181 193.877 221 196.113 221H289.948C292.184 221 294.002 219.181 294.002 216.946V159.015C294.003 156.779 292.184 154.96 289.948 154.96Z" fill="white"/>
<path d="M289.948 220.218H196.113C194.306 220.218 192.841 218.753 192.841 216.946V164.467H293.22V216.946C293.22 218.753 291.755 220.218 289.948 220.218Z" fill="#C5B3DD"/>
<path d="M200.524 160.361C200.524 161.395 199.686 162.233 198.652 162.233C197.618 162.233 196.78 161.395 196.78 160.361C196.78 159.327 197.618 158.488 198.652 158.488C199.686 158.488 200.524 159.327 200.524 160.361Z" stroke="white" stroke-width="0.782566" stroke-miterlimit="10"/>
<path d="M207.783 160.361C207.783 161.395 206.944 162.233 205.91 162.233C204.876 162.233 204.038 161.395 204.038 160.361C204.038 159.327 204.876 158.488 205.91 158.488C206.944 158.488 207.783 159.327 207.783 160.361Z" stroke="white" stroke-width="0.782566" stroke-miterlimit="10"/>
<path d="M192.841 164.467H293.22" stroke="white" stroke-width="0.782566" stroke-miterlimit="10"/>
<path d="M279.138 207.687C274.144 202.157 268.342 199.422 265.392 200.088C261.052 201.07 261.841 212.146 261.962 216.594C259.866 214.17 257.269 212.182 254.381 210.792C252.206 209.746 249.73 209.031 247.386 209.602C245.041 210.174 242.975 212.378 243.25 214.776C237.788 206.652 230.248 199.936 221.547 195.447C216.048 192.609 201.097 186.71 198.537 192.832C195.73 199.547 211.656 220.218 211.656 220.218H288.847C288.847 220.218 283.648 212.681 279.138 207.687Z" fill="#A29DCE"/>
<path d="M182.683 148.621C179.849 145.652 177.126 139.914 176.361 136.855C175.689 134.163 175.088 131.408 173.817 128.92C173.474 128.249 172.002 126.701 172.536 125.895C173.613 124.272 176.224 126.41 176.905 127.376C177.149 127.722 178.048 129.179 178.498 129.264C178.949 129.349 179.139 127.605 179.193 126.857C179.404 123.981 179.418 120.846 179.174 117.936C178.923 114.94 179.35 112.31 180.29 112.171C181.243 112.031 181.194 112.595 181.367 112.783C181.519 111.834 182.383 110.709 182.941 111.025C183.28 111.218 183.404 111.643 183.451 112.03C183.498 112.417 183.729 113.154 183.729 113.154C183.729 113.154 184.27 111.134 185.257 112.276C185.755 112.854 186.515 115.923 187.002 116.898C186.953 116.253 186.79 115.894 186.998 115.142C187.11 114.733 187.341 114.397 187.783 114.612C188.044 114.739 188.12 114.997 188.211 115.251C188.706 116.626 189.924 118.838 190.367 120.231C190.828 121.684 191.29 123.137 191.751 124.589C192.618 127.32 193.466 130.193 194.088 133.042C194.664 135.677 196.776 142.171 196.776 142.171" fill="#A04B4B"/>
<path d="M181.341 112.945C181.592 114.508 182.164 116.5 182.477 118.271C182.927 120.811 183.13 123.162 183.514 125.399" stroke="black" stroke-width="0.521711" stroke-miterlimit="10"/>
<path d="M183.865 113.202C184.165 114.54 184.686 116.394 185.036 117.917C185.619 120.462 186.048 122.743 186.549 124.978" stroke="black" stroke-width="0.521711" stroke-miterlimit="10"/>
<path d="M186.995 116.854C187.737 119.286 188.809 122.076 189.659 125.153" stroke="black" stroke-width="0.521711" stroke-miterlimit="10"/>
<path d="M178.783 129.11C178.592 130.395 178.497 131.76 177.641 132.882" stroke="black" stroke-width="0.521711" stroke-miterlimit="10"/>
<path d="M278.594 220.218C277.59 217.536 276.517 214.718 275.008 212.259C273.498 209.8 271.526 207.55 269.008 206.009C267.879 205.317 266.657 204.777 265.439 204.239C262.163 202.792 258.888 201.346 255.612 199.898L239.534 193.626C238.539 192.703 237.545 191.78 236.551 190.855C234.631 189.067 232.717 187.274 230.817 185.464C230.744 185.394 230.671 185.325 230.598 185.256C216.044 171.365 205.221 155.844 195.766 137.731L178.783 145.18C178.783 145.18 186.128 170.211 193.107 180.836C202.326 194.872 212.99 207.64 217.808 211.682C218.668 214.57 219.653 217.42 220.769 220.219L278.594 220.218Z" fill="#FCDDD2"/>
<path d="M181.518 153.79L199.735 145.031" stroke="black" stroke-width="0.521711" stroke-miterlimit="10"/>
<path d="M182.427 143.582L188.569 156.91" stroke="black" stroke-width="0.521711" stroke-miterlimit="10"/>
<path d="M188.199 146.383C188.199 147.047 187.66 147.586 186.996 147.586C186.331 147.586 185.792 147.047 185.792 146.383C185.792 145.719 186.331 145.18 186.996 145.18C187.66 145.18 188.199 145.719 188.199 146.383Z" stroke="#D8A798" stroke-width="0.521711" stroke-miterlimit="10"/>
<path d="M253.846 219.862C254.683 218.771 255.521 217.68 256.359 216.59C257.262 215.413 258.168 214.233 259.188 213.155C262.165 210.01 266.183 207.772 270.489 207.305" stroke="#D8A798" stroke-width="0.521711" stroke-miterlimit="10"/>
<path d="M217.304 210.118C217.304 205.766 218.758 201.445 221.261 197.898C224.415 193.429 229.056 190.221 234.665 190.061" stroke="#D8A798" stroke-width="0.521711" stroke-miterlimit="10"/>
<path d="M217.734 211.511C216.931 209.12 216.47 206.438 215.199 204.238" stroke="black" stroke-width="0.521711" stroke-miterlimit="10"/>
<path d="M234.416 191.845L233.357 205.204C233.357 205.204 237.847 209.778 244.022 206.799C250.196 203.821 254.7 198.155 254.7 198.155L252.681 189.874" fill="#A04B4B"/>
<path d="M258.958 175.199C258.334 173.247 257.164 171.464 255.59 170.175C251.804 167.075 247.639 167.16 243.572 169.549C240.037 171.626 235.186 174.903 232.49 178.039C229.708 181.275 227.846 185.3 230.687 189.085C235.259 195.175 248.081 193.11 254.199 188.116C256.69 186.082 259.041 182.78 259.408 179.529C259.572 178.079 259.405 176.596 258.958 175.199Z" fill="#A04B4B"/>
<path d="M242.785 171.249C240.747 172.286 238.517 172.562 236.284 172.826C235.211 172.953 233.791 173.313 233.985 174.722C234.111 175.63 234.901 176.412 235.559 176.967" fill="#A04B4B"/>
<path d="M233.897 185.119C233.897 185.119 234.268 184.284 234.452 183.867C234.808 183.062 233.651 182.519 233.1 182.242C232.699 182.041 232.488 181.862 232.089 182.124C231.986 182.191 231.405 182.754 231.279 182.651C231.273 182.646 230.203 181.4 230.203 181.4C229.371 182.699 228.836 185.166 228.955 186.628C229.074 188.091 229.64 189.546 230.686 190.576C231.106 190.989 231.763 191.586 232.269 191.889C236.478 194.421 241.727 194.229 246.306 192.449C247.719 191.899 249.097 191.165 250.127 190.051C236.11 189.848 233.897 185.119 233.897 185.119Z" fill="#1E1611"/>
<path d="M250.613 184.182C250.551 184.168 250.488 184.156 250.427 184.146C249.491 183.992 248.565 184.129 247.643 183.826C246.9 183.581 246.209 183.12 245.801 182.453C245.319 181.665 245.981 181.206 246.622 180.851C247.572 180.327 248.497 179.739 249.269 178.977C250.539 177.726 251.209 175.932 250.658 174.185C250.06 172.29 248.194 171.177 246.747 169.976C245.351 168.819 243.569 167.017 244.157 165.01C244.747 162.997 246.693 162.263 248.614 162.547C249.645 162.7 250.684 162.989 251.714 162.828C252.237 162.747 252.736 162.552 253.253 162.436C254.84 162.08 256.67 162.588 257.615 163.911C258.296 164.865 258.56 166.217 259.61 166.737C260.115 166.987 260.705 166.982 261.254 167.112C262.37 167.374 263.312 168.222 263.766 169.275C264.22 170.327 264.202 171.557 263.794 172.629C263.061 174.555 261.964 175.52 262.865 177.644C264.955 182.578 265.834 188.635 260.84 192.182C259.526 193.116 257.881 193.598 256.788 194.782C256.106 195.519 255.549 196.572 254.55 196.678C253.879 196.749 253.246 196.335 252.786 195.841C252.373 195.397 252.049 194.881 251.729 194.367C251.286 193.655 250.836 192.91 250.745 192.077C250.614 190.887 251.232 189.76 251.793 188.703C252.321 187.707 253.385 185.641 252.127 184.817C251.693 184.533 251.137 184.297 250.613 184.182Z" fill="#1E1611"/>
<path d="M247.53 173.404C247.216 172.449 246.641 171.5 245.756 171.931C245.535 172.039 245.405 172.282 245.371 172.526C245.336 172.769 245.381 173.016 245.425 173.258C245.634 174.39 245.854 175.553 246.467 176.528C246.591 176.724 246.738 176.918 246.946 177.023C248.334 177.719 247.709 173.95 247.53 173.404Z" fill="#1E1611"/>
<path d="M238.762 179.864L234.835 178.974C234.835 178.974 234.45 182.341 236.119 182.675C237.788 183.009 238.762 179.864 238.762 179.864Z" fill="white"/>
<path d="M234.598 175.912C234.924 176.335 235.367 176.667 235.865 176.862" stroke="black" stroke-width="0.521711" stroke-miterlimit="10"/>
<path d="M238.936 172.457C240.41 172.242 241.843 171.75 243.137 171.013" stroke="black" stroke-width="0.521711" stroke-miterlimit="10"/>
<path d="M249.699 184.319C251.147 183.229 253.776 184.274 254.315 185.896C255.613 189.796 249.36 193.051 246.617 190.635C245.84 189.951 245.254 188.556 245.937 187.562" fill="#A04B4B"/>
<path d="M252.06 188.025L247.637 187.271" stroke="black" stroke-width="0.521711" stroke-miterlimit="10"/>
<path d="M252.511 184.281C251.628 183.945 250.633 183.892 249.698 184.13" stroke="black" stroke-width="0.521711" stroke-miterlimit="10"/>
<path d="M246.036 187.604C245.543 188.448 245.689 189.486 246.227 190.271C247.205 191.699 249.57 191.706 250.998 191.095" stroke="black" stroke-width="0.521711" stroke-miterlimit="10"/>
<path d="M243.417 176.637C242.858 177.042 242.169 177.046 241.879 176.646C241.589 176.245 241.808 175.592 242.368 175.187C242.928 174.782 243.616 174.778 243.906 175.179C244.195 175.579 243.977 176.232 243.417 176.637Z" fill="black"/>
<path d="M256.879 197.72C242.785 199.391 234.156 205.844 234.156 205.844L236.607 217.042C249.214 205.057 261.477 202.353 261.601 202.224L256.879 197.72Z" fill="#FCDDD2"/>
<path d="M233.749 198.689L228.441 202.097C228.441 202.097 227.528 211.621 229.27 216.685L234.157 205.843L233.749 198.689Z" fill="#FCDDD2"/>
<path d="M234.156 205.844L236.607 217.042C249.214 205.057 261.477 202.352 261.601 202.224" stroke="black" stroke-width="0.521711" stroke-miterlimit="10"/>
<path d="M233.749 198.689L228.441 202.097C228.441 202.097 227.528 211.621 229.27 216.685L234.157 205.843" stroke="black" stroke-width="0.521711" stroke-miterlimit="10"/>
<path d="M181.443 168.41C182.867 173.474 184.977 178.344 187.699 182.845" stroke="black" stroke-width="0.521711" stroke-miterlimit="10"/>
<path d="M181.908 177.107C182.802 180.363 183.875 183.57 185.119 186.708" stroke="black" stroke-width="0.521711" stroke-miterlimit="10"/>
<path d="M268.927 183.933C269.003 186.253 268.101 188.535 266.72 190.401C265.339 192.266 263.502 193.751 261.561 195.025" stroke="black" stroke-width="0.521711" stroke-miterlimit="10"/>
<path d="M267.348 194.943C269.291 193.841 270.949 192.241 272.119 190.339" stroke="black" stroke-width="0.521711" stroke-miterlimit="10"/>
</svg>
